<svg width="100" height="100" viewBox="0 0 100 100" fill="none" xmlns="http://www.w3.org/2000/svg">
<g clip-path="url(#clip0_95_3541)">
<path d="M10.7638 0H89.2487C90.0257 0.377688 91.3644 0.478725 92.2739 0.853778C95.333 2.11518 97.8906 4.56197 99.1006 7.66287C99.5459 8.79469 99.6768 9.56104 100 10.5928V89.4308C99.6641 90.6503 99.334 91.8905 98.7939 93.0102C97.3141 96.0775 94.6032 98.4922 91.3239 99.4629C91.0455 99.5449 89.7929 99.9053 89.6561 100H10.1742C9.42831 99.5459 7.60499 99.1709 6.63805 98.6279C4.07606 97.1897 2.18503 95.2447 0.989355 92.5486C0.618327 91.712 0.281893 89.8599 0 89.3385V10.6725C0.128731 10.4336 0.21434 9.88398 0.280323 9.58949C1.24925 5.26518 4.60858 1.58383 8.93214 0.479353C9.50701 0.332497 10.1305 0.232188 10.689 0.0279142L10.7638 0ZM38.338 81.6231C40.1385 81.2891 41.3628 80.4614 42.4369 78.9692C43.2271 77.8716 43.3195 77.0612 43.3926 75.7316C43.4752 74.2274 43.441 72.609 43.4407 71.0911L43.4376 63.2409L43.4382 39.0336L43.439 24.7708C43.439 22.8135 43.4521 20.8819 43.399 18.9106C43.3486 17.0356 42.7068 15.8363 41.3914 14.5596C39.5733 12.795 37.235 13.0555 34.8607 13.0565L29.3453 13.0618L22.5321 13.06C21.1926 13.0584 19.5907 13.0156 18.2865 13.1104C15.2501 13.7134 13.1707 15.776 13.1354 18.9244C13.1179 20.4781 13.1026 22.0252 13.1025 23.58L13.1018 31.8596L13.1016 57.5333L13.1026 70.69C13.1028 72.7474 13.0032 74.995 13.2418 77.0467C13.4808 79.1022 15.8903 81.3681 17.9421 81.5819C20.6385 81.8632 23.531 81.6555 26.2551 81.7182C30.1604 81.6521 34.504 81.8639 38.338 81.6231ZM81.7596 56.6298C84.3846 56.1617 86.6835 54.1055 86.8344 51.3487C86.9545 49.1552 86.9032 46.9447 86.9011 44.746L86.8994 32.5289L86.9019 22.8342C86.9024 19.636 87.4751 16.2647 84.4125 14.166C82.3322 12.7403 80.3881 13.0564 77.9817 13.0575L71.0216 13.0634L65.1628 13.0597C64.3777 13.059 62.7183 13.0177 61.9725 13.1162C59.0061 13.52 56.9002 15.4535 56.6793 18.5155C56.5191 20.7355 56.5791 22.9248 56.5797 25.1485L56.5768 36.9333L56.5761 46.4621C56.5763 49.4534 56.0193 53.3559 58.8205 55.3833C59.479 55.8599 60.2668 56.3705 61.0886 56.528C63.687 56.8032 66.9721 56.7659 69.5857 56.7183C73.5189 56.6465 77.8819 56.8557 81.7596 56.6298Z" fill="#FF8FC7"/>
</g>
<defs>
<clipPath id="clip0_95_3541">
<rect width="100" height="100" fill="white"/>
</clipPath>
</defs>
</svg>
