<svg width="840" height="770" viewBox="0 0 840 770" fill="none" xmlns="http://www.w3.org/2000/svg" overflow="visible">
<path d="M816.956 414.858C820.832 417.923 824.998 430.174 826.257 434.241C833.884 458.773 830.105 480.876 815.775 495.516C791.867 520.598 738.232 515.199 693.767 486.501C674.539 474.091 658.174 456.422 640.924 441.667C619.127 423.021 593.422 413.862 570.964 416.007C563.385 416.752 554.418 419.549 550.084 424.179C561.811 430.688 575.586 442.044 580.57 452.945C583.025 458.317 583.96 462.957 581.719 466.826C574.289 479.636 547.519 464.828 541.262 449.616C536.799 438.814 540.474 431.448 545.269 424.286C522.572 412.862 497.832 410.443 479.913 415.566C469.883 418.478 461.376 423.309 454.807 429.834C447.593 436.813 442.344 445.342 439.26 455.094C432.716 475.161 433.075 498.861 424.421 517.841C423.239 520.434 420.087 524.317 418.314 526.679C414.318 532.006 410.81 535.044 404.463 538.245C394.021 543.517 380.768 543.883 365.483 538.986C357.209 536.332 349.932 532.224 342.331 527.366C313.069 508.67 293.918 481.275 272.561 456.99C266.927 450.584 259.856 442.898 253.38 437.023C213.586 400.935 176.66 401.276 136.835 401.266C126.144 400.86 114.628 402.099 103.026 398.447C87.3736 393.518 77.276 380.456 73.7214 367.806C64.6272 335.428 98.2974 327.63 98.107 298.797C98.2202 297.855 97.9024 294.087 97.7625 292.865C96.3634 280.658 90.8832 268.594 81.9657 256.177C79.7466 253.085 73.0106 246.145 72.7954 244.201L73.2112 244.016C76.0934 244.754 84.0338 255.397 85.9736 258.108C102.323 280.967 104.706 305.17 94.1921 321.152C87.4014 331.474 78.1162 340.111 75.3088 352.995C73.5001 362.069 75.3307 370.578 82.6819 380.944C96.3105 400.165 115.569 398.834 132.428 398.944C158.858 399.117 188.142 397.71 217.83 411.122C278.609 438.577 297.818 506.639 358.925 534.031C371.996 539.93 385.259 541.828 395.638 538.762C436.367 526.804 424.694 476.772 439.447 446.423C446.827 431.232 460.036 418.282 478.803 413.297C499.782 407.729 521.288 410.995 547.27 422.767C557.421 414.54 570.921 411.724 588.332 414.285C595.282 415.355 602.439 417.329 609.576 420.148C637.643 431.272 654.742 453.115 677.728 472.135C701.506 491.809 728.154 504.146 755.109 508C780.585 511.738 801.883 506.452 814.764 492.493C827.663 478.518 830.917 456.607 823.599 433.7C821.632 427.535 819.017 422.292 816.205 416.155C815.873 415.432 816.552 415.13 816.956 414.858ZM548.161 425.453C546.125 428.074 544.604 429.916 543.36 433.069C538.989 444.167 544.616 459.338 562.842 467.259C586.077 475.769 583.008 455.424 570.386 442.044C567.209 438.677 561.766 433.45 557.732 431.068C554.045 428.664 551.455 427.494 548.161 425.453Z" fill="#FFD7E8"/>
<path d="M811.299 411.488C815.174 414.553 819.341 426.804 820.599 430.871C828.227 455.403 824.448 477.506 810.118 492.146C786.21 517.228 732.575 511.829 688.11 483.131C668.882 470.721 652.517 453.052 635.267 438.297C613.47 419.651 587.764 410.492 565.307 412.637C557.727 413.383 548.761 416.179 544.427 420.81C556.154 427.318 569.928 438.674 574.912 449.575C577.367 454.947 578.303 459.587 576.062 463.456C568.632 476.266 541.862 461.458 535.605 446.246C531.142 435.444 534.817 428.078 539.612 420.916C516.914 409.492 492.174 407.073 474.256 412.196C464.226 415.108 455.718 419.94 449.15 426.464C441.935 433.443 436.687 441.972 433.603 451.725C427.059 471.791 427.417 495.491 418.764 514.471C417.582 517.064 414.43 520.947 412.657 523.309C408.661 528.636 405.153 531.674 398.806 534.876C388.364 540.147 375.111 540.514 359.826 535.616C351.552 532.963 344.275 528.855 336.673 523.996C307.412 505.3 288.261 477.906 266.904 453.62C261.27 447.214 254.199 439.528 247.723 433.653C207.929 397.565 171.003 397.906 131.177 397.897C120.487 397.49 108.97 398.729 97.3692 395.077C81.7164 390.148 71.6187 377.086 68.0642 364.436C58.9699 332.058 92.6402 324.26 92.4497 295.427C92.5629 294.485 92.2451 290.717 92.1053 289.496C90.7062 277.289 85.226 265.225 76.3085 252.807C74.0894 249.715 67.3533 242.775 67.1382 240.831L67.554 240.647C70.4362 241.384 78.3765 252.027 80.3164 254.739C96.6661 277.598 99.0491 301.8 88.5348 317.782C81.7442 328.104 72.459 336.741 69.6516 349.625C67.8429 358.699 69.6735 367.208 77.0246 377.574C90.6533 396.795 109.912 395.464 126.771 395.575C153.201 395.747 182.485 394.34 212.172 407.752C272.952 435.207 292.161 503.269 353.268 530.661C366.339 536.56 379.602 538.458 389.981 535.392C430.709 523.434 419.036 473.402 433.79 443.053C441.17 427.862 454.379 414.912 473.145 409.927C494.125 404.359 515.631 407.625 541.613 419.397C551.764 411.17 565.264 408.354 582.675 410.915C589.624 411.985 596.782 413.96 603.919 416.778C631.986 427.903 649.085 449.745 672.071 468.765C695.849 488.439 722.497 500.776 749.452 504.631C774.928 508.368 796.226 503.082 809.107 489.123C822.006 475.148 825.26 453.237 817.942 430.33C815.975 424.165 813.359 418.922 810.548 412.785C810.216 412.062 810.895 411.761 811.299 411.488ZM542.504 422.083C540.468 424.704 538.946 426.546 537.703 429.699C533.331 440.797 538.958 455.968 557.185 463.889C580.42 472.399 577.351 452.054 564.729 438.674C561.552 435.307 556.109 430.081 552.075 427.698C548.388 425.294 545.798 424.124 542.504 422.083Z" fill="#FFD7E8"/>
</svg>