<svg width="116" height="125" viewBox="0 0 116 125" fill="none" xmlns="http://www.w3.org/2000/svg">
<path d="M69.4119 0C69.9042 0.0646831 70.2297 0.204035 70.5196 0.6028C71.2074 3.3277 70.9668 6.45218 71.2033 9.25612C71.563 13.5074 72.2933 17.7719 72.4929 22.0349C72.6967 26.3869 72.4915 30.7823 72.6133 35.1452C72.6953 38.149 73.1356 41.1424 73.1425 44.1428C73.1452 45.1362 72.7431 54.742 72.6379 54.9288C72.5435 55.094 72.3794 55.1022 72.2126 55.1623C71.6519 55.0726 71.5808 55.0898 71.1404 54.7642C70.4553 53.3684 71.3661 45.1788 71.1322 42.8409C70.4457 35.9811 70.6249 29.0691 70.6003 22.2416C70.5784 16.2669 69.0345 10.5979 69.2629 4.40543C68.5982 5.70976 66.8013 9.01434 66.6331 10.2548C66.2831 12.8514 67.3442 16.7052 67.5111 19.2719C67.7791 23.3957 68.0348 27.4437 68.363 31.5574L69.241 43.2464C69.3422 44.5066 70.1175 47.4651 68.9182 48.0708C68.4123 48.0563 68.4355 48.0696 67.9952 47.8291C67.6711 47.2898 67.6971 46.1474 67.5972 45.4769C66.8082 40.1484 66.9695 34.7202 66.3227 29.3895C65.9425 26.2471 65.933 23.2199 65.7415 20.0743C65.6075 17.8798 65.1494 15.6098 64.7364 13.4538C64.106 14.7817 62.9723 16.1782 62.4362 17.4717C60.8417 21.6608 58.3871 25.5143 56.5806 29.5607C54.9902 33.1265 53.5762 36.1122 51.5632 39.4858C49.4518 43.0247 47.8545 47.1324 45.3301 50.4522C45.0484 50.8221 42.1657 50.6667 41.5188 50.6521C35.7616 50.4967 30.014 50.1192 24.2869 49.5201C19.2695 48.994 14.6815 48.3411 9.55882 47.8781C16.7847 53.3454 24.2937 57.8714 31.6714 63.0462C32.4974 63.6261 28.4126 69.5351 27.8725 70.2776C25.7583 73.1822 24.023 76.3042 22.226 79.4071C21.7761 80.1893 20.7272 81.1452 20.4674 81.777C17.5874 88.7704 15.1177 96.5529 11.6142 103.204C13.5396 102.517 16.6152 99.8582 18.3533 98.5016L28.7162 90.313C30.1398 89.2094 31.4622 88.4026 32.8871 87.3674C34.1753 86.4306 35.4991 85.1288 36.8269 84.1565C38.9657 82.5893 41.1387 81.2669 43.417 79.8721C44.3469 79.3018 46.3571 77.8823 47.4962 77.9876C47.8764 78.0232 48.2374 78.521 48.407 78.8492C49.5434 81.0413 50.4459 83.4809 51.4894 85.7141C52.1909 87.2142 53.2384 88.7568 54.0821 90.2132C54.956 91.6518 55.6452 93.5335 56.6079 94.8846C60.6393 100.549 64.3398 106.436 68.5244 111.991C68.7883 112.341 68.9811 112.554 69.3969 112.638C69.5993 112.292 68.6844 93.3461 68.6092 91.0173C68.4068 84.7076 67.5384 78.268 67.7039 71.8079C69.8659 70.7193 73.6744 69.6568 76.0156 68.7487C77.6047 68.3344 79.9226 66.878 81.4624 66.6223C85.8329 65.8934 89.4213 64.1566 93.5389 62.6155C96.5993 61.4711 100.639 60.4201 103.385 58.6987C101.972 58.3561 100.557 58.0228 99.1402 57.6987C93.8411 56.4135 88.4846 55.0608 83.1964 53.7165C81.1506 53.1965 76.7527 53.2357 75.1171 52.0837C74.7821 51.5623 74.8956 50.6167 75.4454 50.2506C77.6498 49.9547 87.0008 52.4852 89.7344 53.0566C96.5296 54.4767 103.678 55.972 110.054 58.7224C111.01 59.1347 116.103 59.6138 115.441 61.1495C114.084 62.2244 112.573 62.3338 111.081 62.9956C108.134 64.3043 105.349 65.1796 102.216 65.9549C100.222 66.4486 98.3839 67.3224 96.2561 67.4209C95.0554 67.477 93.6797 67.719 92.5023 67.9624C89.0452 68.8554 85.4623 70.2721 81.9383 70.841C77.5814 71.5439 73.87 71.8885 69.5911 73.1412C69.9384 76.2878 70.4526 79.4139 71.135 82.5059C71.9432 86.2556 72.843 89.5485 73.0645 93.4213C73.1534 94.9817 73.5144 97.2421 73.7606 98.8093C74.5879 104.065 75.7038 109.283 76.0265 114.605C76.2289 117.536 77.0344 120.587 76.5448 123.558C75.0843 125.496 73.2861 120.864 72.3165 120.106L72.0909 120.138C71.6409 121.045 72.0704 122.723 71.2977 123.84C69.4283 124.599 63.373 114.229 62.1805 112.577C61.3778 111.292 60.8828 109.349 60.091 108.117C57.0401 103.656 55.2951 98.6384 52.8309 93.9396C50.4856 89.4706 49.047 85.4091 47.112 80.8238C45.873 81.8249 44.1513 83.9609 42.8371 85.2067C39.603 88.2713 36.2621 91.1649 33.1223 94.3266C32.3429 95.1116 30.1863 96.4504 29.3521 97.171C26.0756 100.006 10.6091 111.963 6.84293 111.827C5.51645 111.14 6.90175 109.208 7.4173 108.26C6.33423 108.817 4.30348 110.135 3.17939 109.565C2.93324 108.86 3.36947 107.963 3.74143 107.349C5.0898 105.126 5.97458 102.763 7.07679 100.431C7.69627 99.1156 8.67677 97.8603 9.31266 96.5721C12.0655 91.0063 15.8548 86.2023 18.6897 80.7076C19.2941 79.5343 19.7167 78.0109 20.3197 76.9169C22.3204 73.2793 23.532 69.9139 24.6383 65.9494C23.4595 65.0141 22.0168 63.6274 20.8558 62.5977C19.1396 61.097 17.3796 59.648 15.5772 58.2519C13.8692 56.9429 11.9492 55.8769 10.1701 54.5477C7.81114 52.821 5.75577 50.9714 3.54587 49.0391C3.06178 48.6152 -1.12826 46.1936 0.292583 45.0781C0.868303 44.6266 3.10964 44.973 3.94245 45.0899C3.20947 44.1992 1.27855 42.8678 1.31274 41.7357C2.657 40.2389 10.6104 42.3993 12.5878 42.4945C19.636 42.834 26.3436 43.9152 33.2646 45.1063C35.6468 45.5163 40.3688 45.3436 42.7482 44.9609C45.0333 42.1262 45.6898 41.1143 47.2337 37.828C48.1896 35.7674 49.1646 33.7154 50.1574 31.6722C51.4989 28.9335 52.9403 26.2306 54.249 23.4785C55.0558 22.052 56.0787 18.5837 56.8185 17.3671C57.9727 15.4713 63.987 1.19767 65.0441 0.832407C66.5962 1.28601 66.2995 4.03839 66.3323 5.41492C67.4673 3.83941 68.2755 0.91582 69.4119 0ZM41.0293 83.8707C37.4833 85.7988 35.5538 87.5697 32.5439 90.1311C31.7494 90.808 30.0496 91.6176 29.1757 92.3191C28.2007 93.1013 27.2557 93.9396 26.2739 94.7122L18.4503 100.809C15.8548 102.823 13.2183 104.703 10.5106 106.558C10.021 106.893 9.08291 108.058 9.52735 108.658C13.3222 107.23 15.6825 104.989 18.888 102.809C21.9389 100.984 24.5399 98.3977 27.3706 96.3533C31.3842 93.4555 34.7647 90.2925 38.3257 86.8559C38.7715 86.4251 40.9459 84.404 41.0963 83.9171L41.0293 83.8707ZM44.2443 48.5969C45.1632 47.2488 47.0149 44.0667 47.6111 42.5928C47.9024 42.1395 48.3277 41.2579 48.5916 40.7504C49.2931 39.3487 49.9728 38.0703 50.7577 36.7082C51.2869 35.6064 52.5423 34.1352 52.9457 33.0644C55.1461 27.2356 58.5252 21.9865 60.9758 16.2876C61.9303 14.0685 65.9754 9.02747 64.482 6.80787L64.2099 6.76711C63.5015 7.25449 62.3761 9.98677 61.9357 10.9252C60.4479 14.1461 58.6537 17.2786 57.4681 20.6309C55.5714 25.9984 52.407 30.69 50.3625 35.9957C49.7909 37.4778 48.8856 39.1704 48.1841 40.6019L47.5427 41.8963C46.6579 43.3861 44.2621 46.7788 42.4994 47.0121C35.4457 47.9452 28.4414 46.2128 21.5081 45.1946C18.2972 44.7259 14.9345 44.6579 11.7031 44.3226C9.65454 44.1473 7.15883 43.5115 5.1062 43.1594C6.19611 44.6576 7.0467 45.7217 9.05968 45.8592C20.823 46.6628 32.4167 48.7645 44.2443 48.5969ZM26.68 65.5064C26.2848 66.93 26.0236 68.4547 25.6216 69.8058C26.3163 69.0359 26.6568 68.5969 27.2516 67.7436C28.094 66.5101 28.7176 65.1754 29.761 64.1266L16.7902 55.2226C13.1677 52.75 9.66274 50.599 6.40123 47.5905C6.06619 47.2815 5.11715 47.08 4.64672 47.0602C4.84501 47.7593 6.25492 48.7229 6.87166 49.2972C8.18037 50.5185 9.50685 51.7487 10.9537 52.8032C12.7601 54.1186 14.7102 55.2222 16.5386 56.5024C18.3724 57.9748 25.5245 63.7601 26.68 65.5064ZM71.5876 116.545C72.3986 117.269 73.6621 118.92 74.4703 119.353L74.6207 119.148C74.7042 118.149 74.2037 116.981 74.1681 115.932C73.978 110.291 72.8635 104.806 71.9076 99.2647C71.5015 96.9153 71.2663 94.447 70.871 92.0566C70.8615 91.299 70.7999 90.5824 70.7452 89.8289L70.3952 89.7345L70.417 89.6579L70.7028 89.6142L70.5592 89.4241C70.2967 90.0231 70.4362 91.8213 70.5893 92.4203C70.8492 100.56 71.0133 108.415 71.5876 116.545ZM60.0376 104.003C62.1628 107.741 63.5535 111.533 66.0465 115.039C67.3196 116.832 68.2878 118.612 69.7934 120.267C69.8632 119.048 69.8208 118.361 69.7387 117.157C69.1863 116.354 68.5613 115.497 68.0526 114.674C65.6649 110.815 62.7097 107.384 60.2482 103.593L58.7536 101.476C59.0612 102.138 59.6301 103.471 60.0376 104.003ZM110.432 60.9701C109.301 60.5801 107.461 59.8132 106.337 59.9475C104.698 60.5162 89.1861 66.238 88.9905 66.6031C89.9833 66.5936 91.0527 66.2695 92.0237 66.0219C95.6393 65.5009 98.8598 65.1577 102.298 63.8749C103.492 63.4305 104.895 63.2459 106.105 62.8083C107.41 62.3433 109.134 61.5424 110.432 60.9701ZM6.94687 106.127C7.47336 105.898 8.52908 105.409 8.80258 104.995C9.71061 103.616 14.0032 93.9916 13.8104 92.8565C12.7287 94.4784 6.61457 104.329 6.90585 105.968C6.91542 106.022 6.93319 106.074 6.94687 106.127Z" fill="#FFD7E8"/>
</svg>