<svg width="113" height="118" viewBox="0 0 113 118" fill="none" xmlns="http://www.w3.org/2000/svg">
<path d="M52.5428 0C53.179 0.0151952 53.1603 -0.0113703 53.7026 0.294546C55.2941 2.24705 56.8644 8.70607 57.8188 11.393C61.131 20.7193 64.581 30.0523 67.6579 39.4646C68.1267 40.8985 69.2864 43.5653 69.4591 44.8447C69.1997 45.4281 69.1965 45.392 68.6422 45.7441C67.4544 45.884 66.8549 45.2106 66.4521 44.095C63.9952 37.2892 62.1388 30.4194 59.2948 23.7376C58.5784 22.0549 58.3158 19.654 57.5882 17.9052C56.6365 15.6179 55.4733 13.4339 54.7026 11.0729C54.1592 9.3321 54.0287 7.6445 53.4153 5.92185L53.321 5.66171L53.2514 5.80888C53.2133 5.89088 53.1771 5.97373 53.138 6.05532C51.0227 10.4806 51.1706 15.4997 50.4431 20.2378C50.1283 22.2888 49.5144 24.3228 49.3175 26.3875C49.1434 28.2126 49.3861 30.0988 49.3016 31.9368C49.1808 34.5667 47.7763 48.8104 46.5167 50.213C46.2221 50.541 46.0277 50.5578 45.6133 50.5987C41.8301 50.9725 38.0079 50.851 34.2206 51.1628C32.1299 51.3348 30.0628 51.7256 27.9756 51.9278C23.9985 52.3127 19.9991 52.3873 16.0178 52.7032C12.837 52.9555 9.686 53.4643 6.4993 53.6876C9.63914 55.5717 13.8716 57.0999 17.2182 58.6697C20.4399 60.1809 23.6797 61.8238 26.9503 63.1943C29.4278 64.2323 31.745 65.407 34.1066 66.6873C35.8862 67.6521 37.8528 68.4163 39.4466 69.6581C39.686 69.8418 40.0291 70.2985 40.048 70.6655C39.2103 73.5243 37.543 77.6115 36.6657 80.3158C34.8417 85.9394 33.522 91.5634 32.0617 97.2445C31.2387 100.447 28.8499 107.293 28.9698 110.37L29.1597 110.528C29.6861 110.24 33.0293 105.524 33.6017 104.687C36.2846 100.764 39.3665 97.2708 42.4455 93.6595C43.531 92.3862 44.745 90.1519 45.7584 89.0675C47.9874 86.683 51.8528 80.9299 54.3734 79.3025C55.2476 79.4065 57.6333 82.225 58.3473 82.9661C65.5082 90.4003 72.1134 99.1295 80.6364 105.033C79.7336 102.353 79.522 99.3189 78.5644 96.7884C76.7915 92.1031 75.3409 87.6653 74.1422 82.8093C73.4939 80.184 71.9899 77.3825 71.5157 74.6437C71.2517 73.1195 71.6324 71.4386 71.4409 69.8906C71.142 67.5025 70.5523 65.3953 70.249 62.9934C75.8129 58.9199 81.3651 58.1774 87.4819 55.4973C91.658 53.668 95.3839 50.9294 99.5624 49.0719C100.913 48.4707 102.439 47.6058 103.769 46.9227C104.402 46.6383 105.988 45.6033 106.655 45.1936C95.8136 45.3938 85.1139 46.0988 74.2916 46.4836C73.7188 46.5039 73.2359 46.2355 72.8909 45.8003C72.8658 45.4923 72.8161 45.3563 72.9422 45.0631C73.1829 44.5038 73.7547 44.1109 74.3038 43.8928C75.6663 43.3519 89.5252 43.2175 92.1301 43.131C97.8524 42.9409 103.508 42.4142 109.251 42.5296C110.171 42.5482 111.081 42.5707 111.946 42.9192C112.988 44.2338 111.794 44.9406 110.858 45.7407C108.25 47.9695 105.14 49.4026 102.356 51.3559C99.5536 53.1194 96.9629 55.7406 94.2362 57.5341C90.3742 60.0753 86.9643 62.6636 83.3964 65.5967C80.7718 67.7544 77.1467 69.5917 74.7876 72.0299C75.2969 74.6053 76.421 77.1451 77.1345 79.6866C77.6543 81.538 77.9738 83.4383 78.4802 85.2927C80.0761 91.1368 81.7615 96.8896 82.8719 102.86C83.1771 104.502 84.031 108.621 83.1336 109.946C80.1377 110.691 56.8946 86.6614 54.7979 82.643C50.9334 85.8589 48.0659 90.6567 44.9151 94.5361C41.6632 98.5399 39.2155 103.051 36.189 107.229C33.3499 111.148 30.5788 115.552 25.7452 117.14C24.697 117.484 25.1544 112.202 25.155 111.703C25.1521 108.935 25.8504 106.305 26.1491 103.583C26.3742 101.531 26.4338 99.4331 26.6365 97.3727C27.0876 93.1929 27.6533 89.0262 28.3325 84.8773C29.1475 80.073 30.8071 73.814 31.1941 69.2772C25.7488 67.0607 20.8675 63.8931 15.5919 61.2949C12.6214 59.832 1.24402 56.0789 0 53.6803C0.784252 52.2399 3.87864 51.8298 5.32814 51.26C13.878 47.8986 22.943 46.9685 31.8392 44.9326C34.3243 44.3639 37.2291 43.9671 39.5953 43.0034L39.8305 42.9063C42.4589 37.6215 43.7972 28.0688 45.3231 22.181C46.2516 18.5976 47.7388 15.6258 48.6742 12.2314C49.4846 9.29088 50.7099 2.24238 52.5428 0ZM25.0432 49.3989C29.0679 49.3738 32.9467 48.5589 36.9414 48.1704C39.5281 47.9188 42.3082 47.9435 44.907 48.0024C44.9858 45.511 45.56 43.24 45.9535 40.8745C46.1929 39.4347 47.0072 30.2548 46.2599 29.5319C45.6829 33.0192 43.5153 41.9975 41.174 45.0974C39.981 46.6771 25.3415 48.1625 24.9597 49.3455L25.0432 49.3989ZM30.1989 94.2445C31.8887 86.5921 34.5596 78.6247 37.2961 71.295C36.4968 70.8495 34.6164 69.7111 33.7932 69.5583C33.0092 72.4453 32.6311 76.7993 31.7098 79.7573C31.2804 81.1363 29.0854 95.3025 29.382 96.2134C29.8893 95.7914 30.0364 94.893 30.1989 94.2445ZM73.658 68.5916L73.9507 68.9539C75.2302 69.0011 86.7362 59.7091 88.7197 58.1876L88.7112 57.9001C86.4124 58.5144 73.7227 63.007 72.8635 64.3347C72.8342 64.38 72.8166 64.4318 72.7931 64.4804C73.3722 65.6455 73.4861 67.2858 73.658 68.5916Z" fill="#FFD7E8"/>
</svg>