<svg width="67" height="100" viewBox="0 0 67 100" fill="none" xmlns="http://www.w3.org/2000/svg">
<g clip-path="url(#clip0_95_3535)">
<path d="M13.2309 0H33.5035H53.5661L53.6174 0.0182222C54.6825 0.391531 55.456 0.495712 56.6567 0.989284C60.4808 2.57273 63.5878 5.50935 65.3841 9.23828C66.01 10.4942 66.4543 11.8329 66.7029 13.214C66.7736 13.6183 66.9064 15.0006 67 15.2117V17.7917C66.8462 18.8157 66.7317 19.8248 66.4681 20.8284C65.4801 24.4873 63.2856 27.7052 60.2399 29.9605C57.5216 31.9688 54.7958 32.8922 51.4902 33.2249C50.3493 33.2345 49.1035 33.2295 47.97 33.3099L33.5526 33.2459L33.5304 33.4275C33.4844 33.2642 33.418 33.2369 33.2614 33.2364C31.311 33.231 29.3603 33.2346 27.4098 33.2355L15.5345 33.2374C15.2154 33.1562 14.0239 33.0396 13.4838 32.9301C11.0077 32.4425 8.67303 31.4043 6.65243 29.8925C3.8524 27.8373 1.77439 24.7856 0.693856 21.4766C0.394938 20.5611 0.148742 18.8878 0 17.9222V15.1533C0.0961254 14.8457 0.144604 14.2164 0.191587 13.8818C1.06715 7.64441 5.77178 2.18964 11.8347 0.445364C12.1884 0.34358 12.933 0.172823 13.2309 0Z" fill="#FF8FC7"/>
<path d="M13.2309 0H33.5035L33.5013 25.1007L33.4974 30.6764C33.4971 31.1182 33.4705 32.9423 33.5526 33.2459L33.5304 33.4275C33.4844 33.2642 33.418 33.2369 33.2614 33.2364C31.311 33.231 29.3603 33.2346 27.4098 33.2355L15.5345 33.2374C15.2154 33.1562 14.0239 33.0396 13.4838 32.9301C11.0077 32.4425 8.67303 31.4043 6.65243 29.8925C3.8524 27.8373 1.77439 24.7856 0.693856 21.4766C0.394938 20.5611 0.148742 18.8878 0 17.9222V15.1533C0.0961254 14.8457 0.144604 14.2164 0.191587 13.8818C1.06715 7.64441 5.77178 2.18964 11.8347 0.445364C12.1884 0.34358 12.933 0.172823 13.2309 0Z" fill="#FF8FC7"/>
<path d="M15.5345 33.2373L27.4098 33.2354C29.3603 33.2345 31.311 33.2309 33.2614 33.2364C33.418 33.2368 33.4844 33.2641 33.5304 33.4274L33.5152 41.9901C33.5161 43.819 33.4859 45.9919 33.5828 47.8045C33.4804 48.539 33.4011 51.418 33.5825 52.0651C33.5095 55.0797 33.4866 58.0953 33.5138 61.1106C33.5146 62.7457 33.4484 64.9633 33.5263 66.5576L33.4591 66.7107C33.0257 66.7722 31.6736 66.7395 31.1536 66.7402L26.3149 66.7415L19.3046 66.7408C18.3212 66.7415 16.5178 66.7958 15.5838 66.7127C15.3531 66.6139 13.8987 66.4824 13.4896 66.4091C11.3995 66.0158 9.40624 65.2181 7.62151 64.0613C4.25756 61.875 1.87847 58.6685 0.674384 54.8111C0.279771 53.5468 0.265008 52.4864 0.0128501 51.3225L0 51.2644V48.7572C0.0859288 48.5211 0.225348 47.0564 0.3076 46.6246C0.721205 44.5382 1.53533 42.5518 2.70492 40.7753C5.03037 37.1723 8.83216 34.5123 13.0248 33.6253C13.8547 33.4497 14.7098 33.4164 15.5345 33.2373Z" fill="#FF8FC7"/>
<path d="M33.5263 66.5576C33.5695 67.6038 33.521 68.9059 33.5174 69.9711L33.5194 76.0652L33.5223 81.2813C33.522 83.0387 33.566 84.802 33.2597 86.5392C32.7495 89.4331 31.1841 92.5842 29.2043 94.731C27.401 96.7246 25.1433 98.2531 22.6228 99.1874C22.176 99.3484 20.4934 99.8109 20.2093 99.9765H13.2845C13.102 99.8718 12.0856 99.5787 11.8273 99.4969C10.8398 99.1835 10.0774 98.908 9.16304 98.4356C4.9398 96.2561 1.93071 92.6117 0.596778 88.0421C0.39547 87.3531 0.284197 86.6426 0.182137 85.9327C0.12368 85.527 0.129117 85.1056 0 84.713V82.2058C0.02172 82.1698 0.460906 79.2955 0.588533 78.8558C2.36578 72.7335 7.34023 68.0638 13.6651 66.9829C14.291 66.8763 14.9511 66.8246 15.5838 66.7127C16.5178 66.7958 18.3212 66.7415 19.3046 66.7408L26.3149 66.7415L31.1536 66.7402C31.6736 66.7395 33.0257 66.7722 33.4591 66.7107L33.5263 66.5576Z" fill="#FF8FC7"/>
<path d="M51.4901 33.2251L51.5504 33.2385C52.6965 33.4878 53.713 33.4646 54.9942 33.8539C58.7894 35.0069 62.1572 37.4682 64.3038 40.7776C65.4839 42.5624 66.2992 44.5633 66.7016 46.6647C66.784 47.0948 66.9247 48.4297 66.9999 48.6905V51.4208C66.8547 52.4048 66.7297 53.3204 66.4732 54.2853C65.5068 57.932 63.3421 61.1477 60.3273 63.4156C50.2883 70.8835 35.8907 65.1022 33.8137 53.1615C33.7596 52.8506 33.6859 52.3479 33.5824 52.0654C33.401 51.4183 33.4803 48.5393 33.5828 47.8048C33.7584 47.3921 33.9497 45.8891 34.0909 45.3509C34.3203 44.4761 34.6376 43.7065 35.0145 42.8902C36.9167 38.7553 40.4258 35.5771 44.7283 34.0922C45.7144 33.7512 47.247 33.588 47.9208 33.3295L47.9699 33.3102C49.1034 33.2297 50.3493 33.2347 51.4901 33.2251Z" fill="#FF8FC7"/>
</g>
<defs>
<clipPath id="clip0_95_3535">
<rect width="67" height="99.9766" fill="white"/>
</clipPath>
</defs>
</svg>
