<svg width="796" height="890" viewBox="0 0 796 890" fill="none" xmlns="http://www.w3.org/2000/svg">
<path d="M333.839 57.6433C330.516 53.9043 317.708 50.2733 313.461 49.1924C287.845 42.6365 265.214 47.3712 250.72 62.3238C225.863 87.2996 233.686 140.653 265.146 183.833C278.751 202.505 297.658 218.089 313.599 234.683C333.742 255.652 344.267 280.937 342.999 303.468C342.549 311.073 340.043 320.152 335.451 324.684C328.247 313.249 315.957 299.98 304.508 295.474C298.865 293.254 294.041 292.521 290.146 294.928C277.25 302.907 293.645 329.011 309.594 334.602C320.92 338.592 328.36 334.601 335.543 329.499C348.277 351.681 351.812 376.294 347.283 394.419C344.702 404.567 340.078 413.276 333.627 420.122C326.734 427.633 318.161 433.247 308.234 436.752C287.818 444.161 263.365 444.831 244.158 454.301C241.535 455.594 237.664 458.912 235.303 460.786C229.978 465.01 226.993 468.647 223.959 475.126C218.962 485.789 219.142 499.045 224.835 514.104C227.918 522.256 232.46 529.348 237.789 536.732C258.298 565.156 287.351 583.101 313.29 603.385C320.133 608.736 328.355 615.468 334.685 621.682C373.57 659.876 374.771 696.783 376.456 736.573C377.325 747.237 376.532 758.797 380.785 770.229C386.526 785.654 400.419 795.176 413.612 798.178C447.38 805.859 454.005 771.88 483.743 770.819C484.71 770.665 488.608 770.819 489.874 770.906C502.52 771.774 515.19 776.726 528.369 785.096C531.65 787.179 539.09 793.608 541.103 793.739L541.276 793.315C540.394 790.468 529.086 782.996 526.208 781.176C501.95 765.833 476.895 764.502 460.857 775.701C450.499 782.934 441.984 792.585 428.817 795.95C419.537 798.15 410.686 796.691 399.689 789.796C379.296 777.014 379.858 757.714 379.036 740.875C377.746 714.476 377.966 685.157 362.887 656.078C332.022 596.544 261.034 580.306 230.219 520.442C223.587 507.638 221.072 494.469 223.797 483.966C234.414 442.755 286.495 452.246 317.168 436.189C332.521 428.156 345.319 414.396 349.669 395.43C354.528 374.227 350.256 352.882 337.026 327.434C345.081 316.935 347.417 303.325 344.044 286.04C342.649 279.143 340.312 272.078 337.105 265.07C324.455 237.51 301.213 221.374 280.635 199.234C259.348 176.331 245.506 150.242 240.398 123.478C235.474 98.1868 240.028 76.6785 253.879 63.2034C267.748 49.7092 290.203 45.5067 314.131 51.8237C320.571 53.522 326.087 55.9074 332.533 58.4499C333.293 58.7505 333.575 58.0591 333.839 57.6433ZM334.218 326.66C331.602 328.808 329.766 330.409 326.567 331.788C315.308 336.637 299.428 331.674 290.494 313.807C280.742 290.962 301.849 293.145 316.176 305.175C319.781 308.203 325.4 313.414 328.026 317.341C330.66 320.921 331.976 323.458 334.218 326.66Z" fill="#FFD7E8"/>
<path d="M337.549 63.152C334.225 59.413 321.418 55.7821 317.171 54.7012C291.555 48.1453 268.923 52.88 254.43 67.8326C229.573 92.8083 237.396 146.162 268.856 189.341C282.461 208.014 301.368 223.598 317.309 240.192C337.452 261.16 347.977 286.446 346.709 308.977C346.259 316.582 343.753 325.661 339.161 330.193C331.957 318.758 319.667 305.489 308.217 300.982C302.575 298.763 297.751 298.029 293.856 300.436C280.96 308.416 297.355 334.52 313.304 340.111C324.629 344.101 332.07 340.11 339.253 335.008C351.987 357.19 355.522 381.803 350.993 399.928C348.412 410.075 343.788 418.785 337.337 425.631C330.444 433.142 321.87 438.756 311.944 442.26C291.528 449.67 267.075 450.34 247.868 459.81C245.245 461.103 241.373 464.421 239.013 466.295C233.687 470.519 230.703 474.155 227.668 480.635C222.672 491.297 222.852 504.554 228.545 519.613C231.628 527.764 236.17 534.857 241.499 542.241C262.008 570.665 291.061 588.61 317 608.894C323.843 614.245 332.065 620.976 338.395 627.191C377.28 665.384 378.481 702.292 380.166 742.082C381.035 752.746 380.242 764.306 384.495 775.738C390.236 791.163 404.129 800.685 417.322 803.687C451.09 811.368 457.715 777.389 487.453 776.328C488.42 776.174 492.318 776.328 493.584 776.415C506.23 777.283 518.9 782.235 532.079 790.605C535.36 792.688 542.8 799.117 544.813 799.248L544.986 798.824C544.104 795.976 532.796 788.505 529.918 786.685C505.66 771.341 480.605 770.011 464.567 781.21C454.209 788.442 445.694 798.094 432.527 801.458C423.247 803.659 414.396 802.2 403.399 795.305C383.006 782.523 383.568 763.223 382.746 746.384C381.456 719.985 381.676 690.666 366.597 661.587C335.732 602.053 264.744 585.815 233.929 525.95C227.297 513.147 224.782 499.978 227.507 489.475C238.124 448.264 290.205 457.755 320.878 441.697C336.231 433.665 349.029 419.905 353.379 400.939C358.238 379.736 353.966 358.391 340.735 332.942C348.791 322.443 351.127 308.834 347.754 291.549C346.359 284.652 344.022 277.587 340.815 270.579C328.164 243.019 304.923 226.883 284.345 204.743C263.058 181.84 249.216 155.751 244.108 128.987C239.183 103.696 243.738 82.1872 257.589 68.7121C271.458 55.2179 293.913 51.0155 317.841 57.3324C324.28 59.0308 329.797 61.4161 336.243 63.9587C337.003 64.2592 337.285 63.5678 337.549 63.152ZM337.928 332.169C335.312 334.317 333.476 335.917 330.277 337.297C319.018 342.146 303.138 337.182 294.204 319.316C284.452 296.47 305.559 298.654 319.886 310.684C323.491 313.712 329.11 318.923 331.736 322.85C334.37 326.43 335.686 328.967 337.928 332.169Z" fill="#FFD7E8"/>
</svg>
