<svg width="100" height="100" viewBox="0 0 100 100" fill="none" xmlns="http://www.w3.org/2000/svg">
<path d="M49.3589 0.00419794C76.9606 -0.349813 99.6271 21.731 99.9955 49.3321C100.364 76.9338 78.2957 99.612 50.694 99.995C23.0722 100.379 0.373428 78.2901 0.00455119 50.6679C-0.364326 23.0456 21.7366 0.358428 49.3589 0.00419794ZM50.4289 96.9815C76.3645 96.7449 97.2024 75.5365 96.9819 49.6009C96.7615 23.6648 75.5663 2.8138 49.6299 3.01798C23.6713 3.22237 2.79768 24.4405 3.01833 50.3991C3.23898 76.3582 24.4703 97.2187 50.4289 96.9815Z" fill="#FF8FC7"/>
<path d="M48.4151 8.36095C57.1364 8.03045 65.7414 10.4468 73.0157 15.2691C75.1138 16.6665 76.2467 17.7345 78.1383 19.24C74.7337 19.273 72.1222 20.879 71.0098 24.2146C69.2368 29.5302 73.7539 34.1807 75.9025 38.6509C77.8051 42.4543 78.5968 46.8287 77.8776 51.0659C76.793 57.4497 74.3471 63.6643 72.5126 69.8694C71.9838 71.6585 71.3811 73.5244 70.7806 75.2901C70.2474 73.5127 69.5378 71.5362 68.9417 69.7602L65.4799 59.4688L55.7267 30.4615C57.0508 30.3848 60.2774 30.3476 61.4309 29.6607C62.5345 29.0032 62.1383 26.6235 60.4232 26.6661C59.4411 26.6906 58.3433 26.7763 57.31 26.8442C55.4924 26.964 53.6732 27.0555 51.8526 27.1188C47.7428 27.2615 43.9694 27.012 39.8744 26.7711C38.4433 26.64 36.6426 26.2128 36.3744 28.2862C36.0725 30.6214 40.6125 30.3423 42.279 30.4591L46.4367 41.8378C47.1926 43.9096 48.0704 46.1714 48.7563 48.2538C48.4744 49.2571 48.0354 50.4654 47.7021 51.4665L45.7037 57.4629L39.6324 75.6804C39.3037 74.3915 38.5357 72.3146 38.0946 71.0037L35.1817 62.3454L28.2157 41.6186C26.9538 37.9027 25.711 34.1803 24.4874 30.4516C25.9658 30.4066 28.9741 30.3715 30.2532 29.5914C31.1965 29.0162 30.7851 26.6988 29.4637 26.6893C27.6505 26.6763 25.7834 26.8709 23.95 26.9692C21.0352 27.145 18.1143 27.1992 15.1948 27.1316C16.2434 25.4621 17.7781 23.5069 19.1105 22.0557C26.9714 13.4937 36.8986 8.95978 48.4151 8.36095Z" fill="#FF8FC7"/>
<path d="M50.664 53.7031C51.0463 54.0532 59.9961 78.9892 61.0478 81.879L62.6867 86.3836C62.9987 87.2397 63.4315 88.5366 63.8541 89.3078C59.3495 90.7702 56.2319 91.4191 51.4652 91.6373C46.5926 91.8197 42.8621 91.1928 38.2153 89.983L46.6714 65.3926L49.2601 57.8796C49.7024 56.5951 50.3147 54.9774 50.664 53.7031Z" fill="#FF8FC7"/>
<path d="M11.9341 33.1309C12.2011 33.401 30.2138 83.0357 31.818 87.4817C31.032 87.1222 30.2199 86.6666 29.4533 86.2565C20.5036 81.0335 14.1952 73.5578 10.6607 63.7629C7.25195 54.3172 7.57015 42.2412 11.9341 33.1309Z" fill="#FF8FC7"/>
<path d="M86.6012 30.1973C86.9117 30.4493 88.1054 33.1456 88.3412 33.6959C91.4448 40.9747 92.4078 48.9875 91.1167 56.7942C89.332 67.9074 83.138 77.4394 74.0541 83.996C73.0566 84.732 72.0167 85.3721 70.9556 86.0092C72.0431 82.5643 73.4155 78.8316 74.6048 75.3904L81.5825 55.2087C84.8626 45.7018 87.521 40.5146 86.6012 30.1973Z" fill="#FF8FC7"/>
</svg>
