<svg width="101" height="100" viewBox="0 0 101 100" fill="none" xmlns="http://www.w3.org/2000/svg">
<path d="M36.3044 52.5953C38.4917 52.5337 40.6503 53.1055 42.5202 54.2427C49.5543 58.5648 47.099 66.8245 47.5867 73.7759C47.6602 74.8213 47.644 76.401 47.5865 77.4596C47.0782 86.8167 50.2939 97.3562 38.2285 99.9587C30.8727 100.517 26.1168 95.281 26.2632 88.1132C26.4358 79.6525 25.9352 71.0155 26.4119 62.5683C26.7613 56.3776 30.704 53.6312 36.3044 52.5953Z" fill="#FF8FC7"/>
<path d="M10.9298 26.2689L28.3206 26.2489C33.0567 26.2399 39.2998 25.5365 43.2435 28.393C45.4738 30.0179 46.957 32.472 47.3592 35.2029C47.7872 38.0581 47.0539 40.9658 45.3232 43.276C43.2393 46.041 40.8012 46.9708 37.5089 47.4249L18.9266 47.4645C15.7929 47.4689 11.3692 47.7242 8.37494 47.1705C0.597861 45.7323 -2.73818 35.7515 2.61234 29.8542C5.12639 27.0833 7.28009 26.5831 10.9298 26.2689Z" fill="#FF8FC7"/>
<path d="M61.6423 0.111647C68.5377 -0.626098 73.6025 3.87316 73.822 10.8647C74.0349 17.6434 73.6199 24.5839 73.8435 31.3571C74.0835 38.6313 73.7492 44.7526 65.6664 47.1213C59.5224 48.1074 53.8062 44.9927 52.9146 38.7754C52.0888 33.0171 52.7732 25.3253 52.6038 19.4139C52.3653 11.0855 51.4925 2.16166 61.6423 0.111647Z" fill="#FF8FC7"/>
<path d="M62.9602 52.6212C63.7966 52.5436 65.0251 52.5828 65.8894 52.5965C74.364 52.7317 82.93 52.2873 91.3792 52.8253C92.635 52.9051 94.6821 53.8854 95.7371 54.6236C98.0116 56.2173 99.5454 58.6634 99.9896 61.406C100.448 64.192 99.7767 67.046 98.1255 69.3357C96.0803 72.1716 93.5645 73.2191 90.2536 73.7547L71.6924 73.7902C69.1634 73.7929 63.329 74.047 61.0948 73.48C49.1247 70.4419 49.8717 53.8713 62.9602 52.6212Z" fill="#FF8FC7"/>
<path d="M10.3768 52.6259C12.5387 52.3979 18.8244 52.551 21.2937 52.5423C21.3336 62.1445 23.1839 71.6992 11.2078 73.8186C8.65672 73.7874 6.17433 73.0838 4.14462 71.5021C1.90827 69.7447 0.461761 67.1697 0.123879 64.345C-0.628017 57.7942 4.11635 53.287 10.3768 52.6259Z" fill="#FF8FC7"/>
<path d="M35.3176 0.105432C38.5245 -0.325947 41.912 0.561715 44.2441 2.85523C48.6878 7.22536 47.5601 15.3471 47.5395 21.1424L38.5968 21.1146C35.7625 21.1721 33.3894 20.8931 30.9703 19.2667C28.6298 17.6786 27.0247 15.2163 26.5162 12.4329C25.9997 9.6596 26.5943 6.79471 28.1713 4.45622C29.9494 1.85198 32.3151 0.68407 35.3176 0.105432Z" fill="#FF8FC7"/>
<path d="M52.5775 78.8621C57.9375 79.0011 65.4461 77.8584 69.6522 81.0096C71.8711 82.6974 73.3246 85.2015 73.6903 87.966C74.1911 91.6589 72.9691 94.0745 70.8224 96.8792C68.6919 98.6855 66.0764 100.122 63.2254 99.9711C50.9773 99.3229 52.3856 87.4111 52.5775 78.8621Z" fill="#FF8FC7"/>
<path d="M87.716 26.4644C90.3886 26.1271 92.7791 26.4726 95.0952 27.9257C97.4923 29.4425 99.1822 31.8564 99.7876 34.6285C100.381 37.4503 99.835 40.3924 98.2681 42.8128C96.7206 45.1985 94.3496 46.5734 91.6098 47.1675C89.2546 47.587 81.7044 47.4417 78.8489 47.4405C78.7865 38.8784 77.0534 28.823 87.716 26.4644Z" fill="#FF8FC7"/>
</svg>
