<svg width="708" height="928" viewBox="0 0 708 928" fill="none" xmlns="http://www.w3.org/2000/svg">
<path d="M472.717 53.6596C476.15 49.6465 489.562 45.5845 494.011 44.3679C520.847 36.9909 544.732 41.6112 560.229 57.1822C586.796 83.1796 579.462 139.764 547.093 185.99C533.095 205.98 513.468 222.793 496.979 240.624C476.142 263.156 465.495 290.09 467.207 313.907C467.807 321.945 470.596 331.508 475.503 336.224C482.889 324.002 495.594 309.751 507.562 304.786C513.461 302.341 518.522 301.482 522.66 303.962C536.36 312.182 519.552 340.083 502.869 346.273C491.022 350.689 483.129 346.594 475.487 341.32C462.464 365.008 459.158 391.11 464.227 410.209C467.112 420.901 472.122 430.036 479.023 437.169C486.4 444.997 495.513 450.79 506.013 454.326C527.614 461.815 553.347 462.103 573.71 471.792C576.491 473.115 580.619 476.559 583.134 478.501C588.807 482.879 592.007 486.675 595.308 493.478C600.743 504.673 600.776 518.702 595.04 534.733C591.933 543.411 587.275 550.993 581.793 558.897C560.697 589.323 530.437 608.809 503.491 630.716C496.384 636.496 487.847 643.759 481.293 650.443C441.03 691.522 440.386 730.591 439.282 772.719C438.547 784.017 439.575 796.234 435.292 808.403C429.513 824.822 415.058 835.135 401.231 838.538C365.839 847.246 358.3 811.409 327 810.798C325.98 810.652 321.882 810.882 320.552 810.995C307.265 812.131 294.02 817.588 280.297 826.671C276.881 828.931 269.163 835.861 267.047 836.034L266.858 835.589C267.738 832.561 279.508 824.461 282.504 822.486C307.764 805.835 334.098 803.997 351.156 815.569C362.173 823.043 371.292 833.109 385.199 836.442C394.998 838.611 404.283 836.914 415.736 829.43C436.973 815.555 436.058 795.146 436.64 777.315C437.554 749.362 436.831 718.346 452.204 687.32C483.672 623.8 558.073 605.399 589.483 541.531C596.244 527.871 598.669 513.894 595.626 502.828C583.766 459.408 529.141 470.346 496.606 453.884C480.321 445.65 466.628 431.312 461.734 411.32C456.267 388.97 460.402 366.313 473.893 339.16C465.243 328.19 462.557 313.831 465.815 295.486C467.167 288.164 469.507 280.649 472.762 273.179C485.607 243.802 509.785 226.331 531.059 202.551C553.067 177.953 567.189 150.113 572.113 121.708C576.869 94.8639 571.717 72.1859 556.92 58.1671C542.106 44.1284 518.414 40.0683 493.35 47.1634C486.605 49.071 480.842 51.6897 474.104 54.4906C473.31 54.8217 473.002 54.095 472.717 53.6596ZM476.833 338.293C479.621 340.521 481.579 342.183 484.967 343.587C496.892 348.524 513.513 342.999 522.611 323.943C532.486 299.604 510.32 302.276 495.451 315.251C491.709 318.517 485.887 324.127 483.19 328.327C480.479 332.16 479.138 334.867 476.833 338.293Z" fill="#FFD7E8"/>
<path d="M468.906 59.5508C472.34 55.5376 485.751 51.4756 490.2 50.259C517.036 42.8821 540.922 47.5023 556.419 63.0733C582.985 89.0708 575.652 145.655 543.283 191.881C529.285 211.871 509.658 228.684 493.168 246.516C472.332 269.047 461.685 295.981 463.396 319.798C463.997 327.836 466.786 337.399 471.693 342.115C479.079 329.893 491.783 315.642 503.752 310.677C509.65 308.232 514.712 307.373 518.849 309.853C532.549 318.073 515.741 345.974 499.058 352.164C487.211 356.58 479.318 352.485 471.676 347.211C458.653 370.899 455.348 397.001 460.416 416.1C463.301 426.792 468.311 435.927 475.213 443.06C482.59 450.888 491.702 456.681 502.203 460.217C523.803 467.706 549.536 467.994 569.899 477.683C572.68 479.006 576.809 482.45 579.323 484.392C584.996 488.77 588.197 492.566 591.497 499.37C596.932 510.565 596.966 524.593 591.23 540.624C588.123 549.302 583.464 556.884 577.982 564.788C556.886 595.214 526.627 614.7 499.681 636.607C492.573 642.387 484.036 649.65 477.483 656.334C437.219 697.413 436.576 736.482 435.471 778.61C434.736 789.908 435.764 802.125 431.482 814.294C425.702 830.713 411.248 841.026 397.421 844.429C362.028 853.137 354.489 817.3 323.19 816.689C322.17 816.543 318.072 816.773 316.742 816.886C303.454 818.022 290.21 823.479 276.487 832.562C273.07 834.822 265.352 841.752 263.237 841.925L263.048 841.48C263.927 838.452 275.698 830.353 278.694 828.377C303.953 811.726 330.287 809.888 347.346 821.46C358.362 828.934 367.482 839 381.388 842.333C391.187 844.502 400.473 842.805 411.926 835.321C433.163 821.446 432.247 801.037 432.83 783.206C433.743 755.253 433.02 724.237 448.394 693.211C479.862 629.691 554.262 611.29 585.672 547.422C592.433 533.762 594.858 519.785 591.816 508.72C579.956 465.299 525.331 476.237 492.796 459.775C476.511 451.541 462.818 437.203 457.923 417.211C452.456 394.861 456.592 372.204 470.082 345.051C461.432 334.082 458.746 319.722 462.004 301.377C463.357 294.056 465.696 286.54 468.952 279.07C481.797 249.694 505.974 232.222 527.248 208.443C549.256 183.844 563.379 156.004 568.302 127.599C573.058 100.755 567.906 78.077 553.11 64.0582C538.295 50.0195 514.604 45.9594 489.539 53.0544C482.794 54.9621 477.032 57.5807 470.293 60.3817C469.5 60.7127 469.191 59.9861 468.906 59.5508ZM473.022 344.185C475.811 346.412 477.769 348.074 481.157 349.478C493.082 354.415 509.703 348.891 518.801 329.834C528.675 305.495 506.509 308.168 491.64 321.143C487.899 324.408 482.076 330.018 479.38 334.219C476.669 338.051 475.327 340.758 473.022 344.185Z" fill="#FFD7E8"/>
</svg>
