<svg width="103" height="100" viewBox="0 0 103 100" fill="none" xmlns="http://www.w3.org/2000/svg">
<path d="M17.6414 0.0534357C23.0251 -0.0228582 28.5649 0.040754 33.9652 0.0407263L64.9453 0.0411967L78.7131 0.0402464C81.5767 0.0369076 85.1226 -0.156953 87.8774 0.336992C96.1687 1.82367 102.537 9.26099 102.622 17.7112C102.639 19.4413 102.637 21.1503 102.634 22.871L102.631 31.97L102.633 60.4655L102.637 75.6151C102.638 78.2754 102.786 82.6857 102.338 85.16C101.707 88.5632 100.118 91.7158 97.7581 94.2475C94.393 97.8565 89.9325 99.7703 85.0313 99.941C80.0324 100.066 74.4536 99.9529 69.4086 99.9529H39.0717L24.411 99.9557C21.4279 99.9576 17.6151 100.158 14.7727 99.644C6.39041 98.1268 0.281639 90.6265 0.0548346 82.174C0.0115943 80.5636 0.0291119 78.9861 0.0314168 77.3933L0.036487 69.0041L0.0351055 42.6649L0.0311411 26.1308C0.0292972 22.7866 -0.158325 18.0863 0.409607 14.896C1.01857 11.5222 2.56775 8.38912 4.87894 5.8578C8.24015 2.15797 12.7032 0.301179 17.6414 0.0534357Z" fill="#FF8FC7"/>
<path d="M33.0858 25.5111C39.681 25.5125 45.7229 25.2144 51.1057 29.9852C53.9546 32.61 55.3587 36.2722 55.5339 40.0054C56.0567 51.1271 47.5514 56.5608 37.2879 56.3999C35.9392 56.3787 33.9571 56.3013 32.6086 56.3636C32.477 56.5766 32.5235 56.7011 32.5189 56.986C32.5191 58.9284 32.7383 69.2771 32.3267 70.5038C31.6701 70.7637 24.3419 70.6691 23.2448 70.6098C23.1495 68.5325 23.2133 65.9955 23.213 63.8881L23.2113 51.7686L23.211 35.2444C23.2113 32.1048 23.1687 28.8389 23.24 25.709C23.7189 25.6753 24.2105 25.663 24.6911 25.6713C27.4933 25.7196 30.2875 25.5438 33.0858 25.5111Z" fill="#1a1a2e"/>
<path d="M32.5356 33.8548C34.5227 33.8445 36.6461 33.756 38.5797 33.8533C43.0386 34.0778 46.5818 36.7045 46.1164 41.5641C45.9034 43.7882 45.5585 44.6705 43.9246 46.1596C40.9917 48.528 36.1411 48.5007 32.5521 48.3337C32.4674 46.4224 32.5136 44.244 32.5131 42.3174C32.5002 39.4965 32.5078 36.6756 32.5356 33.8548Z" fill="#FF8FC7"/>
<path d="M71.555 36.1091C71.5845 36.1055 71.6131 36.102 71.6417 36.0983C74.9156 36.0316 79.7154 36.0044 82.6122 37.5793C82.8206 37.6929 82.9635 38.3165 82.9294 38.8234C82.8003 40.7711 83.2576 43.889 82.6279 45.6586C82.5716 45.819 81.5667 45.4183 81.3141 45.3122C78.8109 44.2099 76.2137 43.7609 73.5142 43.708C72.0778 43.6799 68.7587 43.8621 68.9763 45.911C69.2796 48.7521 75.135 49.812 77.2758 51.0375C79.0608 52.0593 80.6724 52.665 82.1272 54.1588C85.8612 57.648 85.5348 64.2772 81.9954 67.8C79.2028 70.5794 74.8916 71.5844 71.0314 71.6048C67.8948 71.6351 63.0674 71.1188 60.2951 69.523C59.5851 69.1148 60.0701 62.6697 59.9383 61.5298C59.9207 61.3818 60.0037 61.1784 60.1134 61.0609C60.4297 61.0189 63.367 62.5046 64.1433 62.6978C67.113 63.4378 74.3154 65.4141 75.6163 61.447C74.7875 58.9296 70.6174 57.7909 68.1152 56.8307C61.1156 54.1438 57.2258 47.2997 62.0237 40.6164C64.2051 37.5782 67.7888 36.5689 71.555 36.1091Z" fill="#1a1a2e"/>
</svg>
