<svg width="82" height="76" viewBox="0 0 82 76" fill="none" xmlns="http://www.w3.org/2000/svg">
<path d="M33.8149 12C34.0798 12.1958 34.7752 14.2004 34.9481 14.6467L37.1471 20.2974L45.0425 40.5711C44.3982 42.1638 43.7778 43.7662 43.1812 45.3776C42.1434 42.7246 41.0587 40.1003 40.0773 37.4221C33.2563 36.411 23.6746 36.4975 21.3712 44.1635C21.063 45.1894 20.6026 46.1093 20.3004 47.1857C20.1228 47.8692 20.0016 48.5405 20.0056 49.2487C20.0298 53.5888 24.3639 52.3376 25.0916 53.067L25.0724 53.2231C24.3257 53.6139 14.1908 53.1552 12.8411 53.3566C12.6728 53.3817 12.177 53.3039 12.0139 53.2064L12 53.0144C12.9106 52.6775 14.5361 52.8194 15.4373 52.3733C18.2839 50.9642 19.605 46.9442 20.744 44.1912L23.7379 36.8926L33.8149 12ZM23.1929 39.6715C24.8807 38.3061 26.486 37.6264 28.5822 37.0565C31.8147 36.3259 36.4096 36.2449 39.7248 36.7106C38.9824 34.6145 32.5726 17.8645 32.1602 17.3855L23.1929 39.6715Z" fill="#2D2345"/>
<path d="M50.1323 27.5773C50.5846 27.9 52.2633 32.7203 52.5987 33.5627L60.6909 54.3809C61.4077 56.2189 63.0054 61.1593 64.1438 62.3874C65.5281 63.8792 66.5821 63.024 67.4082 63.4951C67.5371 63.5685 67.4995 63.554 67.5371 63.7068C67.514 63.7221 67.4935 63.7392 67.4696 63.752C66.9832 63.9995 58.2057 63.9363 57.47 63.7759L57.3983 63.6436C58.1255 62.8661 61.5084 64.5329 59.7163 60.3562C58.8031 58.2284 58.2765 56.7142 56.5159 55.0328C52.4177 51.1197 47.3211 50.0334 41.8617 50.0507C39.6334 54.8191 38.3217 63.2647 31.9385 63.9705C30.1669 64.1668 28.7855 63.3722 27.908 61.8548C26.9518 59.3065 27.7867 56.8742 29.486 54.8501C32.4291 51.3442 37.2199 49.89 41.6407 49.4853C41.7704 49.193 43.2016 45.2365 43.2536 45.2087C43.2519 45.6405 42.163 48.8779 42.0042 49.4523C47.4764 49.4116 53.7269 50.645 57.5537 54.8899C57.0075 53.642 56.4655 52.0943 55.9689 50.8011L53.6125 44.7425C52.0303 40.6175 50.2953 36.3496 48.7822 32.2327C48.5568 32.9349 48.1114 33.9233 47.8203 34.6429L46.0554 39.0939L44.3896 43.346C44.1651 43.9271 42.0042 49.4523 42.0042 49.4523L43.1888 45.495C43.0966 45.0632 49.412 29.3295 50.1323 27.5773ZM29.0901 62.4838C32.2171 64.6933 35.204 62.3695 36.9989 59.7298C37.47 59.0377 37.8702 58.27 38.2338 57.515C38.6836 56.4518 41.0757 50.884 41.1704 50.1578L41.0936 50.0953C39.4243 50.2906 38.1834 50.4682 36.5536 50.9851C32.4787 52.2774 27.7578 55.5982 28.1335 60.4066C28.193 61.1371 28.6149 61.9257 29.0901 62.4838Z" fill="#F5529C"/>
<path d="M64.6143 29.9721C64.9873 30.3183 64.8311 32.0053 65.4439 32.7026C66.4023 33.7921 67.8215 33.8662 69.1409 34.006C65.891 34.5669 65.2023 34.4563 64.7688 38.1306C64.7005 38.1222 64.6502 38.1242 64.6382 38.0378C64.5392 37.2752 64.2738 35.8314 63.7976 35.2029C63.0892 34.2679 61.4012 34.1599 60.2661 34.0446C63.1703 33.6299 64.4599 33.3291 64.6143 29.9721Z" fill="#F5529C"/>
</svg>