<svg width="100" height="100" viewBox="0 0 100 100" fill="none" xmlns="http://www.w3.org/2000/svg">
<g clip-path="url(#clip0_95_3543)">
<path d="M62.2779 0H67.8505L67.9175 0.0311345C69.0979 0.568888 70.5795 0.735058 71.8686 1.56932C73.3314 2.51603 74.7199 3.51313 76.1387 4.51775L83.1454 9.47087L89.9052 14.2254C91.1924 15.1346 92.5286 16.0105 93.7468 17.012C94.3396 17.4995 95.2077 18.2603 95.4829 18.9896C95.9828 20.3147 95.7049 33.0067 95.704 35.5042L95.71 59.8008L95.7114 79.5742C95.7116 82.9087 95.7241 86.2451 95.7033 89.5788C95.6375 90.6495 95.542 91.5609 95.1085 92.5457C93.5638 96.055 89.7589 95.9939 86.5253 96.2147C82.4094 96.496 78.2857 96.7165 74.1638 96.9462L45.1525 98.7588L31.8827 99.5635C31.281 99.6016 26.4618 99.8115 26.206 100H21.1119C20.7565 99.8857 20.4021 99.7676 20.0487 99.6465C17.3459 98.7158 15.8366 96.2553 14.159 94.0694L10.1273 88.8116C7.17356 84.9503 4.02712 81.1753 1.41222 77.0868C0.695889 75.9668 0.560194 74.6037 0 73.5262V9.37897C0.105866 9.19286 0.324365 8.50683 0.429358 8.2584C1.04085 6.81154 1.70425 5.7989 3.16225 5.07934C3.79968 4.76503 4.47872 4.54333 5.17882 4.42093C8.01969 3.91156 11.4845 4.09709 14.3646 3.69402C15.3949 3.54982 16.5067 3.5584 17.5512 3.48601L41.8952 1.64067L57.6642 0.46323C58.3304 0.411872 61.8521 0.250696 62.2779 0Z" fill="#FF8FC7"/>
<path d="M86.0926 22.7997C88.2262 22.4843 88.989 24.1832 89.0255 25.9785C89.085 28.909 89.0665 31.8346 89.0661 34.7656L89.0629 51.6387L89.0642 73.3158C89.0651 77.0834 89.0841 80.8447 89.0459 84.619C89.022 86.9695 88.3126 88.5539 85.6988 88.8169C83.994 88.9884 82.2767 89.0619 80.5656 89.1536L73.43 89.5637L51.1722 90.8497L32.3911 91.9375C29.6809 92.087 25.7267 92.4808 23.1723 92.3503C20.8257 92.0862 19.904 90.9118 19.8534 88.6264C19.785 85.5362 19.8142 82.4434 19.8148 79.3519L19.8193 61.3398L19.8144 40.7563C19.8136 37.2218 19.7897 33.6574 19.8422 30.1439C19.8999 26.2974 21.9951 26.5412 25.1212 26.3444C27.1271 26.2181 29.1729 26.1034 31.1782 25.9951L45.5603 25.1568L72.2133 23.5978C76.7714 23.3331 81.5492 22.9626 86.0926 22.7997Z" fill="#F8F3EE"/>
<path d="M79.1578 33.5436L79.3376 33.5312L79.4704 33.6893C80.0272 37.371 77.5472 37.2206 74.777 37.7467C74.7061 39.4508 74.7597 41.5531 74.7597 43.2873L74.7601 53.5927L74.7855 80.5191C70.6273 82.6214 65.9324 84.2832 62.725 80.0156C61.4882 78.3699 60.5215 76.8818 59.4244 75.1497L55.2302 68.5468C51.1156 62.0716 46.6248 55.2784 42.6787 48.7603C42.8296 51.3457 42.6858 54.9448 42.7088 57.5927C42.7672 64.3066 42.6168 71.0855 42.7224 77.7947C44.5957 78.2236 46.926 78.8261 48.7849 79.1486C48.4013 80.7741 47.534 82.1517 45.7327 82.4187C41.9031 82.9866 37.9378 82.8975 34.0764 83.2416C32.9612 83.341 31.6982 83.4083 30.5798 83.3948C30.4715 83.2973 30.4144 83.2809 30.39 83.1263C29.9251 80.1784 33.1842 79.913 35.3545 79.3619L35.3512 41.0308C34.376 41.0407 31.3838 40.7721 30.4667 40.5837C30.4292 38.6645 30.9496 36.6541 33.0762 36.3544C37.9659 35.6652 43.261 35.7101 48.1669 35.2012C49.1429 36.958 51.0475 39.6493 52.1922 41.4114L62.2465 56.8126C63.8257 59.218 66.6164 63.2448 67.9532 65.6659C67.9056 62.9173 67.9673 59.9274 67.9676 57.1628L67.9679 38.6955C66.7221 38.6537 64.2206 38.3396 62.9245 38.1847C62.9122 38.0455 62.9025 37.9062 62.8953 37.7668C62.6906 33.6553 67.5775 34.1437 70.4243 33.9845C73.3336 33.8051 76.245 33.6581 79.1578 33.5436Z" fill="#FF8FC7"/>
<path d="M63.1078 5.70538C63.69 5.66505 64.2733 5.64415 64.8569 5.64272C66.4741 5.62341 67.7118 5.77278 69.2216 6.40948C69.8401 6.67322 70.435 6.98937 70.9997 7.35446C74.1308 9.36149 77.1821 11.94 80.2855 14.0341C80.806 14.3854 82.0215 15.2902 82.0264 15.9338C81.6307 16.2884 75.0083 16.5641 73.8812 16.6311L61.3655 17.3787L27.5635 19.4159C25.0196 19.4792 21.317 20.2026 19.0369 19.1561C16.7336 18.0162 14.7533 16.0453 12.688 14.5067C11.6966 13.7681 8.98567 11.7755 8.58936 10.788C8.60125 10.5025 8.57158 10.4746 8.78067 10.2298C9.09459 9.86223 9.81318 9.67863 10.2706 9.62403C12.2331 9.38978 14.2373 9.28976 16.2093 9.1457L27.0901 8.34801L63.1078 5.70538Z" fill="#F8F3EE"/>
</g>
<defs>
<clipPath id="clip0_95_3543">
<rect width="100" height="100" fill="white"/>
</clipPath>
</defs>
</svg>
