<svg width="210" height="211" viewBox="0 0 210 211" fill="none" xmlns="http://www.w3.org/2000/svg">
<path d="M124.757 0.0580972C128.985 -0.23182 132.721 0.624274 136.777 1.2775C151.352 3.62511 163.719 8.06907 175.621 16.8303C186.385 24.754 191.28 30.7603 197.317 42.5351C199.56 46.8247 201.544 51.2431 203.265 55.7669C204.421 58.8692 205.087 62.0685 205.896 65.2818C206.815 68.9264 207.823 72.7165 208.442 76.4133C209.815 84.5884 209.988 92.7943 209.971 101.063C209.966 104.329 210.126 108.114 209.746 111.339C208.647 120.996 206.021 130.417 201.963 139.249C195.479 153.371 182.24 165.859 168.407 172.793C164.091 174.956 153.891 178.537 149.163 179.357C133.741 182.034 117.264 180.175 102.531 175.043C98.3975 173.625 93.318 173.397 89.2557 171.075C81.9153 167.261 73.9784 161.771 68.2135 155.777C62.3351 148.971 60.49 141.34 59.41 132.883C58.0856 122.512 58.9978 114.081 60.3453 103.869C61.2395 97.0925 62.0733 91.3588 63.9487 84.7388C65.1855 80.3883 66.7872 76.15 68.7365 72.0691C75.3311 57.7412 87.408 46.6677 102.25 41.3399C116.462 36.1945 131.114 37.2845 144.928 43.5987C167.191 53.4616 183.75 84.5767 172.549 107.283C163.654 125.314 141.84 129.928 128.483 115.215C125.993 113.549 124.802 112.616 123.883 109.661C120.649 99.0778 117.452 90.452 122.663 79.7641C129.824 64.7747 152.869 65.2852 152.653 84.3458C152.634 86.0796 149.534 92.27 147.626 92.8801C145.559 92.6563 145.972 90.826 145.951 89.5754C145.938 88.8016 145.307 87.1838 145.161 86.2182C144.29 80.4871 142.996 77.2778 138.451 73.491C138.384 73.5344 138.318 73.5783 138.252 73.6226C133.411 76.8854 128.078 87.2053 126.844 92.8189C126.589 95.6933 125.592 102.505 126.777 104.967C128.751 108.609 131.163 113.744 135.62 114.374C154.449 117.038 167.327 104.857 165.876 85.9536C165.251 77.8073 166.687 74.1969 162.945 65.738C159.137 57.1305 153.566 53.4598 145.851 48.4915C144.171 47.4613 135.847 44.8461 133.789 44.5263C121.237 42.576 108.262 46.8117 98.2065 54.2966C78.1404 68.7069 68.213 93.1748 63.534 116.653C61.7921 125.394 63.0039 136.594 68.3026 143.962C68.594 144.728 69.4027 145.638 69.8892 146.314C74.2264 152.344 81.654 158.793 87.9423 162.79C92.6105 165.757 97.5721 168.934 102.768 170.898C106.844 172.439 110.939 173.098 115.245 173.554C118.615 173.911 121.936 174.203 125.331 174.158C136.424 174.009 148.398 171.138 159.224 168.716C166.614 167.062 171.47 163.541 176.885 158.502C178.549 156.953 180.304 155.435 181.847 153.766C184.744 150.633 187.224 147.075 189.701 143.611C191.388 141.253 193.125 138.923 194.678 136.472C196.924 132.922 198.561 129.199 200.077 125.296C204.983 112.671 207.014 100.067 205.294 86.5685C205.048 84.6411 204.853 82.6731 204.421 80.7771C203.477 76.6291 201.989 72.7305 200.508 68.7571C196.742 58.6603 191.577 48.4779 184.791 40.0713C183.022 37.88 181.014 35.8886 179.104 33.8213C176.503 31.0042 173.938 28.1417 170.976 25.6915C169.156 24.1855 167.095 22.963 165.184 21.5752C163.291 20.2006 161.451 18.6791 159.465 17.4421C156.257 15.4437 152.689 13.8113 149.21 12.3378C137.001 7.16662 128.768 6.56607 115.799 7.69367C112.252 8.00211 108.638 8.28231 105.133 8.92811C99.9204 9.88838 94.7463 11.3494 89.5825 12.566C80.3499 14.7412 70.7249 18.1844 62.7854 23.4361C59.9733 25.2963 57.3521 27.5437 54.6752 29.5971C52.083 31.5856 49.4295 33.5109 46.9911 35.688C45.2257 37.264 43.6129 39.0508 41.977 40.7613C34.9023 48.1586 29.0839 56.0103 23.7251 64.7259C22.4625 66.7795 21.4429 68.9778 20.301 71.0991C19.0394 73.4421 17.6382 75.7249 16.4512 78.1055C14.3247 82.37 11.8762 88.66 10.6223 93.249C9.76379 96.3909 9.45186 99.6575 9.09481 102.886C7.81639 114.445 7.49351 128.458 10.2454 139.82C11.6017 145.42 14.754 153.45 17.6756 158.362C19.5689 161.545 21.8653 164.543 24.1179 167.476C25.403 169.15 26.6635 170.907 28.0714 172.477C29.5051 174.074 31.1684 175.491 32.6858 177.012C34.0226 178.352 35.2764 179.787 36.677 181.061C38.2333 182.476 39.9505 183.713 41.5529 185.076C45.1023 188.096 48.5976 191.456 52.6911 193.742C61.8004 198.831 71.8664 201.621 82.1292 203.169C95.7601 205.223 109.177 204.948 122.775 202.784C124.652 202.486 131.504 200.524 132.775 201.437C133.145 201.703 133.538 202.297 133.569 202.758C133.598 203.203 133.392 203.603 133.108 203.93C129.701 207.852 104.106 210.505 98.1189 210.884C90.4332 211.37 83.3063 210.239 75.7589 209.115C71.8807 208.536 67.9673 208.094 64.1853 207.018C55.0753 204.427 40.4499 197.465 33.3669 191.199C27.8913 186.352 21.9754 180.925 17.2216 175.388C15.3506 173.208 13.6647 170.874 11.9658 168.56C10.505 166.571 8.99644 164.62 7.79824 162.455C3.05237 153.88 0.626523 143.357 0.056993 133.627C-0.0876056 131.157 0.0823984 128.671 0.134106 126.199C0.279271 119.26 0.541436 112.774 2.34542 106.017C3.47288 101.794 5.08974 97.7191 6.37349 93.5459C7.4246 90.129 8.00727 86.5817 9.12782 83.1717C10.579 78.7556 12.3501 73.9506 14.4458 69.8027C15.6003 67.5175 17.047 65.3241 18.4143 63.1611C22.2447 57.1025 26.3767 51.2511 31.1589 45.9015C34.0632 42.6524 37.3038 39.6089 40.432 36.574C43.9642 33.147 47.4148 29.6023 51.2406 26.4986C54.7037 23.6891 58.4726 21.3773 62.2715 19.0603C66.5772 16.4342 70.8809 13.7873 75.4358 11.6079C79.9714 9.43778 84.6439 7.79296 89.3896 6.16306C91.6095 5.40064 93.7418 4.36988 95.9751 3.65499C99.8166 2.42525 104.128 1.69324 108.121 1.06755C111.079 0.604094 114.053 0.605616 117.036 0.491063C119.61 0.392236 122.185 0.202075 124.757 0.0580972ZM45.3215 193.852L45.2159 193.718C42.7858 190.691 36.2392 186.429 33.4604 183.401C30.9818 180.666 28.1677 178.13 25.6545 175.458C24.1227 173.829 22.6749 171.605 21.2521 169.88C16.1349 163.675 12.6773 157.402 9.71516 149.949C7.6308 144.705 6.10265 139.657 5.30997 134.01C4.89362 131.868 4.65512 122.076 3.8133 121.242C3.47462 124.003 3.74088 127.193 3.72955 130.048C3.65653 148.453 11.0753 164.765 24.2258 177.413C28.1948 181.231 40.172 193.046 45.3215 193.852ZM148.283 80.0145C148.173 79.03 148.078 77.7405 146.947 77.3645C146.515 78.3014 147.349 79.5102 147.815 80.3446C148.073 81.5282 148.251 82.9678 148.941 83.979C148.999 83.3611 148.479 80.5903 148.283 80.0145ZM189.42 151.037C190.573 149.876 195.18 144.377 195.241 142.844C194.349 144.023 189.457 150.389 189.42 151.037ZM151.822 8.97062C152.743 9.58753 156.285 11.2583 157.353 11.5334C159.927 12.6972 170.991 20.5434 173.415 22.7298C177.697 26.5916 184.523 33.5649 188.046 38.0517C189.701 40.1706 191.265 42.3574 192.738 44.6067C193.467 45.7226 197.283 52.3074 197.704 52.5402C197.931 50.3037 188.86 34.9822 187.056 32.6566C180.807 24.5994 171.796 18.0564 162.707 13.5312C161.132 12.7469 159.168 11.7439 157.503 11.2371C155.488 10.1703 154.016 9.6074 151.822 8.97062ZM129.028 77.528C127.018 79.5371 126.077 81.1847 124.995 83.8249C124.554 84.901 123.744 86.6109 124.411 87.6974C125.026 86.5493 129.297 77.9717 129.028 77.528ZM169.675 77.5141C169.251 82.355 169.805 87.6418 169.451 92.551C168.387 107.296 156.932 117.843 142.381 118.737C142.014 118.759 141.584 118.951 141.336 119.23C141.89 119.752 143.389 119.956 144.192 120.112C148.595 120.213 150.913 120.289 156.357 118.089C171.773 111.86 175.815 91.8877 169.816 77.6592C169.769 77.6108 169.722 77.5625 169.675 77.5141ZM105.655 44.4614C95.8356 46.9884 88.0544 52.3465 81.3481 59.7727C78.984 62.3903 76.9319 64.6044 75.1079 67.7C71.4617 74.0164 68.7536 80.83 67.0684 87.9264C66.9142 88.5568 66.3075 90.5543 66.5274 91.0479L66.8992 90.6256C68.0815 87.4639 69.7892 84.4668 71.3427 81.4725C77.9929 68.6559 84.9035 59.1475 96.7994 50.6459C98.1917 49.6509 106.272 44.8093 106.497 44.4947C106.105 44.3352 106.083 44.3544 105.655 44.4614Z" fill="#FFD7E8"/>
</svg>
