<svg width="390" height="850" viewBox="0 0 390 850" fill="none" xmlns="http://www.w3.org/2000/svg">
<g clip-path="url(#clip0_953_5478)">
<rect width="390" height="850" rx="24" fill="#F9F3EA"/>
<path d="M26.375 26.2891H26.5234C27.1484 26.2891 27.6849 26.2135 28.1328 26.0625C28.5859 25.9062 28.9583 25.6823 29.25 25.3906C29.5417 25.099 29.7578 24.7422 29.8984 24.3203C30.0391 23.8932 30.1094 23.4089 30.1094 22.8672V20.7109C30.1094 20.2995 30.0677 19.9375 29.9844 19.625C29.9062 19.3125 29.7917 19.0547 29.6406 18.8516C29.4948 18.6432 29.3229 18.487 29.125 18.3828C28.9323 18.2786 28.7188 18.2266 28.4844 18.2266C28.2344 18.2266 28.013 18.2891 27.8203 18.4141C27.6276 18.5339 27.4635 18.6979 27.3281 18.9062C27.1979 19.1146 27.0964 19.3542 27.0234 19.625C26.9557 19.8906 26.9219 20.1693 26.9219 20.4609C26.9219 20.7526 26.9557 21.0312 27.0234 21.2969C27.0911 21.5573 27.1927 21.7891 27.3281 21.9922C27.4635 22.1901 27.6328 22.349 27.8359 22.4688C28.0391 22.5833 28.2786 22.6406 28.5547 22.6406C28.8203 22.6406 29.0573 22.5911 29.2656 22.4922C29.4792 22.388 29.6589 22.2526 29.8047 22.0859C29.9557 21.9193 30.0703 21.7344 30.1484 21.5312C30.2318 21.3281 30.2734 21.1224 30.2734 20.9141L31.0156 21.3203C31.0156 21.6849 30.9375 22.0443 30.7812 22.3984C30.625 22.7526 30.4062 23.0755 30.125 23.3672C29.849 23.6536 29.5286 23.8828 29.1641 24.0547C28.7995 24.2266 28.4089 24.3125 27.9922 24.3125C27.4609 24.3125 26.9896 24.2161 26.5781 24.0234C26.1667 23.8255 25.8177 23.5547 25.5312 23.2109C25.25 22.862 25.0365 22.4557 24.8906 21.9922C24.7448 21.5286 24.6719 21.026 24.6719 20.4844C24.6719 19.9323 24.7604 19.4141 24.9375 18.9297C25.1198 18.4453 25.3776 18.0182 25.7109 17.6484C26.0495 17.2786 26.4531 16.9896 26.9219 16.7812C27.3958 16.5677 27.9219 16.4609 28.5 16.4609C29.0781 16.4609 29.6042 16.5729 30.0781 16.7969C30.5521 17.0208 30.9583 17.3385 31.2969 17.75C31.6354 18.1562 31.8958 18.6432 32.0781 19.2109C32.2656 19.7786 32.3594 20.4089 32.3594 21.1016V21.8828C32.3594 22.6224 32.2786 23.3099 32.1172 23.9453C31.9609 24.5807 31.724 25.1562 31.4062 25.6719C31.0938 26.1823 30.7031 26.6198 30.2344 26.9844C29.7708 27.349 29.2318 27.6276 28.6172 27.8203C28.0026 28.013 27.3151 28.1094 26.5547 28.1094H26.375V26.2891ZM34.2984 26.9141C34.2984 26.5807 34.413 26.3021 34.6422 26.0781C34.8766 25.8542 35.1865 25.7422 35.5719 25.7422C35.9573 25.7422 36.2646 25.8542 36.4937 26.0781C36.7281 26.3021 36.8453 26.5807 36.8453 26.9141C36.8453 27.2474 36.7281 27.526 36.4937 27.75C36.2646 27.974 35.9573 28.0859 35.5719 28.0859C35.1865 28.0859 34.8766 27.974 34.6422 27.75C34.413 27.526 34.2984 27.2474 34.2984 26.9141ZM34.2984 20.4688C34.2984 20.1354 34.413 19.8568 34.6422 19.6328C34.8766 19.4089 35.1865 19.2969 35.5719 19.2969C35.9573 19.2969 36.2646 19.4089 36.4937 19.6328C36.7281 19.8568 36.8453 20.1354 36.8453 20.4688C36.8453 20.8021 36.7281 21.0807 36.4937 21.3047C36.2646 21.5286 35.9573 21.6406 35.5719 21.6406C35.1865 21.6406 34.8766 21.5286 34.6422 21.3047C34.413 21.0807 34.2984 20.8021 34.2984 20.4688ZM46.7531 23.75V25.5156H38.5578L38.4484 24.1484L43.1906 16.625H44.9797L43.0422 19.8672L40.6828 23.75H46.7531ZM45.4641 16.625V28H43.2141V16.625H45.4641ZM53.6063 16.6016V28H51.3563V19.1953L48.6531 20.0547V18.2812L53.3641 16.6016H53.6063Z" fill="#13151D"/>
<path d="M300.749 24C301.301 24 301.749 24.4477 301.749 25V27C301.749 27.5523 301.301 28 300.749 28H299.749C299.197 28 298.749 27.5523 298.749 27V25C298.749 24.4477 299.197 24 299.749 24H300.749ZM305.749 22C306.301 22 306.749 22.4477 306.749 23V27C306.749 27.5523 306.301 28 305.749 28H304.749C304.197 28 303.749 27.5523 303.749 27V23C303.749 22.4477 304.197 22 304.749 22H305.749ZM310.749 20C311.301 20 311.749 20.4298 311.749 20.96V27.04C311.749 27.5702 311.301 28 310.749 28H309.749C309.197 28 308.749 27.5702 308.749 27.04V20.96C308.749 20.4298 309.197 20 309.749 20H310.749ZM315.749 18C316.301 18 316.749 18.4197 316.749 18.9375V27.0625C316.749 27.5803 316.301 28 315.749 28H314.749C314.197 28 313.749 27.5803 313.749 27.0625V18.9375C313.749 18.4197 314.197 18 314.749 18H315.749Z" fill="#13151D"/>
<path d="M327.176 25.9181C328.451 24.8393 330.319 24.8393 331.595 25.9181C331.659 25.9762 331.696 26.0582 331.698 26.1447C331.7 26.231 331.666 26.3147 331.604 26.3752L329.607 28.3908C329.549 28.4499 329.469 28.4825 329.386 28.4826C329.303 28.4826 329.223 28.4498 329.164 28.3908L327.166 26.3752C327.104 26.3145 327.07 26.2302 327.072 26.1437C327.074 26.0575 327.112 25.976 327.176 25.9181ZM324.511 23.2287C327.259 20.6727 331.515 20.6726 334.263 23.2287C334.325 23.2886 334.36 23.3711 334.361 23.4572C334.362 23.5434 334.328 23.6265 334.268 23.6877L333.112 24.8547C332.993 24.9735 332.802 24.9762 332.68 24.8605C331.777 24.0434 330.603 23.591 329.386 23.591C328.169 23.5915 326.996 24.0439 326.094 24.8605C325.972 24.9764 325.779 24.9738 325.66 24.8547L324.506 23.6877C324.445 23.6266 324.411 23.5434 324.412 23.4572C324.413 23.371 324.449 23.2885 324.511 23.2287ZM321.846 20.547C326.061 16.5079 332.711 16.5076 336.926 20.547C336.987 20.607 337.021 20.6891 337.021 20.7746C337.022 20.8601 336.988 20.9424 336.928 21.0031L335.771 22.1701C335.652 22.2896 335.46 22.2908 335.339 22.173C333.733 20.6463 331.602 19.7952 329.386 19.7951C327.17 19.7951 325.038 20.6461 323.432 22.173C323.311 22.291 323.118 22.2898 322.999 22.1701L321.843 21.0031C321.783 20.9423 321.748 20.8602 321.749 20.7746C321.75 20.6891 321.785 20.607 321.846 20.547Z" fill="#13151D"/>
<path opacity="0.35" d="M344.688 17H364.354C365.551 17 366.521 17.9704 366.521 19.167V26.833C366.521 28.0296 365.551 29 364.354 29H344.688C343.492 29 342.521 28.0296 342.521 26.833V19.167L342.532 18.9453C342.643 17.8527 343.567 17 344.688 17Z" stroke="#13151D"/>
<path opacity="0.4" d="M367.672 21.5V25.5C368.477 25.1612 369 24.3731 369 23.5C369 22.6269 368.477 21.8388 367.672 21.5Z" fill="#13151D"/>
<path d="M344.321 20.1663C344.321 19.43 344.918 18.833 345.655 18.833H363.188C363.924 18.833 364.521 19.43 364.521 20.1663V25.8297C364.521 26.5661 363.924 27.163 363.188 27.163H345.655C344.918 27.163 344.321 26.5661 344.321 25.8297V20.1663Z" fill="#13151D"/>
<path d="M35 77L29 84L35 91" stroke="#13151B" stroke-linecap="round" stroke-linejoin="round"/>
<path d="M60.1 92H57.62V77.38H60.1L64.82 89.02L69.54 77.38H72.06V92H69.58V87.5C69.58 84.56 69.58 83.7 69.72 82.66L66 92H63.64L59.94 82.68C60.08 83.56 60.1 84.94 60.1 86.76V92ZM74.3558 87.04C74.3558 83.96 76.5758 81.84 79.6358 81.84C82.6958 81.84 84.9158 83.96 84.9158 87.04C84.9158 90.12 82.6958 92.24 79.6358 92.24C76.5758 92.24 74.3558 90.12 74.3558 87.04ZM76.7958 87.04C76.7958 88.84 77.9558 90.06 79.6358 90.06C81.3158 90.06 82.4758 88.84 82.4758 87.04C82.4758 85.24 81.3158 84.02 79.6358 84.02C77.9558 84.02 76.7958 85.24 76.7958 87.04ZM90.9098 92.26C88.0498 92.26 86.2698 90.16 86.2698 87.1C86.2698 84.02 88.0698 81.82 91.0498 81.82C92.4298 81.82 93.6498 82.4 94.2698 83.38V77.12H96.6898V92H94.4498L94.2898 90.46C93.6898 91.6 92.4098 92.26 90.9098 92.26ZM91.4498 90.02C93.1498 90.02 94.2498 88.8 94.2498 87.02C94.2498 85.24 93.1498 84 91.4498 84C89.7498 84 88.7098 85.26 88.7098 87.02C88.7098 88.78 89.7498 90.02 91.4498 90.02ZM100.453 80.14C99.6127 80.14 98.9527 79.48 98.9527 78.66C98.9527 77.84 99.6127 77.2 100.453 77.2C101.253 77.2 101.913 77.84 101.913 78.66C101.913 79.48 101.253 80.14 100.453 80.14ZM99.2327 92V82.12H101.673V92H99.2327ZM111.094 92V84.16H107.054V92H104.634V84.16H103.214V82.12H104.634V80.92C104.634 78.24 106.034 77.12 108.034 77.12C108.414 77.12 108.874 77.14 109.294 77.22V79.3H108.434C107.334 79.3 107.054 79.94 107.054 80.92V82.12H113.534V92H111.094ZM112.314 80.1C111.494 80.1 110.854 79.46 110.854 78.64C110.854 77.84 111.494 77.2 112.314 77.2C113.114 77.2 113.754 77.84 113.754 78.64C113.754 79.46 113.114 80.1 112.314 80.1ZM120.469 92.26C117.529 92.26 115.469 90.12 115.469 87.06C115.469 83.96 117.489 81.82 120.389 81.82C123.349 81.82 125.229 83.8 125.229 86.88V87.62L117.789 87.64C117.969 89.38 118.889 90.26 120.509 90.26C121.849 90.26 122.729 89.74 123.009 88.8H125.269C124.849 90.96 123.049 92.26 120.469 92.26ZM120.409 83.82C118.969 83.82 118.089 84.6 117.849 86.08H122.809C122.809 84.72 121.869 83.82 120.409 83.82ZM133.382 82.08V84.34H132.482C130.722 84.34 129.622 85.28 129.622 87.2V92H127.182V82.14H129.482L129.622 83.58C130.042 82.6 130.982 81.94 132.302 81.94C132.642 81.94 132.982 81.98 133.382 82.08ZM142.864 92H140.424V82.12H142.664L142.864 83.28C143.364 82.46 144.364 81.82 145.784 81.82C147.284 81.82 148.324 82.56 148.844 83.7C149.344 82.56 150.504 81.82 152.004 81.82C154.404 81.82 155.724 83.26 155.724 85.54V92H153.304V86.18C153.304 84.76 152.544 84.02 151.384 84.02C150.204 84.02 149.304 84.78 149.304 86.4V92H146.864V86.16C146.864 84.78 146.124 84.04 144.964 84.04C143.804 84.04 142.864 84.8 142.864 86.4V92ZM157.539 87.04C157.539 83.96 159.759 81.84 162.819 81.84C165.879 81.84 168.099 83.96 168.099 87.04C168.099 90.12 165.879 92.24 162.819 92.24C159.759 92.24 157.539 90.12 157.539 87.04ZM159.979 87.04C159.979 88.84 161.139 90.06 162.819 90.06C164.499 90.06 165.659 88.84 165.659 87.04C165.659 85.24 164.499 84.02 162.819 84.02C161.139 84.02 159.979 85.24 159.979 87.04ZM172.473 92H170.033V82.12H172.293L172.493 83.4C173.113 82.4 174.313 81.82 175.653 81.82C178.133 81.82 179.413 83.36 179.413 85.92V92H176.973V86.5C176.973 84.84 176.153 84.04 174.893 84.04C173.393 84.04 172.473 85.08 172.473 86.68V92ZM191.261 92.26C188.401 92.26 186.621 90.16 186.621 87.1C186.621 84.02 188.421 81.82 191.401 81.82C192.781 81.82 194.001 82.4 194.621 83.38V77.12H197.041V92H194.801L194.641 90.46C194.041 91.6 192.761 92.26 191.261 92.26ZM191.801 90.02C193.501 90.02 194.601 88.8 194.601 87.02C194.601 85.24 193.501 84 191.801 84C190.101 84 189.061 85.26 189.061 87.02C189.061 88.78 190.101 90.02 191.801 90.02ZM199.004 87.04C199.004 83.96 201.224 81.84 204.284 81.84C207.344 81.84 209.564 83.96 209.564 87.04C209.564 90.12 207.344 92.24 204.284 92.24C201.224 92.24 199.004 90.12 199.004 87.04ZM201.444 87.04C201.444 88.84 202.604 90.06 204.284 90.06C205.964 90.06 207.124 88.84 207.124 87.04C207.124 85.24 205.964 84.02 204.284 84.02C202.604 84.02 201.444 85.24 201.444 87.04ZM210.738 89H213.058C213.078 89.86 213.718 90.4 214.838 90.4C215.978 90.4 216.598 89.94 216.598 89.22C216.598 88.72 216.338 88.36 215.458 88.16L213.678 87.74C211.898 87.34 211.038 86.5 211.038 84.92C211.038 82.98 212.678 81.82 214.958 81.82C217.178 81.82 218.678 83.1 218.698 85.02H216.378C216.358 84.18 215.798 83.64 214.858 83.64C213.898 83.64 213.338 84.08 213.338 84.82C213.338 85.38 213.778 85.74 214.618 85.94L216.398 86.36C218.058 86.74 218.898 87.5 218.898 89.02C218.898 91.02 217.198 92.26 214.758 92.26C212.298 92.26 210.738 90.94 210.738 89ZM219.996 89H222.316C222.336 89.86 222.976 90.4 224.096 90.4C225.236 90.4 225.856 89.94 225.856 89.22C225.856 88.72 225.596 88.36 224.716 88.16L222.936 87.74C221.156 87.34 220.296 86.5 220.296 84.92C220.296 82.98 221.936 81.82 224.216 81.82C226.436 81.82 227.936 83.1 227.956 85.02H225.636C225.616 84.18 225.056 83.64 224.116 83.64C223.156 83.64 222.596 84.08 222.596 84.82C222.596 85.38 223.036 85.74 223.876 85.94L225.656 86.36C227.316 86.74 228.156 87.5 228.156 89.02C228.156 91.02 226.456 92.26 224.016 92.26C221.556 92.26 219.996 90.94 219.996 89ZM231.234 80.14C230.394 80.14 229.734 79.48 229.734 78.66C229.734 77.84 230.394 77.2 231.234 77.2C232.034 77.2 232.694 77.84 232.694 78.66C232.694 79.48 232.034 80.14 231.234 80.14ZM230.014 92V82.12H232.454V92H230.014ZM239.395 92.26C236.455 92.26 234.395 90.12 234.395 87.06C234.395 83.96 236.415 81.82 239.315 81.82C242.275 81.82 244.155 83.8 244.155 86.88V87.62L236.715 87.64C236.895 89.38 237.815 90.26 239.435 90.26C240.775 90.26 241.655 89.74 241.935 88.8H244.195C243.775 90.96 241.975 92.26 239.395 92.26ZM239.335 83.82C237.895 83.82 237.015 84.6 236.775 86.08H241.735C241.735 84.72 240.795 83.82 239.335 83.82ZM252.308 82.08V84.34H251.408C249.648 84.34 248.548 85.28 248.548 87.2V92H246.108V82.14H248.408L248.548 83.58C248.968 82.6 249.908 81.94 251.228 81.94C251.568 81.94 251.908 81.98 252.308 82.08ZM258.59 89H260.91C260.93 89.86 261.57 90.4 262.69 90.4C263.83 90.4 264.45 89.94 264.45 89.22C264.45 88.72 264.19 88.36 263.31 88.16L261.53 87.74C259.75 87.34 258.89 86.5 258.89 84.92C258.89 82.98 260.53 81.82 262.81 81.82C265.03 81.82 266.53 83.1 266.55 85.02H264.23C264.21 84.18 263.65 83.64 262.71 83.64C261.75 83.64 261.19 84.08 261.19 84.82C261.19 85.38 261.63 85.74 262.47 85.94L264.25 86.36C265.91 86.74 266.75 87.5 266.75 89.02C266.75 91.02 265.05 92.26 262.61 92.26C260.15 92.26 258.59 90.94 258.59 89ZM271.548 92.26C269.448 92.26 268.168 91.04 268.168 89.18C268.168 87.36 269.488 86.22 271.828 86.04L274.788 85.82V85.6C274.788 84.26 273.988 83.72 272.748 83.72C271.308 83.72 270.508 84.32 270.508 85.36H268.428C268.428 83.22 270.188 81.82 272.868 81.82C275.528 81.82 277.168 83.26 277.168 86V92H275.028L274.848 90.54C274.428 91.56 273.088 92.26 271.548 92.26ZM272.348 90.42C273.848 90.42 274.808 89.52 274.808 88V87.48L272.748 87.64C271.228 87.78 270.648 88.28 270.648 89.08C270.648 89.98 271.248 90.42 272.348 90.42ZM282.005 92H279.565V82.12H281.825L282.025 83.4C282.645 82.4 283.845 81.82 285.185 81.82C287.665 81.82 288.945 83.36 288.945 85.92V92H286.505V86.5C286.505 84.84 285.685 84.04 284.425 84.04C282.925 84.04 282.005 85.08 282.005 86.68V92ZM294.702 92H292.262V84.16H290.362V82.12H292.262V79.04H294.702V82.12H296.622V84.16H294.702V92ZM305.301 77.98L303.341 80.94H301.541L303.041 77.98H305.301ZM302.461 92.26C299.521 92.26 297.461 90.12 297.461 87.06C297.461 83.96 299.481 81.82 302.381 81.82C305.341 81.82 307.221 83.8 307.221 86.88V87.62L299.781 87.64C299.961 89.38 300.881 90.26 302.501 90.26C303.841 90.26 304.721 89.74 305.001 88.8H307.261C306.841 90.96 305.041 92.26 302.461 92.26ZM302.401 83.82C300.961 83.82 300.081 84.6 299.841 86.08H304.801C304.801 84.72 303.861 83.82 302.401 83.82Z" fill="#13151B"/>
<path d="M30.48 138.88L29.2 137.44C28.368 137.92 27.376 138.192 26.272 138.192C22.928 138.192 20.624 135.712 20.624 132.144C20.624 128.592 22.944 126.096 26.288 126.096C29.632 126.096 31.968 128.576 31.968 132.144C31.968 133.824 31.456 135.264 30.544 136.32L31.792 137.712L30.48 138.88ZM29.808 132.144C29.808 129.648 28.432 128.064 26.288 128.064C24.144 128.064 22.768 129.648 22.768 132.144C22.768 134.64 24.144 136.224 26.288 136.224C26.864 136.224 27.376 136.112 27.84 135.888L26.288 134.144L27.584 132.976L29.136 134.72C29.568 134.048 29.808 133.168 29.808 132.144ZM38.9461 130.096H40.8981V138H39.0901L38.9461 136.944C38.4661 137.696 37.4421 138.208 36.3861 138.208C34.5621 138.208 33.4901 136.976 33.4901 135.04V130.096H35.4421V134.352C35.4421 135.856 36.0341 136.464 37.1221 136.464C38.3541 136.464 38.9461 135.744 38.9461 134.24V130.096ZM45.2663 138.208C43.5863 138.208 42.5623 137.232 42.5623 135.744C42.5623 134.288 43.6183 133.376 45.4903 133.232L47.8583 133.056V132.88C47.8583 131.808 47.2183 131.376 46.2263 131.376C45.0743 131.376 44.4343 131.856 44.4343 132.688H42.7703C42.7703 130.976 44.1783 129.856 46.3223 129.856C48.4503 129.856 49.7623 131.008 49.7623 133.2V138H48.0503L47.9063 136.832C47.5703 137.648 46.4983 138.208 45.2663 138.208ZM45.9062 136.736C47.1063 136.736 47.8743 136.016 47.8743 134.8V134.384L46.2263 134.512C45.0103 134.624 44.5463 135.024 44.5463 135.664C44.5463 136.384 45.0263 136.736 45.9062 136.736ZM53.6479 138H51.7119V126.096H53.6479V138ZM56.6715 128.512C55.9995 128.512 55.4715 127.984 55.4715 127.328C55.4715 126.672 55.9995 126.16 56.6715 126.16C57.3115 126.16 57.8395 126.672 57.8395 127.328C57.8395 127.984 57.3115 128.512 56.6715 128.512ZM55.6955 138V130.096H57.6475V138H55.6955ZM62.3523 138H60.4003V131.728H58.8803V130.096H60.4003V127.632H62.3523V130.096H63.8883V131.728H62.3523V138ZM70.8316 126.784L69.2636 129.152H67.8236L69.0236 126.784H70.8316ZM68.5596 138.208C66.2076 138.208 64.5596 136.496 64.5596 134.048C64.5596 131.568 66.1756 129.856 68.4956 129.856C70.8636 129.856 72.3676 131.44 72.3676 133.904V134.496L66.4156 134.512C66.5596 135.904 67.2956 136.608 68.5916 136.608C69.6636 136.608 70.3676 136.192 70.5916 135.44H72.3996C72.0636 137.168 70.6236 138.208 68.5596 138.208ZM68.5116 131.456C67.3596 131.456 66.6556 132.08 66.4636 133.264H70.4316C70.4316 132.176 69.6796 131.456 68.5116 131.456ZM81.4904 138.208C79.2024 138.208 77.7784 136.528 77.7784 134.08C77.7784 131.616 79.2184 129.856 81.6024 129.856C82.7064 129.856 83.6824 130.32 84.1784 131.104V126.096H86.1144V138H84.3224L84.1944 136.768C83.7144 137.68 82.6904 138.208 81.4904 138.208ZM81.9224 136.416C83.2824 136.416 84.1624 135.44 84.1624 134.016C84.1624 132.592 83.2824 131.6 81.9224 131.6C80.5624 131.6 79.7304 132.608 79.7304 134.016C79.7304 135.424 80.5624 136.416 81.9224 136.416ZM93.5086 130.096H95.4606V138H93.6526L93.5086 136.944C93.0286 137.696 92.0046 138.208 90.9486 138.208C89.1246 138.208 88.0526 136.976 88.0526 135.04V130.096H90.0046V134.352C90.0046 135.856 90.5966 136.464 91.6846 136.464C92.9166 136.464 93.5086 135.744 93.5086 134.24V130.096ZM101.181 135.6H103.037C103.053 136.288 103.565 136.72 104.461 136.72C105.373 136.72 105.869 136.352 105.869 135.776C105.869 135.376 105.661 135.088 104.957 134.928L103.533 134.592C102.109 134.272 101.421 133.6 101.421 132.336C101.421 130.784 102.733 129.856 104.557 129.856C106.333 129.856 107.533 130.88 107.549 132.416H105.693C105.677 131.744 105.229 131.312 104.477 131.312C103.709 131.312 103.261 131.664 103.261 132.256C103.261 132.704 103.613 132.992 104.285 133.152L105.709 133.488C107.037 133.792 107.709 134.4 107.709 135.616C107.709 137.216 106.349 138.208 104.397 138.208C102.429 138.208 101.181 137.152 101.181 135.6ZM108.732 134.032C108.732 131.568 110.508 129.872 112.956 129.872C115.404 129.872 117.18 131.568 117.18 134.032C117.18 136.496 115.404 138.192 112.956 138.192C110.508 138.192 108.732 136.496 108.732 134.032ZM110.684 134.032C110.684 135.472 111.612 136.448 112.956 136.448C114.3 136.448 115.228 135.472 115.228 134.032C115.228 132.592 114.3 131.616 112.956 131.616C111.612 131.616 110.684 132.592 110.684 134.032ZM120.679 138H118.727V130.096H120.519L120.679 131.024C121.079 130.368 121.879 129.856 123.015 129.856C124.215 129.856 125.047 130.448 125.463 131.36C125.863 130.448 126.791 129.856 127.991 129.856C129.911 129.856 130.967 131.008 130.967 132.832V138H129.031V133.344C129.031 132.208 128.423 131.616 127.495 131.616C126.551 131.616 125.831 132.224 125.831 133.52V138H123.879V133.328C123.879 132.224 123.287 131.632 122.359 131.632C121.431 131.632 120.679 132.24 120.679 133.52V138ZM134.835 138H132.883V130.096H134.675L134.835 131.024C135.235 130.368 136.035 129.856 137.171 129.856C138.371 129.856 139.203 130.448 139.619 131.36C140.019 130.448 140.947 129.856 142.147 129.856C144.067 129.856 145.123 131.008 145.123 132.832V138H143.187V133.344C143.187 132.208 142.579 131.616 141.651 131.616C140.707 131.616 139.987 132.224 139.987 133.52V138H138.035V133.328C138.035 132.224 137.443 131.632 136.515 131.632C135.587 131.632 134.835 132.24 134.835 133.52V138ZM150.575 138.208C148.223 138.208 146.575 136.496 146.575 134.048C146.575 131.568 148.191 129.856 150.511 129.856C152.879 129.856 154.383 131.44 154.383 133.904V134.496L148.431 134.512C148.575 135.904 149.311 136.608 150.607 136.608C151.679 136.608 152.383 136.192 152.607 135.44H154.415C154.079 137.168 152.639 138.208 150.575 138.208ZM150.527 131.456C149.375 131.456 148.671 132.08 148.479 133.264H152.447C152.447 132.176 151.695 131.456 150.527 131.456ZM156.922 128.512C156.25 128.512 155.722 127.984 155.722 127.328C155.722 126.672 156.25 126.16 156.922 126.16C157.562 126.16 158.09 126.672 158.09 127.328C158.09 127.984 157.562 128.512 156.922 128.512ZM155.946 138V130.096H157.898V138H155.946ZM161.882 138H159.946V126.096H161.882V138ZM170.194 138H168.242V126.096H170.21V131.12C170.706 130.352 171.634 129.856 172.77 129.856C174.722 129.856 175.746 131.088 175.746 133.136V138H173.794V133.6C173.794 132.272 173.138 131.632 172.146 131.632C170.914 131.632 170.194 132.496 170.194 133.68V138ZM180.016 138.208C178.336 138.208 177.312 137.232 177.312 135.744C177.312 134.288 178.368 133.376 180.24 133.232L182.608 133.056V132.88C182.608 131.808 181.968 131.376 180.976 131.376C179.824 131.376 179.184 131.856 179.184 132.688H177.52C177.52 130.976 178.928 129.856 181.072 129.856C183.2 129.856 184.512 131.008 184.512 133.2V138H182.8L182.656 136.832C182.32 137.648 181.248 138.208 180.016 138.208ZM180.656 136.736C181.856 136.736 182.624 136.016 182.624 134.8V134.384L180.976 134.512C179.76 134.624 179.296 135.024 179.296 135.664C179.296 136.384 179.776 136.736 180.656 136.736ZM188.238 138H186.43V126.096H188.382V131.248C188.894 130.368 189.95 129.84 191.15 129.84C193.406 129.84 194.782 131.6 194.782 134.096C194.782 136.528 193.294 138.208 191.022 138.208C189.838 138.208 188.83 137.68 188.366 136.768L188.238 138ZM188.398 134.016C188.398 135.44 189.278 136.416 190.622 136.416C191.998 136.416 192.814 135.424 192.814 134.016C192.814 132.608 191.998 131.6 190.622 131.6C189.278 131.6 188.398 132.592 188.398 134.016ZM197.312 128.512C196.64 128.512 196.112 127.984 196.112 127.328C196.112 126.672 196.64 126.16 197.312 126.16C197.952 126.16 198.48 126.672 198.48 127.328C198.48 127.984 197.952 128.512 197.312 128.512ZM196.336 138V130.096H198.288V138H196.336ZM202.993 138H201.041V131.728H199.521V130.096H201.041V127.632H202.993V130.096H204.529V131.728H202.993V138ZM211.102 130.096H213.054V138H211.246L211.102 136.944C210.622 137.696 209.598 138.208 208.542 138.208C206.718 138.208 205.646 136.976 205.646 135.04V130.096H207.598V134.352C207.598 135.856 208.19 136.464 209.278 136.464C210.51 136.464 211.102 135.744 211.102 134.24V130.096ZM218.45 138.208C216.098 138.208 214.45 136.496 214.45 134.048C214.45 131.568 216.066 129.856 218.386 129.856C220.754 129.856 222.258 131.44 222.258 133.904V134.496L216.306 134.512C216.45 135.904 217.186 136.608 218.482 136.608C219.554 136.608 220.258 136.192 220.482 135.44H222.29C221.954 137.168 220.514 138.208 218.45 138.208ZM218.402 131.456C217.25 131.456 216.546 132.08 216.354 133.264H220.322C220.322 132.176 219.57 131.456 218.402 131.456ZM225.789 138H223.853V126.096H225.789V138ZM229.804 138H227.868V126.096H229.804V138ZM235.388 138.208C233.036 138.208 231.388 136.496 231.388 134.048C231.388 131.568 233.004 129.856 235.324 129.856C237.692 129.856 239.196 131.44 239.196 133.904V134.496L233.244 134.512C233.388 135.904 234.124 136.608 235.42 136.608C236.492 136.608 237.196 136.192 237.42 135.44H239.228C238.892 137.168 237.452 138.208 235.388 138.208ZM235.34 131.456C234.188 131.456 233.484 132.08 233.292 133.264H237.26C237.26 132.176 236.508 131.456 235.34 131.456Z" fill="#13151B"/>
<path d="M245.519 128.96L244.447 128.576L244.815 127.6L245.855 127.936C246.399 128.128 246.703 128.304 247.039 128.528C246.943 128.144 246.895 127.76 246.895 127.216V126.08H247.935V127.216C247.935 127.76 247.887 128.16 247.807 128.528C248.111 128.32 248.431 128.128 248.975 127.936L250.031 127.584L250.399 128.576L249.311 128.96C248.799 129.136 248.383 129.2 248.031 129.248C248.367 129.536 248.607 129.776 248.895 130.208L249.535 131.168L248.671 131.76L248.031 130.848C247.695 130.384 247.535 130.016 247.391 129.68C247.279 130.096 247.071 130.48 246.799 130.848L246.127 131.76L245.263 131.168L245.903 130.208C246.223 129.76 246.479 129.52 246.799 129.248C246.351 129.184 245.999 129.136 245.519 128.96Z" fill="#F2762E"/>
<g filter="url(#filter0_d_953_5478)">
<rect x="20" y="156" width="350" height="64" rx="24" fill="#FFF4E5"/>
<rect x="40.5" y="176.5" width="23" height="23" rx="11.5" stroke="#F2762E"/>
<path d="M81.392 193.5V182.044H85.584C87.792 182.044 89.152 183.164 89.152 185.004C89.152 186.348 88.56 187.26 87.376 187.724C88.704 188.156 89.376 189.084 89.376 190.492C89.376 192.332 88 193.5 85.824 193.5H81.392ZM85.568 183.068H82.544V187.26H85.712C87.152 187.26 87.968 186.46 87.968 185.1C87.968 183.82 87.104 183.068 85.568 183.068ZM85.824 188.268H82.544V192.46H85.824C87.328 192.46 88.208 191.676 88.208 190.348C88.208 189.052 87.312 188.268 85.824 188.268ZM90.6705 189.628C90.6705 187.26 92.3345 185.548 94.6065 185.548C96.8785 185.548 98.5425 187.26 98.5425 189.628C98.5425 191.98 96.8785 193.692 94.6065 193.692C92.3345 193.692 90.6705 191.98 90.6705 189.628ZM91.7905 189.612C91.7905 191.436 92.9425 192.7 94.6065 192.7C96.2545 192.7 97.4225 191.436 97.4225 189.612C97.4225 187.82 96.2545 186.54 94.6065 186.54C92.9425 186.54 91.7905 187.82 91.7905 189.612ZM101.412 193.5H100.308V185.756H101.268L101.428 187.1C101.94 186.108 102.964 185.548 104.084 185.548C106.212 185.548 107.092 186.812 107.092 188.764V193.5H105.988V189.004C105.988 187.196 105.172 186.556 103.892 186.556C102.308 186.556 101.412 187.708 101.412 189.452V193.5ZM110.397 193.5H109.293V185.756H110.253L110.413 187.1C110.925 186.108 111.949 185.548 113.069 185.548C115.197 185.548 116.077 186.812 116.077 188.764V193.5H114.973V189.004C114.973 187.196 114.157 186.556 112.877 186.556C111.293 186.556 110.397 187.708 110.397 189.452V193.5ZM121.525 193.692C119.253 193.692 117.733 192.06 117.733 189.628C117.733 187.212 119.237 185.548 121.445 185.548C123.541 185.548 124.965 187.036 124.965 189.228V189.772H118.805C118.885 191.66 119.877 192.748 121.541 192.748C122.805 192.748 123.621 192.204 123.909 191.18H124.965C124.549 192.812 123.349 193.692 121.525 193.692ZM121.445 186.492C119.989 186.492 119.029 187.452 118.837 188.972H123.861C123.861 187.484 122.901 186.492 121.445 186.492ZM134.08 196.012H133.072C131.728 194.172 130.848 191.452 130.848 188.7C130.848 186.06 131.696 183.308 133.072 181.404H134.08C132.848 183.132 131.984 185.82 131.984 188.7C131.984 191.516 132.816 194.252 134.08 196.012ZM134.863 182.044H142.655V183.1L138.143 193.5H136.959L141.487 183.1H134.863V182.044ZM142.774 189.788V188.796H147.414V189.788H142.774ZM155.847 189.628L152.983 193.5H151.639L154.647 189.5C154.119 189.788 153.623 189.884 153.079 189.884C150.695 189.884 149.111 188.14 149.111 185.9C149.111 183.564 150.887 181.836 153.175 181.836C155.479 181.836 157.287 183.612 157.287 185.916C157.287 187.244 156.935 188.172 155.847 189.628ZM156.135 185.9C156.135 184.156 154.919 182.892 153.175 182.892C151.479 182.892 150.263 184.156 150.263 185.9C150.263 187.628 151.479 188.876 153.175 188.876C154.919 188.876 156.135 187.628 156.135 185.9ZM160.272 193.484H159.168V181.836H160.272V187.1C160.768 186.172 161.712 185.548 163.008 185.548C165.04 185.548 165.952 186.812 165.952 188.764V193.5H164.848V189.004C164.848 187.196 164 186.556 162.8 186.556C161.136 186.556 160.272 187.788 160.272 189.276V193.484ZM170.104 192.956C170.104 193.948 169.336 194.812 168.344 194.956V194.364C168.92 194.268 169.336 193.852 169.336 193.404C169.24 193.468 169.112 193.516 168.92 193.516C168.472 193.516 168.088 193.196 168.088 192.652C168.088 192.092 168.472 191.692 169.032 191.692C169.608 191.692 170.104 192.156 170.104 192.956ZM180.825 185.66V186.652H180.217C178.793 186.652 177.881 187.612 177.881 189.084V193.5H176.777V185.756H177.817L177.897 186.956C178.201 186.124 179.017 185.58 180.105 185.58C180.345 185.58 180.553 185.596 180.825 185.66ZM186.876 182.956L185.66 184.86H184.748L185.724 182.956H186.876ZM185.244 193.692C182.972 193.692 181.452 192.06 181.452 189.628C181.452 187.212 182.956 185.548 185.164 185.548C187.26 185.548 188.684 187.036 188.684 189.228V189.772H182.524C182.604 191.66 183.596 192.748 185.26 192.748C186.524 192.748 187.34 192.204 187.628 191.18H188.684C188.268 192.812 187.068 193.692 185.244 193.692ZM185.164 186.492C183.708 186.492 182.748 187.452 182.556 188.972H187.58C187.58 187.484 186.62 186.492 185.164 186.492ZM189.905 189.644C189.905 187.212 191.393 185.548 193.649 185.548C195.441 185.548 196.753 186.588 197.057 188.188H195.953C195.665 187.116 194.737 186.524 193.665 186.524C192.097 186.524 190.993 187.724 190.993 189.628C190.993 191.468 192.017 192.7 193.585 192.7C194.737 192.7 195.665 192.06 195.969 191.068H197.089C196.721 192.652 195.345 193.692 193.585 193.692C191.393 193.692 189.905 192.076 189.905 189.644ZM204.201 185.756H205.305V193.5H204.345L204.201 192.188C203.769 193.084 202.697 193.692 201.481 193.692C199.657 193.692 198.665 192.444 198.665 190.556V185.74H199.785V190.204C199.785 192.044 200.601 192.7 201.833 192.7C203.321 192.7 204.201 191.708 204.201 189.868V185.756ZM207.605 196.876V185.756H208.565L208.677 187.324C209.221 186.124 210.309 185.548 211.605 185.548C213.845 185.548 215.189 187.26 215.189 189.596C215.189 191.932 213.893 193.692 211.605 193.692C210.293 193.692 209.253 193.132 208.709 192.012V196.876H207.605ZM208.725 189.628C208.725 191.404 209.717 192.7 211.413 192.7C213.093 192.7 214.069 191.404 214.069 189.628C214.069 187.836 213.093 186.556 211.413 186.556C209.717 186.556 208.725 187.836 208.725 189.628ZM221.829 182.956L220.613 184.86H219.701L220.677 182.956H221.829ZM220.197 193.692C217.925 193.692 216.405 192.06 216.405 189.628C216.405 187.212 217.909 185.548 220.117 185.548C222.213 185.548 223.637 187.036 223.637 189.228V189.772H217.477C217.557 191.66 218.549 192.748 220.213 192.748C221.477 192.748 222.293 192.204 222.581 191.18H223.637C223.221 192.812 222.021 193.692 220.197 193.692ZM220.117 186.492C218.661 186.492 217.701 187.452 217.509 188.972H222.533C222.533 187.484 221.573 186.492 220.117 186.492ZM229.45 185.66V186.652H228.842C227.418 186.652 226.506 187.612 226.506 189.084V193.5H225.402V185.756H226.442L226.522 186.956C226.826 186.124 227.642 185.58 228.73 185.58C228.97 185.58 229.178 185.596 229.45 185.66ZM232.829 193.692C231.181 193.692 230.205 192.764 230.205 191.404C230.205 189.98 231.293 189.084 233.101 188.94L235.661 188.732V188.476C235.661 186.956 234.749 186.476 233.613 186.476C232.269 186.476 231.469 187.084 231.469 188.124H230.461C230.461 186.556 231.741 185.548 233.645 185.548C235.437 185.548 236.749 186.444 236.749 188.492V193.5H235.821L235.677 192.14C235.197 193.116 234.141 193.692 232.829 193.692ZM233.085 192.796C234.717 192.796 235.661 191.66 235.661 189.98V189.564L233.373 189.74C231.917 189.868 231.325 190.508 231.325 191.372C231.325 192.316 232.029 192.796 233.085 192.796ZM240.6 193.5H239.512V186.684H237.96V185.756H239.512V183.308H240.6V185.756H242.152V186.684H240.6V193.5ZM246.759 193.692C244.487 193.692 242.967 192.06 242.967 189.628C242.967 187.212 244.471 185.548 246.679 185.548C248.775 185.548 250.199 187.036 250.199 189.228V189.772H244.039C244.119 191.66 245.111 192.748 246.775 192.748C248.039 192.748 248.855 192.204 249.143 191.18H250.199C249.783 192.812 248.583 193.692 246.759 193.692ZM246.679 186.492C245.223 186.492 244.263 187.452 244.071 188.972H249.095C249.095 187.484 248.135 186.492 246.679 186.492ZM257.405 185.756H258.509V193.5H257.549L257.405 192.188C256.973 193.084 255.901 193.692 254.685 193.692C252.861 193.692 251.868 192.444 251.868 190.556V185.74H252.989V190.204C252.989 192.044 253.805 192.7 255.036 192.7C256.525 192.7 257.405 191.708 257.405 189.868V185.756ZM264.856 185.66V186.652H264.248C262.824 186.652 261.912 187.612 261.912 189.084V193.5H260.808V185.756H261.848L261.928 186.956C262.232 186.124 263.048 185.58 264.136 185.58C264.376 185.58 264.584 185.596 264.856 185.66ZM266.18 196.012H265.172C266.436 194.252 267.284 191.516 267.284 188.7C267.284 185.82 266.404 183.132 265.172 181.404H266.18C267.572 183.308 268.404 186.06 268.404 188.7C268.404 191.452 267.524 194.172 266.18 196.012Z" fill="#13151B"/>
</g>
<g filter="url(#filter1_d_953_5478)">
<rect x="20" y="236" width="350" height="64" rx="24" fill="#FFE2C4"/>
<rect x="20.5" y="236.5" width="349" height="63" rx="23.5" stroke="#F2762E"/>
<rect x="40" y="256" width="24" height="24" rx="12" fill="#F2762E"/>
<circle cx="52" cy="268" r="5" fill="#F9F3EA"/>
<path d="M82.528 273.5H81.392V262.044H82.528L86.704 272.14L90.88 262.044H92.032V273.5H90.896V268.06C90.896 266.06 90.928 265.18 90.992 264.396L87.264 273.5H86.16L82.432 264.444C82.496 264.876 82.528 266.14 82.528 267.884V273.5ZM94.0299 269.628C94.0299 267.26 95.6939 265.548 97.9659 265.548C100.238 265.548 101.902 267.26 101.902 269.628C101.902 271.98 100.238 273.692 97.9659 273.692C95.6939 273.692 94.0299 271.98 94.0299 269.628ZM95.1499 269.612C95.1499 271.436 96.3019 272.7 97.9659 272.7C99.6139 272.7 100.782 271.436 100.782 269.612C100.782 267.82 99.6139 266.54 97.9659 266.54C96.3019 266.54 95.1499 267.82 95.1499 269.612ZM102.634 276.876V275.964H103.482C104.154 275.964 104.826 275.916 105.21 274.876L105.546 273.964L102.41 265.756H103.578L106.074 272.508L108.522 265.756H109.658L106.106 275.276C105.658 276.492 104.906 276.988 103.802 276.988C103.338 276.988 102.986 276.956 102.634 276.876ZM113.931 273.692C111.659 273.692 110.139 272.06 110.139 269.628C110.139 267.212 111.643 265.548 113.851 265.548C115.947 265.548 117.371 267.036 117.371 269.228V269.772H111.211C111.291 271.66 112.283 272.748 113.947 272.748C115.211 272.748 116.027 272.204 116.315 271.18H117.371C116.955 272.812 115.755 273.692 113.931 273.692ZM113.851 266.492C112.395 266.492 111.435 267.452 111.243 268.972H116.267C116.267 267.484 115.307 266.492 113.851 266.492ZM120.24 273.5H119.136V265.756H120.096L120.256 267.1C120.768 266.108 121.792 265.548 122.912 265.548C125.04 265.548 125.92 266.812 125.92 268.764V273.5H124.816V269.004C124.816 267.196 124 266.556 122.72 266.556C121.136 266.556 120.24 267.708 120.24 269.452V273.5ZM129.225 273.5H128.121V265.756H129.081L129.241 267.1C129.753 266.108 130.777 265.548 131.897 265.548C134.025 265.548 134.905 266.812 134.905 268.764V273.5H133.801V269.004C133.801 267.196 132.985 266.556 131.705 266.556C130.121 266.556 129.225 267.708 129.225 269.452V273.5ZM140.353 273.692C138.081 273.692 136.561 272.06 136.561 269.628C136.561 267.212 138.065 265.548 140.273 265.548C142.369 265.548 143.793 267.036 143.793 269.228V269.772H137.633C137.713 271.66 138.705 272.748 140.369 272.748C141.633 272.748 142.449 272.204 142.737 271.18H143.793C143.377 272.812 142.177 273.692 140.353 273.692ZM140.273 266.492C138.817 266.492 137.857 267.452 137.665 268.972H142.689C142.689 267.484 141.729 266.492 140.273 266.492ZM152.908 276.012H151.9C150.556 274.172 149.676 271.452 149.676 268.7C149.676 266.06 150.524 263.308 151.9 261.404H152.908C151.676 263.132 150.812 265.82 150.812 268.7C150.812 271.516 151.644 274.252 152.908 276.012ZM157.546 273.692C155.242 273.692 153.77 272.252 153.77 269.996H154.922C154.922 271.644 155.93 272.636 157.562 272.636C159.29 272.636 160.41 271.484 160.41 269.788C160.41 268.188 159.37 266.924 157.562 266.924C156.506 266.924 155.546 267.404 154.922 268.092L154.01 267.804L155.386 262.044H160.922V263.1H156.218L155.354 266.7C155.994 266.188 156.826 265.9 157.722 265.9C160.106 265.9 161.578 267.612 161.578 269.756C161.578 272.06 159.946 273.692 157.546 273.692ZM163.258 269.788V268.796H167.898V269.788H163.258ZM168.582 262.044H176.374V263.1L171.862 273.5H170.678L175.206 263.1H168.582V262.044ZM178.756 273.484H177.652V261.836H178.756V267.1C179.252 266.172 180.196 265.548 181.492 265.548C183.524 265.548 184.436 266.812 184.436 268.764V273.5H183.332V269.004C183.332 267.196 182.484 266.556 181.284 266.556C179.62 266.556 178.756 267.788 178.756 269.276V273.484ZM188.588 272.956C188.588 273.948 187.82 274.812 186.828 274.956V274.364C187.404 274.268 187.82 273.852 187.82 273.404C187.724 273.468 187.596 273.516 187.404 273.516C186.956 273.516 186.572 273.196 186.572 272.652C186.572 272.092 186.956 271.692 187.516 271.692C188.092 271.692 188.588 272.156 188.588 272.956ZM195.261 276.876V265.756H196.221L196.333 267.324C196.877 266.124 197.965 265.548 199.261 265.548C201.501 265.548 202.845 267.26 202.845 269.596C202.845 271.932 201.549 273.692 199.261 273.692C197.949 273.692 196.909 273.132 196.365 272.012V276.876H195.261ZM196.381 269.628C196.381 271.404 197.373 272.7 199.069 272.7C200.749 272.7 201.725 271.404 201.725 269.628C201.725 267.836 200.749 266.556 199.069 266.556C197.373 266.556 196.381 267.836 196.381 269.628ZM206.829 273.692C205.181 273.692 204.205 272.764 204.205 271.404C204.205 269.98 205.293 269.084 207.101 268.94L209.661 268.732V268.476C209.661 266.956 208.749 266.476 207.613 266.476C206.269 266.476 205.469 267.084 205.469 268.124H204.461C204.461 266.556 205.741 265.548 207.645 265.548C209.437 265.548 210.749 266.444 210.749 268.492V273.5H209.821L209.677 272.14C209.197 273.116 208.141 273.692 206.829 273.692ZM207.085 272.796C208.717 272.796 209.661 271.66 209.661 269.98V269.564L207.373 269.74C205.917 269.868 205.325 270.508 205.325 271.372C205.325 272.316 206.029 272.796 207.085 272.796ZM217.013 265.66V266.652H216.405C214.981 266.652 214.069 267.612 214.069 269.084V273.5H212.965V265.756H214.005L214.085 266.956C214.389 266.124 215.205 265.58 216.293 265.58C216.533 265.58 216.741 265.596 217.013 265.66ZM217.929 265.756H219.113V264.252C219.113 262.508 220.073 261.836 221.257 261.836C221.529 261.836 221.849 261.852 222.105 261.9V262.844H221.449C220.473 262.844 220.217 263.34 220.217 264.252V265.756H222.041V266.684H220.217V273.5H219.113V266.684H217.929V265.756ZM222.764 269.628C222.764 267.26 224.428 265.548 226.7 265.548C228.972 265.548 230.636 267.26 230.636 269.628C230.636 271.98 228.972 273.692 226.7 273.692C224.428 273.692 222.764 271.98 222.764 269.628ZM223.884 269.612C223.884 271.436 225.036 272.7 226.7 272.7C228.348 272.7 229.516 271.436 229.516 269.612C229.516 267.82 228.348 266.54 226.7 266.54C225.036 266.54 223.884 267.82 223.884 269.612ZM232.946 263.628C232.498 263.628 232.13 263.26 232.13 262.812C232.13 262.364 232.498 261.98 232.946 261.98C233.394 261.98 233.778 262.364 233.778 262.812C233.778 263.26 233.394 263.628 232.946 263.628ZM232.402 273.5V265.756H233.506V273.5H232.402ZM235.152 271.324H236.208C236.208 272.22 236.88 272.78 237.968 272.78C239.168 272.78 239.872 272.268 239.872 271.436C239.872 270.796 239.552 270.428 238.64 270.204L237.312 269.868C235.968 269.532 235.312 268.828 235.312 267.772C235.312 266.412 236.448 265.548 238.112 265.548C239.744 265.548 240.8 266.444 240.848 267.884H239.776C239.744 266.988 239.12 266.46 238.08 266.46C236.992 266.46 236.384 266.924 236.384 267.756C236.384 268.348 236.8 268.764 237.648 268.972L238.976 269.308C240.32 269.644 240.928 270.268 240.928 271.388C240.928 272.78 239.744 273.692 237.984 273.692C236.24 273.692 235.152 272.764 235.152 271.324ZM250.223 273.692C247.967 273.692 246.639 271.964 246.639 269.644C246.639 267.308 247.967 265.548 250.271 265.548C251.551 265.548 252.575 266.108 253.119 267.228V261.836H254.223V273.5H253.263L253.151 271.916C252.607 273.116 251.519 273.692 250.223 273.692ZM250.415 272.684C252.111 272.684 253.103 271.404 253.103 269.612C253.103 267.836 252.111 266.54 250.415 266.54C248.735 266.54 247.759 267.836 247.759 269.612C247.759 271.404 248.735 272.684 250.415 272.684ZM257.071 263.628C256.623 263.628 256.255 263.26 256.255 262.812C256.255 262.364 256.623 261.98 257.071 261.98C257.519 261.98 257.903 262.364 257.903 262.812C257.903 263.26 257.519 263.628 257.071 263.628ZM256.527 273.5V265.756H257.631V273.5H256.527ZM259.069 265.756H260.253V264.252C260.253 262.508 261.197 261.836 262.397 261.836C262.669 261.836 262.989 261.852 263.245 261.9V262.86H262.573C261.613 262.86 261.357 263.34 261.357 264.252V265.756H265.037V264.252C265.037 262.508 265.997 261.836 267.149 261.836C267.421 261.836 267.741 261.852 267.997 261.9V262.86H267.341C266.397 262.86 266.141 263.34 266.141 264.252V265.756H270.925V273.5H269.821V266.684H266.141V273.5H265.037V266.684H261.357V273.5H260.253V266.684H259.069V265.756ZM270.365 263.388C269.933 263.388 269.597 263.068 269.597 262.636C269.597 262.188 269.933 261.836 270.365 261.836C270.813 261.836 271.133 262.188 271.133 262.636C271.133 263.068 270.813 263.388 270.365 263.388ZM272.639 269.644C272.639 267.212 274.127 265.548 276.383 265.548C278.175 265.548 279.487 266.588 279.791 268.188H278.687C278.399 267.116 277.471 266.524 276.399 266.524C274.831 266.524 273.727 267.724 273.727 269.628C273.727 271.468 274.751 272.7 276.319 272.7C277.471 272.7 278.399 272.06 278.703 271.068H279.823C279.455 272.652 278.079 273.692 276.319 273.692C274.127 273.692 272.639 272.076 272.639 269.644ZM282.04 263.628C281.592 263.628 281.224 263.26 281.224 262.812C281.224 262.364 281.592 261.98 282.04 261.98C282.488 261.98 282.872 262.364 282.872 262.812C282.872 263.26 282.488 263.628 282.04 263.628ZM281.496 273.5V265.756H282.6V273.5H281.496ZM286.054 273.5H284.95V261.836H286.054V273.5ZM291.65 273.692C289.378 273.692 287.858 272.06 287.858 269.628C287.858 267.212 289.362 265.548 291.57 265.548C293.666 265.548 295.09 267.036 295.09 269.228V269.772H288.93C289.01 271.66 290.002 272.748 291.666 272.748C292.93 272.748 293.746 272.204 294.034 271.18H295.09C294.674 272.812 293.474 273.692 291.65 273.692ZM291.57 266.492C290.114 266.492 289.154 267.452 288.962 268.972H293.986C293.986 267.484 293.026 266.492 291.57 266.492ZM296.711 276.012H295.703C296.967 274.252 297.815 271.516 297.815 268.7C297.815 265.82 296.935 263.132 295.703 261.404H296.711C298.103 263.308 298.935 266.06 298.935 268.7C298.935 271.452 298.055 274.172 296.711 276.012Z" fill="#13151B"/>
</g>
<g filter="url(#filter2_d_953_5478)">
<rect x="20" y="316" width="350" height="64" rx="24" fill="#FFF4E5"/>
<rect x="40.5" y="336.5" width="23" height="23" rx="11.5" stroke="#F2762E"/>
<path d="M82.528 353.5H81.392V342.044H82.528L86.704 352.14L90.88 342.044H92.032V353.5H90.896V348.06C90.896 346.06 90.928 345.18 90.992 344.396L87.264 353.5H86.16L82.432 344.444C82.496 344.876 82.528 346.14 82.528 347.884V353.5ZM96.7979 353.692C95.1499 353.692 94.1739 352.764 94.1739 351.404C94.1739 349.98 95.2619 349.084 97.0699 348.94L99.6299 348.732V348.476C99.6299 346.956 98.7179 346.476 97.5819 346.476C96.2379 346.476 95.4379 347.084 95.4379 348.124H94.4299C94.4299 346.556 95.7099 345.548 97.6139 345.548C99.4059 345.548 100.718 346.444 100.718 348.492V353.5H99.7899L99.6459 352.14C99.1659 353.116 98.1099 353.692 96.7979 353.692ZM97.0539 352.796C98.6859 352.796 99.6299 351.66 99.6299 349.98V349.564L97.3419 349.74C95.8859 349.868 95.2939 350.508 95.2939 351.372C95.2939 352.316 95.9979 352.796 97.0539 352.796ZM108.373 345.756H109.477V353.5H108.517L108.373 352.188C107.941 353.084 106.869 353.692 105.653 353.692C103.829 353.692 102.837 352.444 102.837 350.556V345.74H103.957V350.204C103.957 352.044 104.773 352.7 106.005 352.7C107.493 352.7 108.373 351.708 108.373 349.868V345.756ZM113.937 353.5L110.769 345.756H111.953L113.953 350.748C114.161 351.308 114.369 351.836 114.513 352.348C114.657 351.82 114.865 351.308 115.089 350.748L117.121 345.756H118.257L115.041 353.5H113.937ZM121.439 353.692C119.791 353.692 118.815 352.764 118.815 351.404C118.815 349.98 119.903 349.084 121.711 348.94L124.271 348.732V348.476C124.271 346.956 123.359 346.476 122.223 346.476C120.879 346.476 120.079 347.084 120.079 348.124H119.071C119.071 346.556 120.351 345.548 122.255 345.548C124.047 345.548 125.359 346.444 125.359 348.492V353.5H124.431L124.287 352.14C123.807 353.116 122.751 353.692 121.439 353.692ZM121.695 352.796C123.327 352.796 124.271 351.66 124.271 349.98V349.564L121.983 349.74C120.527 349.868 119.935 350.508 119.935 351.372C119.935 352.316 120.639 352.796 121.695 352.796ZM128.118 343.628C127.67 343.628 127.302 343.26 127.302 342.812C127.302 342.364 127.67 341.98 128.118 341.98C128.566 341.98 128.95 342.364 128.95 342.812C128.95 343.26 128.566 343.628 128.118 343.628ZM127.574 353.5V345.756H128.678V353.5H127.574ZM130.324 351.324H131.38C131.38 352.22 132.052 352.78 133.14 352.78C134.34 352.78 135.044 352.268 135.044 351.436C135.044 350.796 134.724 350.428 133.812 350.204L132.484 349.868C131.14 349.532 130.484 348.828 130.484 347.772C130.484 346.412 131.62 345.548 133.284 345.548C134.916 345.548 135.972 346.444 136.02 347.884H134.948C134.916 346.988 134.292 346.46 133.252 346.46C132.164 346.46 131.556 346.924 131.556 347.756C131.556 348.348 131.972 348.764 132.82 348.972L134.148 349.308C135.492 349.644 136.1 350.268 136.1 351.388C136.1 352.78 134.916 353.692 133.156 353.692C131.412 353.692 130.324 352.764 130.324 351.324ZM141.166 353.692C138.894 353.692 137.374 352.06 137.374 349.628C137.374 347.212 138.878 345.548 141.086 345.548C143.182 345.548 144.606 347.036 144.606 349.228V349.772H138.446C138.526 351.66 139.518 352.748 141.182 352.748C142.446 352.748 143.262 352.204 143.55 351.18H144.606C144.19 352.812 142.99 353.692 141.166 353.692ZM141.086 346.492C139.63 346.492 138.67 347.452 138.478 348.972H143.502C143.502 347.484 142.542 346.492 141.086 346.492ZM153.72 356.012H152.712C151.368 354.172 150.488 351.452 150.488 348.7C150.488 346.06 151.336 343.308 152.712 341.404H153.72C152.488 343.132 151.624 345.82 151.624 348.7C151.624 351.516 152.456 354.252 153.72 356.012ZM162.999 351.916V353.004L154.999 350.14V349.02L162.999 346.156V347.26L156.231 349.58L162.999 351.916ZM168.921 353.692C166.617 353.692 165.145 352.252 165.145 349.996H166.297C166.297 351.644 167.305 352.636 168.937 352.636C170.665 352.636 171.785 351.484 171.785 349.788C171.785 348.188 170.745 346.924 168.937 346.924C167.881 346.924 166.921 347.404 166.297 348.092L165.385 347.804L166.761 342.044H172.297V343.1H167.593L166.729 346.7C167.369 346.188 168.201 345.9 169.097 345.9C171.481 345.9 172.953 347.612 172.953 349.756C172.953 352.06 171.321 353.692 168.921 353.692ZM175.865 353.484H174.761V341.836H175.865V347.1C176.361 346.172 177.305 345.548 178.601 345.548C180.633 345.548 181.545 346.812 181.545 348.764V353.5H180.441V349.004C180.441 347.196 179.593 346.556 178.393 346.556C176.729 346.556 175.865 347.788 175.865 349.276V353.484ZM187.639 349.628C187.639 347.26 189.303 345.548 191.575 345.548C193.847 345.548 195.511 347.26 195.511 349.628C195.511 351.98 193.847 353.692 191.575 353.692C189.303 353.692 187.639 351.98 187.639 349.628ZM188.759 349.612C188.759 351.436 189.911 352.7 191.575 352.7C193.223 352.7 194.391 351.436 194.391 349.612C194.391 347.82 193.223 346.54 191.575 346.54C189.911 346.54 188.759 347.82 188.759 349.612ZM202.53 345.756H203.634V353.5H202.674L202.53 352.188C202.098 353.084 201.026 353.692 199.81 353.692C197.986 353.692 196.993 352.444 196.993 350.556V345.74H198.114V350.204C198.114 352.044 198.93 352.7 200.161 352.7C201.65 352.7 202.53 351.708 202.53 349.868V345.756ZM211.475 353.5H210.371V345.756H211.331L211.491 347.1C212.003 346.108 213.027 345.548 214.147 345.548C216.275 345.548 217.155 346.812 217.155 348.764V353.5H216.051V349.004C216.051 347.196 215.235 346.556 213.955 346.556C212.371 346.556 211.475 347.708 211.475 349.452V353.5ZM218.811 349.628C218.811 347.26 220.475 345.548 222.747 345.548C225.019 345.548 226.683 347.26 226.683 349.628C226.683 351.98 225.019 353.692 222.747 353.692C220.475 353.692 218.811 351.98 218.811 349.628ZM219.931 349.612C219.931 351.436 221.083 352.7 222.747 352.7C224.395 352.7 225.563 351.436 225.563 349.612C225.563 347.82 224.395 346.54 222.747 346.54C221.083 346.54 219.931 347.82 219.931 349.612ZM229.553 353.5H228.449V345.756H229.409L229.569 347.1C230.081 346.108 231.105 345.548 232.225 345.548C234.353 345.548 235.233 346.812 235.233 348.764V353.5H234.129V349.004C234.129 347.196 233.313 346.556 232.033 346.556C230.449 346.556 229.553 347.708 229.553 349.452V353.5ZM245.919 345.66V346.652H245.311C243.887 346.652 242.975 347.612 242.975 349.084V353.5H241.871V345.756H242.911L242.991 346.956C243.295 346.124 244.111 345.58 245.199 345.58C245.439 345.58 245.647 345.596 245.919 345.66ZM251.97 342.956L250.754 344.86H249.842L250.818 342.956H251.97ZM250.338 353.692C248.066 353.692 246.546 352.06 246.546 349.628C246.546 347.212 248.049 345.548 250.258 345.548C252.354 345.548 253.778 347.036 253.778 349.228V349.772H247.618C247.698 351.66 248.69 352.748 250.354 352.748C251.618 352.748 252.434 352.204 252.722 351.18H253.778C253.362 352.812 252.162 353.692 250.338 353.692ZM250.258 346.492C248.802 346.492 247.842 347.452 247.65 348.972H252.674C252.674 347.484 251.714 346.492 250.258 346.492ZM255.543 356.876V345.756H256.503L256.615 347.324C257.159 346.124 258.247 345.548 259.543 345.548C261.783 345.548 263.127 347.26 263.127 349.596C263.127 351.932 261.831 353.692 259.543 353.692C258.231 353.692 257.191 353.132 256.647 352.012V356.876H255.543ZM256.663 349.628C256.663 351.404 257.655 352.7 259.351 352.7C261.031 352.7 262.007 351.404 262.007 349.628C262.007 347.836 261.031 346.556 259.351 346.556C257.655 346.556 256.663 347.836 256.663 349.628ZM267.11 353.692C265.462 353.692 264.486 352.764 264.486 351.404C264.486 349.98 265.574 349.084 267.382 348.94L269.942 348.732V348.476C269.942 346.956 269.03 346.476 267.894 346.476C266.55 346.476 265.75 347.084 265.75 348.124H264.742C264.742 346.556 266.022 345.548 267.926 345.548C269.718 345.548 271.03 346.444 271.03 348.492V353.5H270.102L269.958 352.14C269.478 353.116 268.422 353.692 267.11 353.692ZM267.366 352.796C268.998 352.796 269.942 351.66 269.942 349.98V349.564L267.654 349.74C266.198 349.868 265.606 350.508 265.606 351.372C265.606 352.316 266.31 352.796 267.366 352.796ZM277.294 345.66V346.652H276.686C275.262 346.652 274.35 347.612 274.35 349.084V353.5H273.246V345.756H274.286L274.366 346.956C274.67 346.124 275.486 345.58 276.574 345.58C276.814 345.58 277.022 345.596 277.294 345.66ZM280.673 353.692C279.025 353.692 278.049 352.764 278.049 351.404C278.049 349.98 279.137 349.084 280.945 348.94L283.505 348.732V348.476C283.505 346.956 282.593 346.476 281.457 346.476C280.113 346.476 279.313 347.084 279.313 348.124H278.305C278.305 346.556 279.585 345.548 281.489 345.548C283.281 345.548 284.593 346.444 284.593 348.492V353.5H283.665L283.521 352.14C283.041 353.116 281.985 353.692 280.673 353.692ZM280.929 352.796C282.561 352.796 283.505 351.66 283.505 349.98V349.564L281.217 349.74C279.761 349.868 279.169 350.508 279.169 351.372C279.169 352.316 279.873 352.796 280.929 352.796ZM288.444 353.5H287.356V346.684H285.804V345.756H287.356V343.308H288.444V345.756H289.996V346.684H288.444V353.5ZM294.603 353.692C292.331 353.692 290.811 352.06 290.811 349.628C290.811 347.212 292.315 345.548 294.523 345.548C296.619 345.548 298.043 347.036 298.043 349.228V349.772H291.883C291.963 351.66 292.955 352.748 294.619 352.748C295.883 352.748 296.699 352.204 296.987 351.18H298.043C297.627 352.812 296.427 353.692 294.603 353.692ZM294.523 346.492C293.067 346.492 292.107 347.452 291.915 348.972H296.939C296.939 347.484 295.979 346.492 294.523 346.492ZM305.248 345.756H306.352V353.5H305.392L305.248 352.188C304.816 353.084 303.744 353.692 302.528 353.692C300.704 353.692 299.712 352.444 299.712 350.556V345.74H300.832V350.204C300.832 352.044 301.648 352.7 302.88 352.7C304.368 352.7 305.248 351.708 305.248 349.868V345.756ZM312.7 345.66V346.652H312.092C310.668 346.652 309.756 347.612 309.756 349.084V353.5H308.652V345.756H309.692L309.772 346.956C310.076 346.124 310.892 345.58 311.98 345.58C312.22 345.58 312.428 345.596 312.7 345.66ZM314.024 356.012H313.016C314.28 354.252 315.128 351.516 315.128 348.7C315.128 345.82 314.248 343.132 313.016 341.404H314.024C315.416 343.308 316.248 346.06 316.248 348.7C316.248 351.452 315.368 354.172 314.024 356.012Z" fill="#13151B"/>
</g>
<rect x="20" y="404" width="350" height="48" rx="16" fill="#F2762E"/>
<path d="M162.56 434H155.296V422.304H162.56V424.192H157.344V427.2H162.016V429.008H157.344V432.112H162.56V434ZM166.444 434H164.492V426.096H166.3L166.46 427.12C166.956 426.32 167.916 425.856 168.988 425.856C170.972 425.856 171.996 427.088 171.996 429.136V434H170.044V429.6C170.044 428.272 169.388 427.632 168.38 427.632C167.18 427.632 166.444 428.464 166.444 429.744V434ZM178.874 426.064V427.872H178.154C176.746 427.872 175.866 428.624 175.866 430.16V434H173.914V426.112H175.754L175.866 427.264C176.202 426.48 176.954 425.952 178.01 425.952C178.282 425.952 178.554 425.984 178.874 426.064ZM183.466 434.208C181.114 434.208 179.466 432.496 179.466 430.048C179.466 427.568 181.082 425.856 183.402 425.856C185.77 425.856 187.274 427.44 187.274 429.904V430.496L181.322 430.512C181.466 431.904 182.202 432.608 183.498 432.608C184.57 432.608 185.274 432.192 185.498 431.44H187.306C186.97 433.168 185.53 434.208 183.466 434.208ZM183.418 427.456C182.266 427.456 181.562 428.08 181.37 429.264H185.338C185.338 428.176 184.586 427.456 183.418 427.456ZM188.388 429.872C188.388 427.568 189.892 425.84 192.148 425.84C193.332 425.84 194.26 426.336 194.724 427.184L194.836 426.096H196.644V433.6C196.644 436.24 195.06 437.888 192.5 437.888C190.228 437.888 188.676 436.592 188.436 434.48H190.388C190.516 435.504 191.3 436.112 192.5 436.112C193.844 436.112 194.708 435.264 194.708 433.952V432.64C194.212 433.376 193.236 433.84 192.1 433.84C189.86 433.84 188.388 432.16 188.388 429.872ZM190.356 429.824C190.356 431.152 191.204 432.144 192.484 432.144C193.828 432.144 194.66 431.2 194.66 429.824C194.66 428.48 193.844 427.552 192.484 427.552C191.188 427.552 190.356 428.528 190.356 429.824ZM199.64 424.512C198.968 424.512 198.44 423.984 198.44 423.328C198.44 422.672 198.968 422.16 199.64 422.16C200.28 422.16 200.808 422.672 200.808 423.328C200.808 423.984 200.28 424.512 199.64 424.512ZM198.664 434V426.096H200.616V434H198.664ZM202.025 431.6H203.881C203.897 432.288 204.409 432.72 205.305 432.72C206.217 432.72 206.713 432.352 206.713 431.776C206.713 431.376 206.505 431.088 205.801 430.928L204.377 430.592C202.953 430.272 202.265 429.6 202.265 428.336C202.265 426.784 203.577 425.856 205.401 425.856C207.177 425.856 208.377 426.88 208.393 428.416H206.537C206.521 427.744 206.073 427.312 205.321 427.312C204.553 427.312 204.105 427.664 204.105 428.256C204.105 428.704 204.457 428.992 205.129 429.152L206.553 429.488C207.881 429.792 208.553 430.4 208.553 431.616C208.553 433.216 207.193 434.208 205.241 434.208C203.273 434.208 202.025 433.152 202.025 431.6ZM212.727 434H210.775V427.728H209.255V426.096H210.775V423.632H212.727V426.096H214.263V427.728H212.727V434ZM220.437 426.064V427.872H219.717C218.309 427.872 217.429 428.624 217.429 430.16V434H215.477V426.112H217.317L217.429 427.264C217.765 426.48 218.517 425.952 219.573 425.952C219.845 425.952 220.117 425.984 220.437 426.064ZM225.028 434.208C222.676 434.208 221.028 432.496 221.028 430.048C221.028 427.568 222.644 425.856 224.964 425.856C227.332 425.856 228.836 427.44 228.836 429.904V430.496L222.884 430.512C223.028 431.904 223.764 432.608 225.06 432.608C226.132 432.608 226.836 432.192 227.06 431.44H228.868C228.532 433.168 227.092 434.208 225.028 434.208ZM224.98 427.456C223.828 427.456 223.124 428.08 222.932 429.264H226.9C226.9 428.176 226.148 427.456 224.98 427.456ZM235.359 426.064V427.872H234.639C233.231 427.872 232.351 428.624 232.351 430.16V434H230.399V426.112H232.239L232.351 427.264C232.687 426.48 233.439 425.952 234.495 425.952C234.767 425.952 235.039 425.984 235.359 426.064Z" fill="#13151B"/>
</g>
<defs>
<filter id="filter0_d_953_5478" x="10" y="146" width="370" height="84" filterUnits="userSpaceOnUse" color-interpolation-filters="sRGB">
<feFlood flood-opacity="0" result="BackgroundImageFix"/>
<feColorMatrix in="SourceAlpha" type="matrix" values="0 0 0 0 0 0 0 0 0 0 0 0 0 0 0 0 0 0 127 0" result="hardAlpha"/>
<feOffset/>
<feGaussianBlur stdDeviation="5"/>
<feComposite in2="hardAlpha" operator="out"/>
<feColorMatrix type="matrix" values="0 0 0 0 0 0 0 0 0 0 0 0 0 0 0 0 0 0 0.1 0"/>
<feBlend mode="normal" in2="BackgroundImageFix" result="effect1_dropShadow_953_5478"/>
<feBlend mode="normal" in="SourceGraphic" in2="effect1_dropShadow_953_5478" result="shape"/>
</filter>
<filter id="filter1_d_953_5478" x="10" y="226" width="370" height="84" filterUnits="userSpaceOnUse" color-interpolation-filters="sRGB">
<feFlood flood-opacity="0" result="BackgroundImageFix"/>
<feColorMatrix in="SourceAlpha" type="matrix" values="0 0 0 0 0 0 0 0 0 0 0 0 0 0 0 0 0 0 127 0" result="hardAlpha"/>
<feOffset/>
<feGaussianBlur stdDeviation="5"/>
<feComposite in2="hardAlpha" operator="out"/>
<feColorMatrix type="matrix" values="0 0 0 0 0 0 0 0 0 0 0 0 0 0 0 0 0 0 0.1 0"/>
<feBlend mode="normal" in2="BackgroundImageFix" result="effect1_dropShadow_953_5478"/>
<feBlend mode="normal" in="SourceGraphic" in2="effect1_dropShadow_953_5478" result="shape"/>
</filter>
<filter id="filter2_d_953_5478" x="10" y="306" width="370" height="84" filterUnits="userSpaceOnUse" color-interpolation-filters="sRGB">
<feFlood flood-opacity="0" result="BackgroundImageFix"/>
<feColorMatrix in="SourceAlpha" type="matrix" values="0 0 0 0 0 0 0 0 0 0 0 0 0 0 0 0 0 0 127 0" result="hardAlpha"/>
<feOffset/>
<feGaussianBlur stdDeviation="5"/>
<feComposite in2="hardAlpha" operator="out"/>
<feColorMatrix type="matrix" values="0 0 0 0 0 0 0 0 0 0 0 0 0 0 0 0 0 0 0.1 0"/>
<feBlend mode="normal" in2="BackgroundImageFix" result="effect1_dropShadow_953_5478"/>
<feBlend mode="normal" in="SourceGraphic" in2="effect1_dropShadow_953_5478" result="shape"/>
</filter>
<clipPath id="clip0_953_5478">
<rect width="390" height="850" rx="24" fill="white"/>
</clipPath>
</defs>
</svg>
