<svg width="390" height="850" viewBox="0 0 390 850" fill="none" xmlns="http://www.w3.org/2000/svg">
<g clip-path="url(#clip0_407_1506)">
<rect width="390" height="850" rx="24" fill="#F9F3EA"/>
<path d="M143.044 809.175C135.536 798.797 122.25 788.585 108.926 786.457C111.341 784.515 113.553 783.016 116.043 781.24C125.316 774.673 133.362 766.681 139.662 757.227C142.059 753.638 143.676 749.883 144.326 745.795C145.534 738.228 141.13 731.957 133.585 730.532C119.369 727.868 102.775 741.003 92.8514 750.882C94.3938 743.371 95.5645 736.582 95.4902 729.219C95.4159 720.45 94.4681 711.921 91.1604 703.855C89.8782 701.173 88.3915 698.62 85.6227 697.454C82.8538 696.289 80.1407 697.528 77.8364 699.341C66.631 710.219 64.2709 727.757 61.7437 742.687C56.2803 729.996 49.9621 714.807 41.0237 704.965C36.601 700.1 28.0529 694.124 22.1993 700.433C19.7463 703.078 18.4641 706.427 17.6651 709.942C13.8556 726.481 19.449 750.512 27.6255 765.719C24.1876 764.59 21.4188 763.554 18.0553 763.573C13.0937 763.573 8.11345 763.85 3.37481 765.275C-1.34524 766.681 -5.60073 768.605 -9.37305 771.639C-14.4648 775.764 -17.3079 781.666 -16.9735 788.067C-16.2673 801.368 -3.18495 808.787 9.06117 809.619C10.4177 809.712 11.6999 809.952 12.9822 809.971C12.4433 811.247 11.3655 811.284 10.5664 811.969C6.36666 815.521 2.66866 819.591 -0.0630264 824.364C-4.0026 831.264 -5.32198 840.903 2.35275 845.879C13.0193 852.817 27.8113 848.099 37.6974 841.883C41.7671 839.312 44.8704 836.093 48.6056 832.818L48.6427 844.177C48.6613 849.08 49.9621 853.76 51.6346 858.348C53.3442 862.992 57.2466 866.784 62.5985 865.526C73.0049 863.158 78.078 847.452 80.4938 838.017C85.9943 845.768 91.6064 854.704 98.6865 860.957C104.652 866.692 114.129 871.668 120.986 864.305C124.647 860.365 126.152 855.24 125.594 849.875C124.851 842.827 119.369 835.057 115.392 829.118C123.495 832.3 132.526 835.741 140.814 832.467C144.902 830.857 147.578 827.324 147.708 822.865C147.857 817.907 146.017 813.319 143.044 809.212V809.175Z" fill="#CEEAF2"/>
<path d="M311.052 769.422C233.875 712.517 162.578 642.42 96.468 572.477C60.4999 534.431 24.6765 494.772 -4.58344 451.502C-28.7127 415.769 -47.065 378.567 -36.5369 339.208C-31.2334 319.357 -16.3111 307.847 1.67207 327.509C16.5346 343.752 26.0037 368.097 29.298 388.296C37.8953 441.35 -18.9597 484.219 -53.3025 508.863C-153.286 580.706 -283.4 624.811 -411.905 638.379C-485.865 646.182 -563.413 642.192 -639.297 614.068C-714.437 586.195 -782.518 537.983 -838.798 476.791C-861.907 451.672 -894.701 482.071 -871.559 507.226C-814.474 569.284 -745.819 619.517 -670.544 651.5C-592.284 684.744 -511.583 694.14 -433.373 690.12C-282.215 682.33 -129.777 629.923 -14.7141 545.886C29.0932 513.862 85.6415 462.001 78.1896 396.455C72.7695 348.651 39.35 274.49 -16.6099 267.386C-84.8494 258.715 -97.6748 345.989 -81.977 399.976C-68.1484 447.497 -31.9793 492.348 -0.0747906 531.144C47.596 589.107 100.782 642.82 155.413 694.184C198.093 734.331 242.076 774.477 289.034 809.103C316.288 829.228 338.305 789.548 311.021 769.45L311.052 769.422Z" fill="#FBEAC7"/>
<path d="M26.375 26.2891H26.5234C27.1484 26.2891 27.6849 26.2135 28.1328 26.0625C28.5859 25.9062 28.9583 25.6823 29.25 25.3906C29.5417 25.099 29.7578 24.7422 29.8984 24.3203C30.0391 23.8932 30.1094 23.4089 30.1094 22.8672V20.7109C30.1094 20.2995 30.0677 19.9375 29.9844 19.625C29.9062 19.3125 29.7917 19.0547 29.6406 18.8516C29.4948 18.6432 29.3229 18.487 29.125 18.3828C28.9323 18.2786 28.7188 18.2266 28.4844 18.2266C28.2344 18.2266 28.013 18.2891 27.8203 18.4141C27.6276 18.5339 27.4635 18.6979 27.3281 18.9062C27.1979 19.1146 27.0964 19.3542 27.0234 19.625C26.9557 19.8906 26.9219 20.1693 26.9219 20.4609C26.9219 20.7526 26.9557 21.0312 27.0234 21.2969C27.0911 21.5573 27.1927 21.7891 27.3281 21.9922C27.4635 22.1901 27.6328 22.349 27.8359 22.4688C28.0391 22.5833 28.2786 22.6406 28.5547 22.6406C28.8203 22.6406 29.0573 22.5911 29.2656 22.4922C29.4792 22.388 29.6589 22.2526 29.8047 22.0859C29.9557 21.9193 30.0703 21.7344 30.1484 21.5312C30.2318 21.3281 30.2734 21.1224 30.2734 20.9141L31.0156 21.3203C31.0156 21.6849 30.9375 22.0443 30.7812 22.3984C30.625 22.7526 30.4062 23.0755 30.125 23.3672C29.849 23.6536 29.5286 23.8828 29.1641 24.0547C28.7995 24.2266 28.4089 24.3125 27.9922 24.3125C27.4609 24.3125 26.9896 24.2161 26.5781 24.0234C26.1667 23.8255 25.8177 23.5547 25.5312 23.2109C25.25 22.862 25.0365 22.4557 24.8906 21.9922C24.7448 21.5286 24.6719 21.026 24.6719 20.4844C24.6719 19.9323 24.7604 19.4141 24.9375 18.9297C25.1198 18.4453 25.3776 18.0182 25.7109 17.6484C26.0495 17.2786 26.4531 16.9896 26.9219 16.7812C27.3958 16.5677 27.9219 16.4609 28.5 16.4609C29.0781 16.4609 29.6042 16.5729 30.0781 16.7969C30.5521 17.0208 30.9583 17.3385 31.2969 17.75C31.6354 18.1562 31.8958 18.6432 32.0781 19.2109C32.2656 19.7786 32.3594 20.4089 32.3594 21.1016V21.8828C32.3594 22.6224 32.2786 23.3099 32.1172 23.9453C31.9609 24.5807 31.724 25.1562 31.4062 25.6719C31.0938 26.1823 30.7031 26.6198 30.2344 26.9844C29.7708 27.349 29.2318 27.6276 28.6172 27.8203C28.0026 28.013 27.3151 28.1094 26.5547 28.1094H26.375V26.2891ZM34.2984 26.9141C34.2984 26.5807 34.413 26.3021 34.6422 26.0781C34.8766 25.8542 35.1865 25.7422 35.5719 25.7422C35.9573 25.7422 36.2646 25.8542 36.4937 26.0781C36.7281 26.3021 36.8453 26.5807 36.8453 26.9141C36.8453 27.2474 36.7281 27.526 36.4937 27.75C36.2646 27.974 35.9573 28.0859 35.5719 28.0859C35.1865 28.0859 34.8766 27.974 34.6422 27.75C34.413 27.526 34.2984 27.2474 34.2984 26.9141ZM34.2984 20.4688C34.2984 20.1354 34.413 19.8568 34.6422 19.6328C34.8766 19.4089 35.1865 19.2969 35.5719 19.2969C35.9573 19.2969 36.2646 19.4089 36.4937 19.6328C36.7281 19.8568 36.8453 20.1354 36.8453 20.4688C36.8453 20.8021 36.7281 21.0807 36.4937 21.3047C36.2646 21.5286 35.9573 21.6406 35.5719 21.6406C35.1865 21.6406 34.8766 21.5286 34.6422 21.3047C34.413 21.0807 34.2984 20.8021 34.2984 20.4688ZM46.7531 23.75V25.5156H38.5578L38.4484 24.1484L43.1906 16.625H44.9797L43.0422 19.8672L40.6828 23.75H46.7531ZM45.4641 16.625V28H43.2141V16.625H45.4641ZM53.6063 16.6016V28H51.3563V19.1953L48.6531 20.0547V18.2812L53.3641 16.6016H53.6063Z" fill="#13151D"/>
<path d="M300.749 24C301.302 24 301.749 24.4477 301.749 25V27C301.749 27.5523 301.302 28 300.749 28H299.749C299.197 28 298.749 27.5523 298.749 27V25C298.749 24.4477 299.197 24 299.749 24H300.749ZM305.749 22C306.302 22 306.749 22.4477 306.749 23V27C306.749 27.5523 306.302 28 305.749 28H304.749C304.197 28 303.749 27.5523 303.749 27V23C303.749 22.4477 304.197 22 304.749 22H305.749ZM310.749 20C311.302 20 311.749 20.4298 311.749 20.96V27.04C311.749 27.5702 311.302 28 310.749 28H309.749C309.197 28 308.749 27.5702 308.749 27.04V20.96C308.749 20.4298 309.197 20 309.749 20H310.749ZM315.749 18C316.302 18 316.749 18.4197 316.749 18.9375V27.0625C316.749 27.5803 316.302 28 315.749 28H314.749C314.197 28 313.749 27.5803 313.749 27.0625V18.9375C313.749 18.4197 314.197 18 314.749 18H315.749Z" fill="#13151D"/>
<path fill-rule="evenodd" clip-rule="evenodd" d="M327.176 25.9179C328.452 24.839 330.319 24.8391 331.595 25.9179C331.659 25.9759 331.697 26.058 331.698 26.1445C331.7 26.2308 331.666 26.3144 331.605 26.3749L329.608 28.3906C329.549 28.4497 329.469 28.4823 329.386 28.4824C329.303 28.4824 329.223 28.4496 329.164 28.3906L327.166 26.3749C327.105 26.3143 327.071 26.23 327.073 26.1435C327.074 26.0572 327.112 25.9758 327.176 25.9179ZM324.511 23.2284C327.259 20.6724 331.515 20.6723 334.263 23.2284C334.325 23.2883 334.361 23.3708 334.362 23.457C334.362 23.5431 334.328 23.6263 334.268 23.6874L333.113 24.8544C332.994 24.9732 332.802 24.976 332.68 24.8603C331.778 24.0431 330.603 23.5908 329.386 23.5908C328.169 23.5913 326.996 24.0436 326.094 24.8603C325.972 24.9762 325.779 24.9735 325.66 24.8544L324.506 23.6874C324.445 23.6263 324.412 23.5431 324.412 23.457C324.413 23.3708 324.449 23.2883 324.511 23.2284ZM321.846 20.5468C326.061 16.5076 332.711 16.5074 336.926 20.5468C336.987 20.6067 337.021 20.6889 337.022 20.7743C337.022 20.8599 336.988 20.9421 336.928 21.0029L335.772 22.1699C335.653 22.2893 335.46 22.2906 335.339 22.1728C333.733 20.6461 331.602 19.795 329.386 19.7949C327.17 19.7948 325.038 20.6459 323.432 22.1728C323.311 22.2908 323.118 22.2895 322.999 22.1699L321.843 21.0029C321.783 20.9421 321.749 20.8599 321.749 20.7743C321.75 20.6888 321.785 20.6067 321.846 20.5468Z" fill="#13151D"/>
<path opacity="0.35" d="M344.689 17H364.355C365.551 17 366.522 17.9704 366.522 19.167V26.833C366.522 28.0296 365.551 29 364.355 29H344.689C343.492 29 342.522 28.0296 342.522 26.833V19.167L342.532 18.9453C342.643 17.8527 343.567 17 344.689 17Z" stroke="#13151D"/>
<path opacity="0.4" d="M367.672 21.5V25.5C368.477 25.1612 369 24.3731 369 23.5C369 22.6269 368.477 21.8388 367.672 21.5Z" fill="#13151D"/>
<path d="M344.322 20.1663C344.322 19.43 344.918 18.833 345.655 18.833H363.188C363.925 18.833 364.521 19.43 364.521 20.1663V25.8297C364.521 26.5661 363.925 27.163 363.188 27.163H345.655C344.918 27.163 344.322 26.5661 344.322 25.8297V20.1663Z" fill="#13151D"/>
<path d="M435.348 163.687C427.873 153.354 414.644 143.187 401.378 141.068C403.783 139.134 405.985 137.642 408.464 135.874C417.697 129.335 425.708 121.378 431.98 111.966C434.367 108.392 435.977 104.653 436.624 100.582C437.827 93.0487 433.442 86.8045 425.93 85.3862C411.776 82.7338 395.254 95.8116 385.374 105.648C386.909 98.1693 388.075 91.4094 388.001 84.0784C387.927 75.3476 386.983 66.8562 383.69 58.8253C382.413 56.1545 380.933 53.6126 378.176 52.4522C375.42 51.2917 372.718 52.5258 370.424 54.3309C359.267 65.1616 356.917 82.6233 354.401 97.4878C348.962 84.852 342.671 69.7296 333.771 59.9305C329.368 55.0861 320.857 49.1366 315.029 55.4177C312.587 58.0517 311.31 61.3856 310.514 64.8853C306.721 81.3523 312.29 105.279 320.431 120.42C317.009 119.296 314.252 118.265 310.903 118.283C305.963 118.283 301.004 118.56 296.286 119.978C291.587 121.378 287.35 123.294 283.594 126.314C278.524 130.422 275.693 136.298 276.026 142.671C276.73 155.914 289.755 163.301 301.948 164.13C303.298 164.222 304.575 164.461 305.852 164.48C305.315 165.75 304.242 165.787 303.446 166.469C299.265 170.005 295.583 174.058 292.863 178.81C288.941 185.68 287.627 195.277 295.269 200.232C305.889 207.139 320.616 202.442 330.46 196.253C334.511 193.693 337.601 190.488 341.32 187.228L341.357 198.537C341.376 203.418 342.671 208.078 344.336 212.646C346.038 217.27 349.924 221.046 355.252 219.793C365.613 217.436 370.664 201.797 373.07 192.403C378.546 200.121 384.134 209.018 391.183 215.244C397.122 220.954 406.559 225.909 413.386 218.578C417.031 214.654 418.529 209.552 417.974 204.21C417.234 197.193 411.776 189.456 407.817 183.544C415.884 186.712 424.876 190.138 433.127 186.878C437.198 185.275 439.862 181.757 439.992 177.318C440.14 172.381 438.308 167.813 435.348 163.724V163.687Z" fill="#CEEAF2"/>
<g clip-path="url(#clip1_407_1506)">
<mask id="mask0_407_1506" style="mask-type:luminance" maskUnits="userSpaceOnUse" x="0" y="56" width="138" height="60">
<path d="M138 56H0V116H138V56Z" fill="white"/>
</mask>
<g mask="url(#mask0_407_1506)">
<path d="M15.8961 89.6745C15.8961 88.8825 16.2495 88.4118 17.0697 88.4118C18.1266 88.4118 18.5643 88.9994 20.4707 88.9994C22.8342 88.9994 24.3028 88.7234 25.483 88.23C25.7585 88.1164 25.8363 87.7659 25.6515 87.5354C23.9105 85.3703 15.9544 84.6691 15.9544 79.5761C15.9544 74.7622 23.8425 71.62 27.4509 71.62C29.0655 71.62 29.6491 72.5873 29.6491 73.6747C29.6491 74.5252 29.2081 75.142 28.1544 75.3497C23.0806 76.3203 19.913 78.0212 19.913 79.6085C19.913 82.134 29.9408 82.7507 29.9408 88.0353C29.9408 91.2359 26.3032 92.7323 20.85 92.7323C17.5657 92.7323 15.8928 91.382 15.8928 89.6778L15.8961 89.6745Z" fill="#13120E"/>
<path d="M30.7611 98.3837C30.7611 96.8872 31.4063 96.2413 31.4063 93.5406C31.4063 89.1941 30.0284 85.3767 29.8241 81.0627C29.795 80.1539 30.3234 79.5955 31.0853 79.5955C31.3188 78.362 32.5799 77.8914 34.9856 77.8914C40.3512 77.8914 44.7216 81.3257 44.7216 87.227C44.7216 90.4568 42.1701 93.2744 38.1531 93.2744C37.0962 93.2744 36.1592 93.0991 35.339 92.7453C35.3681 93.2744 35.3973 93.8035 35.3973 94.3294C35.3973 97.7053 34.9272 100.643 32.7583 100.643C31.7889 100.643 30.7644 99.9385 30.7644 98.3837H30.7611ZM34.6905 88.6066C35.3357 89.0188 36.1268 89.5155 37.563 89.5155C39.4402 89.5155 40.7306 88.7526 40.7306 86.6687C40.7306 83.5849 37.7673 81.7347 34.9532 81.7347C34.5998 81.7347 34.2496 81.7931 33.8962 81.8515C33.9254 81.9684 33.9254 82.056 33.9254 82.1761C33.9254 84.5263 34.308 86.581 34.6873 88.6066H34.6905Z" fill="#13120E"/>
<path d="M45.396 83.8739C45.396 79.7644 49.2379 76.3268 51.9645 76.3268C52.3179 76.3268 52.668 76.3852 52.9339 76.5313C53.2257 76.4729 53.4915 76.4436 53.7833 76.4436C58.4746 76.4436 61.292 79.2612 61.292 83.7537C61.292 88.2463 58.0369 91.6806 53.7833 91.6806C48.8845 91.6806 45.396 88.4216 45.396 83.8706V83.8739ZM53.6374 88.1619C55.9263 88.1619 57.4501 86.4285 57.4501 83.8446C57.4501 81.5237 56.1598 80.0565 54.1367 80.0565C53.1381 80.0565 52.6129 80.5564 51.8186 81.3484C50.94 82.2281 50.6741 82.6696 49.7955 82.6696C49.708 82.6696 49.5913 82.6696 49.5037 82.6404C49.3287 83.0526 49.2411 83.4908 49.2411 83.9323C49.2411 86.4869 50.9724 88.1619 53.6407 88.1619H53.6374Z" fill="#13120E"/>
<path d="M62.5498 85.3962C62.5498 81.2867 66.3917 77.8491 69.1183 77.8491C69.4717 77.8491 69.8218 77.9076 70.0877 78.0536C70.3795 77.9952 70.6453 77.966 70.9371 77.966C75.6284 77.966 78.4458 80.7836 78.4458 85.2761C78.4458 89.7686 75.1908 93.2029 70.9371 93.2029C66.0383 93.2029 62.5498 89.9439 62.5498 85.3929V85.3962ZM70.7912 89.6842C73.0802 89.6842 74.6039 87.9508 74.6039 85.367C74.6039 83.046 73.3136 81.5788 71.2905 81.5788C70.2919 81.5788 69.7667 82.0787 68.9724 82.8708C68.0938 83.7504 67.8279 84.1919 66.9493 84.1919C66.8618 84.1919 66.7451 84.1919 66.6575 84.1627C66.4825 84.5749 66.3949 85.0132 66.3949 85.4546C66.3949 88.0093 68.1262 89.6842 70.7945 89.6842H70.7912Z" fill="#13120E"/>
<path d="M97.4154 73.6163C97.4154 72.2075 98.5015 71.3571 99.9961 71.3571C101.786 71.3571 102.839 72.7951 102.839 74.0286C102.839 75.0283 102.194 76.1417 100.463 76.1417C98.6441 76.1417 97.4121 75.0251 97.4121 73.6163H97.4154ZM98.0314 87.5484C98.0314 82.1469 97.9438 83.4518 97.9438 80.6927C97.9438 79.1378 98.6473 77.9043 100.379 77.9043C101.581 77.9043 102.343 78.6672 102.373 80.2837C102.402 82.3384 102.11 86.0844 102.11 88.2852C102.11 89.4019 101.494 90.2231 100.145 90.2231C98.6506 90.2231 98.0346 89.1357 98.0346 87.5516L98.0314 87.5484Z" fill="#13120E"/>
<path d="M104.221 88.6293C104.221 83.6953 108.533 78.0017 113.195 78.0017C114.485 78.0017 115.451 78.823 115.451 80.261C115.451 80.3486 115.451 80.4362 115.422 80.4947C115.51 80.4655 115.597 80.4655 115.685 80.4655C117.004 80.4655 118.003 81.3451 118.324 82.5494C119.173 85.5163 119.672 87.4834 121.725 89.8887C122.632 90.8885 121.812 93.2646 120.201 93.2646C119.526 93.2646 119.144 93.0017 118.852 92.6187C117.649 91.0638 116.742 89.6842 116.038 87.2757C114.427 91.7682 111.668 93.3523 109.087 93.3523C106.156 93.3523 104.217 91.4728 104.217 88.626L104.221 88.6293ZM108.033 89.509C108.354 89.6258 108.708 89.655 109.149 89.655C111.317 89.655 113.282 86.9543 114.077 81.845C114.106 81.6697 114.164 81.4945 114.222 81.3451C110.526 82.0787 108.004 85.5131 108.004 88.9214C108.004 89.1259 108.004 89.3337 108.033 89.509Z" fill="#13120E"/>
<path d="M95.7457 91.2326C95 89.905 94.4554 88.0028 94.4554 83.6856C94.4554 80.9264 93.2234 79.1638 90.7594 79.1638C88.2954 79.1638 85.7147 81.514 83.75 86.0941C83.9964 83.8803 85.5623 79.4365 82.518 79.3131C81.461 79.3131 80.9034 79.9007 80.9034 81.0757C80.9034 84.3932 80.054 85.8896 80.054 89.7979C80.054 92.5278 80.845 94.4949 82.6055 94.4949C83.6041 94.4949 84.1001 93.9658 84.5994 92.3525C85.9092 88.032 87.6145 84.7827 89.1351 83.4973C89.777 82.9552 90.7626 83.3934 90.821 84.2309C90.8502 84.6561 90.8664 85.1755 90.9053 85.8312C91.1419 89.8336 91.6347 91.9662 92.6495 93.6217C95.6355 97.7929 97.8823 99.3543 103.935 100.036C105.67 100.231 107.417 100.15 109.145 99.8963C111.353 99.5717 113.525 99.8509 115.419 98.6921C116.456 98.0591 116.797 96.647 116.045 95.6895C115.422 94.8779 114.268 94.6832 113.47 95.3227C112.459 96.0433 110.513 96.1894 109.418 96.251C107.505 96.3549 105.589 96.3939 103.676 96.3679H103.631C101.254 96.3289 98.9781 95.3486 97.3635 93.6023C96.66 92.8394 96.1024 92.0539 95.7457 91.2359V91.2326Z" fill="#13120E"/>
</g>
</g>
<path d="M22.88 262H20.22L25.5 247.38H28.12L33.4 262H30.7L29.52 258.62H24.06L22.88 262ZM26.48 251.74L24.82 256.46H28.78L27.1 251.74C26.98 251.36 26.84 250.92 26.8 250.62C26.74 250.9 26.62 251.34 26.48 251.74ZM37.3333 262H34.9133V247.12H37.3333V262ZM44.3128 262.26C41.3728 262.26 39.3128 260.12 39.3128 257.06C39.3128 253.96 41.3328 251.82 44.2328 251.82C47.1928 251.82 49.0728 253.8 49.0728 256.88V257.62L41.6328 257.64C41.8128 259.38 42.7328 260.26 44.3528 260.26C45.6928 260.26 46.5728 259.74 46.8528 258.8H49.1128C48.6928 260.96 46.8928 262.26 44.3128 262.26ZM44.2528 253.82C42.8128 253.82 41.9328 254.6 41.6928 256.08H46.6528C46.6528 254.72 45.7128 253.82 44.2528 253.82ZM57.2256 252.08V254.34H56.3256C54.5656 254.34 53.4656 255.28 53.4656 257.2V262H51.0256V252.14H53.3256L53.4656 253.58C53.8856 252.6 54.8256 251.94 56.1456 251.94C56.4856 251.94 56.8256 251.98 57.2256 252.08ZM62.6278 262H60.1878V254.16H58.2878V252.12H60.1878V249.04H62.6278V252.12H64.5478V254.16H62.6278V262ZM70.387 262.26C67.447 262.26 65.387 260.12 65.387 257.06C65.387 253.96 67.407 251.82 70.307 251.82C73.267 251.82 75.147 253.8 75.147 256.88V257.62L67.707 257.64C67.887 259.38 68.807 260.26 70.427 260.26C71.767 260.26 72.647 259.74 72.927 258.8H75.187C74.767 260.96 72.967 262.26 70.387 262.26ZM70.327 253.82C68.887 253.82 68.007 254.6 67.767 256.08H72.727C72.727 254.72 71.787 253.82 70.327 253.82ZM76.3398 259H78.6598C78.6798 259.86 79.3198 260.4 80.4398 260.4C81.5798 260.4 82.1998 259.94 82.1998 259.22C82.1998 258.72 81.9398 258.36 81.0598 258.16L79.2798 257.74C77.4998 257.34 76.6398 256.5 76.6398 254.92C76.6398 252.98 78.2798 251.82 80.5598 251.82C82.7798 251.82 84.2798 253.1 84.2998 255.02H81.9798C81.9598 254.18 81.3998 253.64 80.4598 253.64C79.4998 253.64 78.9398 254.08 78.9398 254.82C78.9398 255.38 79.3798 255.74 80.2198 255.94L81.9998 256.36C83.6598 256.74 84.4998 257.5 84.4998 259.02C84.4998 261.02 82.7998 262.26 80.3598 262.26C77.8998 262.26 76.3398 260.94 76.3398 259ZM96.1683 262.26C93.2283 262.26 91.1683 260.12 91.1683 257.06C91.1683 253.96 93.1883 251.82 96.0883 251.82C99.0483 251.82 100.928 253.8 100.928 256.88V257.62L93.4883 257.64C93.6683 259.38 94.5883 260.26 96.2083 260.26C97.5483 260.26 98.4283 259.74 98.7083 258.8H100.968C100.548 260.96 98.7483 262.26 96.1683 262.26ZM96.1083 253.82C94.6683 253.82 93.7883 254.6 93.5483 256.08H98.5083C98.5083 254.72 97.5683 253.82 96.1083 253.82ZM106.143 262H103.703V254.16H101.803V252.12H103.703V249.04H106.143V252.12H108.063V254.16H106.143V262ZM114.391 257.04C114.391 253.98 116.411 251.82 119.331 251.82C122.031 251.82 123.871 253.32 124.131 255.7H121.691C121.411 254.58 120.591 254 119.431 254C117.871 254 116.831 255.18 116.831 257.04C116.831 258.9 117.791 260.06 119.351 260.06C120.571 260.06 121.431 259.46 121.691 258.38H124.151C123.851 260.68 121.931 262.26 119.351 262.26C116.351 262.26 114.391 260.18 114.391 257.04ZM125.387 257.04C125.387 253.96 127.607 251.84 130.667 251.84C133.727 251.84 135.947 253.96 135.947 257.04C135.947 260.12 133.727 262.24 130.667 262.24C127.607 262.24 125.387 260.12 125.387 257.04ZM127.827 257.04C127.827 258.84 128.987 260.06 130.667 260.06C132.347 260.06 133.507 258.84 133.507 257.04C133.507 255.24 132.347 254.02 130.667 254.02C128.987 254.02 127.827 255.24 127.827 257.04ZM140.321 262H137.881V252.12H140.141L140.341 253.4C140.961 252.4 142.161 251.82 143.501 251.82C145.981 251.82 147.261 253.36 147.261 255.92V262H144.821V256.5C144.821 254.84 144.001 254.04 142.741 254.04C141.241 254.04 140.321 255.08 140.321 256.68V262ZM148.781 259H151.101C151.121 259.86 151.761 260.4 152.881 260.4C154.021 260.4 154.641 259.94 154.641 259.22C154.641 258.72 154.381 258.36 153.501 258.16L151.721 257.74C149.941 257.34 149.081 256.5 149.081 254.92C149.081 252.98 150.721 251.82 153.001 251.82C155.221 251.82 156.721 253.1 156.741 255.02H154.421C154.401 254.18 153.841 253.64 152.901 253.64C151.941 253.64 151.381 254.08 151.381 254.82C151.381 255.38 151.821 255.74 152.661 255.94L154.441 256.36C156.101 256.74 156.941 257.5 156.941 259.02C156.941 261.02 155.241 262.26 152.801 262.26C150.341 262.26 148.781 260.94 148.781 259ZM163.219 262.26C160.279 262.26 158.219 260.12 158.219 257.06C158.219 253.96 160.239 251.82 163.139 251.82C166.099 251.82 167.979 253.8 167.979 256.88V257.62L160.539 257.64C160.719 259.38 161.639 260.26 163.259 260.26C164.599 260.26 165.479 259.74 165.759 258.8H168.019C167.599 260.96 165.799 262.26 163.219 262.26ZM163.159 253.82C161.719 253.82 160.839 254.6 160.599 256.08H165.559C165.559 254.72 164.619 253.82 163.159 253.82ZM171.152 250.14C170.312 250.14 169.652 249.48 169.652 248.66C169.652 247.84 170.312 247.2 171.152 247.2C171.952 247.2 172.612 247.84 172.612 248.66C172.612 249.48 171.952 250.14 171.152 250.14ZM169.932 262V252.12H172.372V262H169.932ZM177.353 262H174.933V247.12H177.353V262ZM179.152 259H181.472C181.492 259.86 182.132 260.4 183.252 260.4C184.392 260.4 185.012 259.94 185.012 259.22C185.012 258.72 184.752 258.36 183.872 258.16L182.092 257.74C180.312 257.34 179.452 256.5 179.452 254.92C179.452 252.98 181.092 251.82 183.372 251.82C185.592 251.82 187.092 253.1 187.112 255.02H184.792C184.772 254.18 184.212 253.64 183.272 253.64C182.312 253.64 181.752 254.08 181.752 254.82C181.752 255.38 182.192 255.74 183.032 255.94L184.812 256.36C186.472 256.74 187.312 257.5 187.312 259.02C187.312 261.02 185.612 262.26 183.172 262.26C180.712 262.26 179.152 260.94 179.152 259ZM194.561 266.58V252.12H196.821L196.981 253.62C197.581 252.48 198.881 251.82 200.381 251.82C203.161 251.82 205.001 253.84 205.001 256.94C205.001 260.02 203.321 262.26 200.381 262.26C198.901 262.26 197.621 261.68 197.001 260.68V266.58H194.561ZM197.021 257.06C197.021 258.84 198.121 260.06 199.801 260.06C201.521 260.06 202.541 258.82 202.541 257.06C202.541 255.3 201.521 254.04 199.801 254.04C198.121 254.04 197.021 255.28 197.021 257.06ZM211.364 262.26C208.424 262.26 206.364 260.12 206.364 257.06C206.364 253.96 208.384 251.82 211.284 251.82C214.244 251.82 216.124 253.8 216.124 256.88V257.62L208.684 257.64C208.864 259.38 209.784 260.26 211.404 260.26C212.744 260.26 213.624 259.74 213.904 258.8H216.164C215.744 260.96 213.944 262.26 211.364 262.26ZM211.304 253.82C209.864 253.82 208.984 254.6 208.744 256.08H213.704C213.704 254.72 212.764 253.82 211.304 253.82ZM224.276 252.08V254.34H223.376C221.616 254.34 220.516 255.28 220.516 257.2V262H218.076V252.14H220.376L220.516 253.58C220.936 252.6 221.876 251.94 223.196 251.94C223.536 251.94 223.876 251.98 224.276 252.08ZM225.168 259H227.488C227.508 259.86 228.148 260.4 229.268 260.4C230.408 260.4 231.028 259.94 231.028 259.22C231.028 258.72 230.768 258.36 229.888 258.16L228.108 257.74C226.328 257.34 225.468 256.5 225.468 254.92C225.468 252.98 227.108 251.82 229.388 251.82C231.608 251.82 233.108 253.1 233.128 255.02H230.808C230.788 254.18 230.228 253.64 229.288 253.64C228.328 253.64 227.768 254.08 227.768 254.82C227.768 255.38 228.208 255.74 229.048 255.94L230.828 256.36C232.488 256.74 233.328 257.5 233.328 259.02C233.328 261.02 231.628 262.26 229.188 262.26C226.728 262.26 225.168 260.94 225.168 259ZM234.606 257.04C234.606 253.96 236.826 251.84 239.886 251.84C242.946 251.84 245.166 253.96 245.166 257.04C245.166 260.12 242.946 262.24 239.886 262.24C236.826 262.24 234.606 260.12 234.606 257.04ZM237.046 257.04C237.046 258.84 238.206 260.06 239.886 260.06C241.566 260.06 242.726 258.84 242.726 257.04C242.726 255.24 241.566 254.02 239.886 254.02C238.206 254.02 237.046 255.24 237.046 257.04ZM249.54 262H247.1V252.12H249.36L249.56 253.4C250.18 252.4 251.38 251.82 252.72 251.82C255.2 251.82 256.48 253.36 256.48 255.92V262H254.04V256.5C254.04 254.84 253.22 254.04 251.96 254.04C250.46 254.04 249.54 255.08 249.54 256.68V262ZM261.317 262H258.877V252.12H261.137L261.337 253.4C261.957 252.4 263.157 251.82 264.497 251.82C266.977 251.82 268.257 253.36 268.257 255.92V262H265.817V256.5C265.817 254.84 264.997 254.04 263.737 254.04C262.237 254.04 261.317 255.08 261.317 256.68V262ZM273.595 262.26C271.495 262.26 270.215 261.04 270.215 259.18C270.215 257.36 271.535 256.22 273.875 256.04L276.835 255.82V255.6C276.835 254.26 276.035 253.72 274.795 253.72C273.355 253.72 272.555 254.32 272.555 255.36H270.475C270.475 253.22 272.235 251.82 274.915 251.82C277.575 251.82 279.215 253.26 279.215 256V262H277.075L276.895 260.54C276.475 261.56 275.135 262.26 273.595 262.26ZM274.395 260.42C275.895 260.42 276.855 259.52 276.855 258V257.48L274.795 257.64C273.275 257.78 272.695 258.28 272.695 259.08C272.695 259.98 273.295 260.42 274.395 260.42ZM284.072 262H281.652V247.12H284.072V262ZM287.851 250.14C287.011 250.14 286.351 249.48 286.351 248.66C286.351 247.84 287.011 247.2 287.851 247.2C288.651 247.2 289.311 247.84 289.311 248.66C289.311 249.48 288.651 250.14 287.851 250.14ZM286.631 262V252.12H289.071V262H286.631ZM290.832 259H293.152C293.172 259.86 293.812 260.4 294.932 260.4C296.072 260.4 296.692 259.94 296.692 259.22C296.692 258.72 296.432 258.36 295.552 258.16L293.772 257.74C291.992 257.34 291.132 256.5 291.132 254.92C291.132 252.98 292.772 251.82 295.052 251.82C297.272 251.82 298.772 253.1 298.792 255.02H296.472C296.452 254.18 295.892 253.64 294.952 253.64C293.992 253.64 293.432 254.08 293.432 254.82C293.432 255.38 293.872 255.74 294.712 255.94L296.492 256.36C298.152 256.74 298.992 257.5 298.992 259.02C298.992 261.02 297.292 262.26 294.852 262.26C292.392 262.26 290.832 260.94 290.832 259ZM308.11 247.98L306.15 250.94H304.35L305.85 247.98H308.11ZM305.27 262.26C302.33 262.26 300.27 260.12 300.27 257.06C300.27 253.96 302.29 251.82 305.19 251.82C308.15 251.82 310.03 253.8 310.03 256.88V257.62L302.59 257.64C302.77 259.38 303.69 260.26 305.31 260.26C306.65 260.26 307.53 259.74 307.81 258.8H310.07C309.65 260.96 307.85 262.26 305.27 262.26ZM305.21 253.82C303.77 253.82 302.89 254.6 302.65 256.08H307.61C307.61 254.72 306.67 253.82 305.21 253.82ZM311.223 259H313.543C313.563 259.86 314.203 260.4 315.323 260.4C316.463 260.4 317.083 259.94 317.083 259.22C317.083 258.72 316.823 258.36 315.943 258.16L314.163 257.74C312.383 257.34 311.523 256.5 311.523 254.92C311.523 252.98 313.163 251.82 315.443 251.82C317.663 251.82 319.163 253.1 319.183 255.02H316.863C316.843 254.18 316.283 253.64 315.343 253.64C314.383 253.64 313.823 254.08 313.823 254.82C313.823 255.38 314.263 255.74 315.103 255.94L316.883 256.36C318.543 256.74 319.383 257.5 319.383 259.02C319.383 261.02 317.683 262.26 315.243 262.26C312.783 262.26 311.223 260.94 311.223 259Z" fill="#13151B"/>
<path d="M22.544 308H21.392V296.544H25.664C27.984 296.544 29.392 297.824 29.392 299.856C29.392 301.504 28.528 302.656 27.056 303.056L29.504 308H28.224L25.888 303.248H22.544V308ZM22.544 297.584V302.208H25.696C27.28 302.208 28.208 301.344 28.208 299.888C28.208 298.4 27.232 297.584 25.664 297.584H22.544ZM34.0719 308.192C31.7999 308.192 30.2799 306.56 30.2799 304.128C30.2799 301.712 31.7839 300.048 33.9919 300.048C36.0879 300.048 37.5119 301.536 37.5119 303.728V304.272H31.3519C31.4319 306.16 32.4239 307.248 34.0879 307.248C35.3519 307.248 36.1679 306.704 36.4559 305.68H37.5119C37.0959 307.312 35.8959 308.192 34.0719 308.192ZM33.9919 300.992C32.5359 300.992 31.5759 301.952 31.3839 303.472H36.4079C36.4079 301.984 35.4479 300.992 33.9919 300.992ZM38.733 304.144C38.733 301.712 40.221 300.048 42.477 300.048C44.269 300.048 45.581 301.088 45.885 302.688H44.781C44.493 301.616 43.565 301.024 42.493 301.024C40.925 301.024 39.821 302.224 39.821 304.128C39.821 305.968 40.845 307.2 42.413 307.2C43.565 307.2 44.493 306.56 44.797 305.568H45.917C45.565 307.072 44.317 308.08 42.701 308.176L42.445 308.72C42.621 308.672 42.765 308.64 42.925 308.64C43.533 308.64 44.029 309.008 44.029 309.696C44.029 310.528 43.341 310.928 42.605 310.928C42.189 310.928 41.885 310.864 41.613 310.688V310.016C41.901 310.176 42.189 310.272 42.509 310.272C42.925 310.272 43.261 310.08 43.261 309.728C43.261 309.376 43.005 309.2 42.621 309.2C42.317 309.2 42.157 309.248 41.837 309.392L41.677 308.992L42.061 308.176C40.061 308.016 38.733 306.448 38.733 304.144ZM47.0455 304.128C47.0455 301.76 48.7095 300.048 50.9815 300.048C53.2535 300.048 54.9175 301.76 54.9175 304.128C54.9175 306.48 53.2535 308.192 50.9815 308.192C48.7095 308.192 47.0455 306.48 47.0455 304.128ZM48.1655 304.112C48.1655 305.936 49.3175 307.2 50.9815 307.2C52.6295 307.2 53.7975 305.936 53.7975 304.112C53.7975 302.32 52.6295 301.04 50.9815 301.04C49.3175 301.04 48.1655 302.32 48.1655 304.112ZM57.2273 298.128C56.7793 298.128 56.4113 297.76 56.4113 297.312C56.4113 296.864 56.7793 296.48 57.2273 296.48C57.6753 296.48 58.0593 296.864 58.0593 297.312C58.0593 297.76 57.6753 298.128 57.2273 298.128ZM56.6833 308V300.256H57.7873V308H56.6833ZM59.4335 305.824H60.4895C60.4895 306.72 61.1615 307.28 62.2495 307.28C63.4495 307.28 64.1535 306.768 64.1535 305.936C64.1535 305.296 63.8335 304.928 62.9215 304.704L61.5935 304.368C60.2495 304.032 59.5935 303.328 59.5935 302.272C59.5935 300.912 60.7295 300.048 62.3935 300.048C64.0255 300.048 65.0815 300.944 65.1295 302.384H64.0575C64.0255 301.488 63.4015 300.96 62.3615 300.96C61.2735 300.96 60.6655 301.424 60.6655 302.256C60.6655 302.848 61.0815 303.264 61.9295 303.472L63.2575 303.808C64.6015 304.144 65.2095 304.768 65.2095 305.888C65.2095 307.28 64.0255 308.192 62.2655 308.192C60.5215 308.192 59.4335 307.264 59.4335 305.824ZM74.5045 308.192C72.2485 308.192 70.9205 306.464 70.9205 304.144C70.9205 301.808 72.2485 300.048 74.5525 300.048C75.8325 300.048 76.8565 300.608 77.4005 301.728V296.336H78.5045V308H77.5445L77.4325 306.416C76.8885 307.616 75.8005 308.192 74.5045 308.192ZM74.6965 307.184C76.3925 307.184 77.3845 305.904 77.3845 304.112C77.3845 302.336 76.3925 301.04 74.6965 301.04C73.0165 301.04 72.0405 302.336 72.0405 304.112C72.0405 305.904 73.0165 307.184 74.6965 307.184ZM84.0563 308.192C81.7843 308.192 80.2643 306.56 80.2643 304.128C80.2643 301.712 81.7682 300.048 83.9763 300.048C86.0723 300.048 87.4963 301.536 87.4963 303.728V304.272H81.3363C81.4163 306.16 82.4083 307.248 84.0723 307.248C85.3363 307.248 86.1523 306.704 86.4403 305.68H87.4963C87.0803 307.312 85.8803 308.192 84.0563 308.192ZM83.9763 300.992C82.5203 300.992 81.5603 301.952 81.3683 303.472H86.3923C86.3923 301.984 85.4323 300.992 83.9763 300.992ZM88.6054 305.824H89.6614C89.6614 306.72 90.3334 307.28 91.4214 307.28C92.6214 307.28 93.3254 306.768 93.3254 305.936C93.3254 305.296 93.0054 304.928 92.0934 304.704L90.7654 304.368C89.4214 304.032 88.7654 303.328 88.7654 302.272C88.7654 300.912 89.9014 300.048 91.5654 300.048C93.1974 300.048 94.2534 300.944 94.3014 302.384H93.2294C93.1974 301.488 92.5734 300.96 91.5334 300.96C90.4454 300.96 89.8374 301.424 89.8374 302.256C89.8374 302.848 90.2534 303.264 91.1014 303.472L92.4294 303.808C93.7734 304.144 94.3814 304.768 94.3814 305.888C94.3814 307.28 93.1974 308.192 91.4374 308.192C89.6934 308.192 88.6054 307.264 88.6054 305.824ZM104.684 300.16V301.152H104.076C102.652 301.152 101.74 302.112 101.74 303.584V308H100.636V300.256H101.676L101.756 301.456C102.06 300.624 102.876 300.08 103.964 300.08C104.204 300.08 104.412 300.096 104.684 300.16ZM108.064 308.192C106.416 308.192 105.44 307.264 105.44 305.904C105.44 304.48 106.528 303.584 108.336 303.44L110.896 303.232V302.976C110.896 301.456 109.984 300.976 108.848 300.976C107.504 300.976 106.704 301.584 106.704 302.624H105.696C105.696 301.056 106.976 300.048 108.88 300.048C110.672 300.048 111.984 300.944 111.984 302.992V308H111.056L110.912 306.64C110.432 307.616 109.376 308.192 108.064 308.192ZM108.32 307.296C109.952 307.296 110.896 306.16 110.896 304.48V304.064L108.608 304.24C107.152 304.368 106.56 305.008 106.56 305.872C106.56 306.816 107.264 307.296 108.32 307.296ZM114.199 311.376V300.256H115.159L115.271 301.824C115.815 300.624 116.903 300.048 118.199 300.048C120.439 300.048 121.783 301.76 121.783 304.096C121.783 306.432 120.487 308.192 118.199 308.192C116.887 308.192 115.847 307.632 115.303 306.512V311.376H114.199ZM115.319 304.128C115.319 305.904 116.311 307.2 118.007 307.2C119.687 307.2 120.663 305.904 120.663 304.128C120.663 302.336 119.687 301.056 118.007 301.056C116.311 301.056 115.319 302.336 115.319 304.128ZM123.543 311.376V300.256H124.503L124.615 301.824C125.159 300.624 126.247 300.048 127.543 300.048C129.783 300.048 131.127 301.76 131.127 304.096C131.127 306.432 129.831 308.192 127.543 308.192C126.231 308.192 125.191 307.632 124.647 306.512V311.376H123.543ZM124.663 304.128C124.663 305.904 125.655 307.2 127.351 307.2C129.031 307.2 130.007 305.904 130.007 304.128C130.007 302.336 129.031 301.056 127.351 301.056C125.655 301.056 124.663 302.336 124.663 304.128ZM136.134 308.192C133.862 308.192 132.342 306.56 132.342 304.128C132.342 301.712 133.846 300.048 136.054 300.048C138.15 300.048 139.574 301.536 139.574 303.728V304.272H133.414C133.494 306.16 134.486 307.248 136.15 307.248C137.414 307.248 138.23 306.704 138.518 305.68H139.574C139.158 307.312 137.958 308.192 136.134 308.192ZM136.054 300.992C134.598 300.992 133.638 301.952 133.446 303.472H138.47C138.47 301.984 137.51 300.992 136.054 300.992ZM142.492 308H141.388V296.336H142.492V308ZM144.184 305.824H145.24C145.24 306.72 145.912 307.28 147 307.28C148.2 307.28 148.904 306.768 148.904 305.936C148.904 305.296 148.584 304.928 147.672 304.704L146.344 304.368C145 304.032 144.344 303.328 144.344 302.272C144.344 300.912 145.48 300.048 147.144 300.048C148.776 300.048 149.832 300.944 149.88 302.384H148.808C148.776 301.488 148.152 300.96 147.112 300.96C146.024 300.96 145.416 301.424 145.416 302.256C145.416 302.848 145.832 303.264 146.68 303.472L148.008 303.808C149.352 304.144 149.96 304.768 149.96 305.888C149.96 307.28 148.776 308.192 147.016 308.192C145.272 308.192 144.184 307.264 144.184 305.824ZM156.759 298.128C156.311 298.128 155.943 297.76 155.943 297.312C155.943 296.864 156.311 296.48 156.759 296.48C157.207 296.48 157.591 296.864 157.591 297.312C157.591 297.76 157.207 298.128 156.759 298.128ZM156.215 308V300.256H157.319V308H156.215ZM160.725 308H159.621V300.256H160.581L160.741 301.6C161.253 300.608 162.277 300.048 163.397 300.048C165.525 300.048 166.405 301.312 166.405 303.264V308H165.301V303.504C165.301 301.696 164.485 301.056 163.205 301.056C161.621 301.056 160.725 302.208 160.725 303.952V308ZM170.381 308H169.293V301.184H167.741V300.256H169.293V297.808H170.381V300.256H171.933V301.184H170.381V308ZM176.541 308.192C174.269 308.192 172.749 306.56 172.749 304.128C172.749 301.712 174.253 300.048 176.461 300.048C178.557 300.048 179.981 301.536 179.981 303.728V304.272H173.821C173.901 306.16 174.893 307.248 176.557 307.248C177.821 307.248 178.637 306.704 178.925 305.68H179.981C179.565 307.312 178.365 308.192 176.541 308.192ZM176.461 300.992C175.005 300.992 174.045 301.952 173.853 303.472H178.877C178.877 301.984 177.917 300.992 176.461 300.992ZM182.898 308H181.794V296.336H182.898V308ZM186.398 308H185.294V296.336H186.398V308ZM189.29 298.128C188.842 298.128 188.474 297.76 188.474 297.312C188.474 296.864 188.842 296.48 189.29 296.48C189.738 296.48 190.122 296.864 190.122 297.312C190.122 297.76 189.738 298.128 189.29 298.128ZM188.746 308V300.256H189.85V308H188.746ZM191.624 303.904C191.624 301.792 192.984 300.048 195.256 300.048C196.6 300.048 197.624 300.672 198.12 301.808L198.232 300.256H199.192V307.76C199.192 310.064 197.72 311.568 195.448 311.568C193.464 311.568 192.072 310.448 191.768 308.576H192.872C193.112 309.824 194.072 310.56 195.464 310.56C197.048 310.56 198.104 309.488 198.104 307.872V306.032C197.576 307.12 196.504 307.76 195.176 307.76C192.968 307.76 191.624 306.016 191.624 303.904ZM192.728 303.888C192.728 305.472 193.704 306.768 195.336 306.768C197.016 306.768 198.008 305.552 198.008 303.888C198.008 302.24 197.048 301.024 195.352 301.024C193.688 301.024 192.728 302.32 192.728 303.888ZM204.744 308.192C202.472 308.192 200.952 306.56 200.952 304.128C200.952 301.712 202.456 300.048 204.664 300.048C206.76 300.048 208.184 301.536 208.184 303.728V304.272H202.024C202.104 306.16 203.096 307.248 204.76 307.248C206.024 307.248 206.84 306.704 207.128 305.68H208.184C207.768 307.312 206.568 308.192 204.744 308.192ZM204.664 300.992C203.208 300.992 202.248 301.952 202.056 303.472H207.08C207.08 301.984 206.12 300.992 204.664 300.992ZM211.053 308H209.949V300.256H210.909L211.069 301.6C211.581 300.608 212.605 300.048 213.725 300.048C215.853 300.048 216.733 301.312 216.733 303.264V308H215.629V303.504C215.629 301.696 214.813 301.056 213.533 301.056C211.949 301.056 211.053 302.208 211.053 303.952V308ZM220.709 308H219.621V301.184H218.069V300.256H219.621V297.808H220.709V300.256H222.261V301.184H220.709V308ZM223.043 305.824H224.099C224.099 306.72 224.771 307.28 225.859 307.28C227.059 307.28 227.763 306.768 227.763 305.936C227.763 305.296 227.443 304.928 226.531 304.704L225.203 304.368C223.859 304.032 223.203 303.328 223.203 302.272C223.203 300.912 224.339 300.048 226.003 300.048C227.635 300.048 228.691 300.944 228.739 302.384H227.667C227.635 301.488 227.011 300.96 225.971 300.96C224.883 300.96 224.275 301.424 224.275 302.256C224.275 302.848 224.691 303.264 225.539 303.472L226.867 303.808C228.211 304.144 228.819 304.768 228.819 305.888C228.819 307.28 227.635 308.192 225.875 308.192C224.131 308.192 223.043 307.264 223.043 305.824ZM238.322 308.192C236.05 308.192 234.53 306.56 234.53 304.128C234.53 301.712 236.034 300.048 238.242 300.048C240.338 300.048 241.762 301.536 241.762 303.728V304.272H235.602C235.682 306.16 236.674 307.248 238.338 307.248C239.602 307.248 240.418 306.704 240.706 305.68H241.762C241.346 307.312 240.146 308.192 238.322 308.192ZM238.242 300.992C236.786 300.992 235.826 301.952 235.634 303.472H240.658C240.658 301.984 239.698 300.992 238.242 300.992ZM245.225 308H244.137V301.184H242.585V300.256H244.137V297.808H245.225V300.256H246.777V301.184H245.225V308ZM255.692 308.192C253.436 308.192 252.108 306.464 252.108 304.144C252.108 301.808 253.436 300.048 255.74 300.048C257.02 300.048 258.044 300.608 258.588 301.728V296.336H259.692V308H258.732L258.62 306.416C258.076 307.616 256.988 308.192 255.692 308.192ZM255.884 307.184C257.58 307.184 258.572 305.904 258.572 304.112C258.572 302.336 257.58 301.04 255.884 301.04C254.204 301.04 253.228 302.336 253.228 304.112C253.228 305.904 254.204 307.184 255.884 307.184ZM265.244 308.192C262.972 308.192 261.452 306.56 261.452 304.128C261.452 301.712 262.956 300.048 265.164 300.048C267.26 300.048 268.684 301.536 268.684 303.728V304.272H262.524C262.604 306.16 263.596 307.248 265.26 307.248C266.524 307.248 267.34 306.704 267.628 305.68H268.684C268.268 307.312 267.068 308.192 265.244 308.192ZM265.164 300.992C263.708 300.992 262.748 301.952 262.556 303.472H267.58C267.58 301.984 266.62 300.992 265.164 300.992ZM269.793 305.824H270.849C270.849 306.72 271.521 307.28 272.609 307.28C273.809 307.28 274.513 306.768 274.513 305.936C274.513 305.296 274.193 304.928 273.281 304.704L271.953 304.368C270.609 304.032 269.953 303.328 269.953 302.272C269.953 300.912 271.089 300.048 272.753 300.048C274.385 300.048 275.441 300.944 275.489 302.384H274.417C274.385 301.488 273.761 300.96 272.721 300.96C271.633 300.96 271.025 301.424 271.025 302.256C271.025 302.848 271.441 303.264 272.289 303.472L273.617 303.808C274.961 304.144 275.569 304.768 275.569 305.888C275.569 307.28 274.385 308.192 272.625 308.192C270.881 308.192 269.793 307.264 269.793 305.824ZM25.2 332.16V333.152H24.592C23.168 333.152 22.256 334.112 22.256 335.584V340H21.152V332.256H22.192L22.272 333.456C22.576 332.624 23.392 332.08 24.48 332.08C24.72 332.08 24.928 332.096 25.2 332.16ZM29.6188 340.192C27.3468 340.192 25.8268 338.56 25.8268 336.128C25.8268 333.712 27.3307 332.048 29.5388 332.048C31.6348 332.048 33.0588 333.536 33.0588 335.728V336.272H26.8988C26.9788 338.16 27.9708 339.248 29.6348 339.248C30.8988 339.248 31.7148 338.704 32.0028 337.68H33.0588C32.6428 339.312 31.4428 340.192 29.6188 340.192ZM29.5388 332.992C28.0828 332.992 27.1228 333.952 26.9308 335.472H31.9548C31.9548 333.984 30.9948 332.992 29.5388 332.992ZM34.2799 336.144C34.2799 333.712 35.7679 332.048 38.0239 332.048C39.8159 332.048 41.1279 333.088 41.4319 334.688H40.3279C40.0399 333.616 39.1119 333.024 38.0399 333.024C36.4719 333.024 35.3679 334.224 35.3679 336.128C35.3679 337.968 36.3919 339.2 37.9599 339.2C39.1119 339.2 40.0399 338.56 40.3439 337.568H41.4639C41.0959 339.152 39.7199 340.192 37.9599 340.192C35.7679 340.192 34.2799 338.576 34.2799 336.144ZM42.5924 336.128C42.5924 333.76 44.2564 332.048 46.5284 332.048C48.8004 332.048 50.4644 333.76 50.4644 336.128C50.4644 338.48 48.8004 340.192 46.5284 340.192C44.2564 340.192 42.5924 338.48 42.5924 336.128ZM43.7124 336.112C43.7124 337.936 44.8644 339.2 46.5284 339.2C48.1764 339.2 49.3444 337.936 49.3444 336.112C49.3444 334.32 48.1764 333.04 46.5284 333.04C44.8644 333.04 43.7124 334.32 43.7124 336.112ZM53.3341 340H52.2301V332.256H53.1901L53.3181 333.36C53.7021 332.544 54.5661 332.048 55.6541 332.048C56.8701 332.048 57.7821 332.688 58.1501 333.696C58.5021 332.688 59.4461 332.048 60.6941 332.048C62.3741 332.048 63.4781 333.136 63.4781 334.928V340H62.4061V335.152C62.4061 333.824 61.6701 333.04 60.4861 333.04C59.1901 333.04 58.4221 334.016 58.4221 335.216V340H57.3341V335.136C57.3341 333.824 56.5821 333.056 55.4141 333.056C54.1181 333.056 53.3341 334.016 53.3341 335.2V340ZM66.8029 340H65.6989V332.256H66.6589L66.7869 333.36C67.1709 332.544 68.0349 332.048 69.1229 332.048C70.3389 332.048 71.2509 332.688 71.6189 333.696C71.9709 332.688 72.9149 332.048 74.1629 332.048C75.8429 332.048 76.9469 333.136 76.9469 334.928V340H75.8749V335.152C75.8749 333.824 75.1389 333.04 73.9549 333.04C72.6589 333.04 71.8909 334.016 71.8909 335.216V340H70.8029V335.136C70.8029 333.824 70.0509 333.056 68.8829 333.056C67.5869 333.056 66.8029 334.016 66.8029 335.2V340ZM81.3916 340.192C79.7436 340.192 78.7676 339.264 78.7676 337.904C78.7676 336.48 79.8556 335.584 81.6636 335.44L84.2236 335.232V334.976C84.2236 333.456 83.3116 332.976 82.1756 332.976C80.8316 332.976 80.0316 333.584 80.0316 334.624H79.0236C79.0236 333.056 80.3036 332.048 82.2076 332.048C83.9996 332.048 85.3116 332.944 85.3116 334.992V340H84.3836L84.2396 338.64C83.7596 339.616 82.7036 340.192 81.3916 340.192ZM81.6476 339.296C83.2796 339.296 84.2236 338.16 84.2236 336.48V336.064L81.9356 336.24C80.4796 336.368 79.8876 337.008 79.8876 337.872C79.8876 338.816 80.5916 339.296 81.6476 339.296ZM88.631 340H87.527V332.256H88.487L88.647 333.6C89.159 332.608 90.183 332.048 91.303 332.048C93.431 332.048 94.311 333.312 94.311 335.264V340H93.207V335.504C93.207 333.696 92.391 333.056 91.111 333.056C89.527 333.056 88.631 334.208 88.631 335.952V340ZM99.5514 340.192C97.2954 340.192 95.9674 338.464 95.9674 336.144C95.9674 333.808 97.2954 332.048 99.5994 332.048C100.879 332.048 101.903 332.608 102.447 333.728V328.336H103.551V340H102.591L102.479 338.416C101.935 339.616 100.847 340.192 99.5514 340.192ZM99.7434 339.184C101.439 339.184 102.431 337.904 102.431 336.112C102.431 334.336 101.439 333.04 99.7434 333.04C98.0634 333.04 97.0874 334.336 97.0874 336.112C97.0874 337.904 98.0634 339.184 99.7434 339.184ZM108.079 340.192C106.431 340.192 105.455 339.264 105.455 337.904C105.455 336.48 106.543 335.584 108.351 335.44L110.911 335.232V334.976C110.911 333.456 109.999 332.976 108.863 332.976C107.519 332.976 106.719 333.584 106.719 334.624H105.711C105.711 333.056 106.991 332.048 108.895 332.048C110.687 332.048 111.999 332.944 111.999 334.992V340H111.071L110.927 338.64C110.447 339.616 109.391 340.192 108.079 340.192ZM108.335 339.296C109.967 339.296 110.911 338.16 110.911 336.48V336.064L108.623 336.24C107.167 336.368 106.575 337.008 106.575 337.872C106.575 338.816 107.279 339.296 108.335 339.296ZM115.85 340H114.762V333.184H113.21V332.256H114.762V329.808H115.85V332.256H117.402V333.184H115.85V340ZM119.384 330.128C118.936 330.128 118.568 329.76 118.568 329.312C118.568 328.864 118.936 328.48 119.384 328.48C119.832 328.48 120.216 328.864 120.216 329.312C120.216 329.76 119.832 330.128 119.384 330.128ZM118.84 340V332.256H119.944V340H118.84ZM121.702 336.128C121.702 333.76 123.366 332.048 125.638 332.048C127.91 332.048 129.574 333.76 129.574 336.128C129.574 338.48 127.91 340.192 125.638 340.192C123.366 340.192 121.702 338.48 121.702 336.128ZM122.822 336.112C122.822 337.936 123.974 339.2 125.638 339.2C127.286 339.2 128.454 337.936 128.454 336.112C128.454 334.32 127.286 333.04 125.638 333.04C123.974 333.04 122.822 334.32 122.822 336.112ZM132.444 340H131.34V332.256H132.299L132.46 333.6C132.972 332.608 133.996 332.048 135.116 332.048C137.244 332.048 138.124 333.312 138.124 335.264V340H137.02V335.504C137.02 333.696 136.204 333.056 134.924 333.056C133.34 333.056 132.444 334.208 132.444 335.952V340ZM139.574 337.824H140.63C140.63 338.72 141.302 339.28 142.39 339.28C143.59 339.28 144.294 338.768 144.294 337.936C144.294 337.296 143.974 336.928 143.062 336.704L141.734 336.368C140.39 336.032 139.734 335.328 139.734 334.272C139.734 332.912 140.87 332.048 142.534 332.048C144.166 332.048 145.222 332.944 145.27 334.384H144.198C144.166 333.488 143.542 332.96 142.502 332.96C141.414 332.96 140.806 333.424 140.806 334.256C140.806 334.848 141.222 335.264 142.07 335.472L143.398 335.808C144.742 336.144 145.35 336.768 145.35 337.888C145.35 339.28 144.166 340.192 142.406 340.192C140.662 340.192 139.574 339.264 139.574 337.824ZM153.829 340.192C152.181 340.192 151.205 339.264 151.205 337.904C151.205 336.48 152.293 335.584 154.101 335.44L156.661 335.232V334.976C156.661 333.456 155.749 332.976 154.613 332.976C153.269 332.976 152.469 333.584 152.469 334.624H151.461C151.461 333.056 152.741 332.048 154.645 332.048C156.437 332.048 157.749 332.944 157.749 334.992V340H156.821L156.677 338.64C156.197 339.616 155.141 340.192 153.829 340.192ZM154.085 339.296C155.717 339.296 156.661 338.16 156.661 336.48V336.064L154.373 336.24C152.917 336.368 152.325 337.008 152.325 337.872C152.325 338.816 153.029 339.296 154.085 339.296ZM161.117 340H160.013V328.336H161.117V340ZM164.009 330.128C163.561 330.128 163.193 329.76 163.193 329.312C163.193 328.864 163.561 328.48 164.009 328.48C164.457 328.48 164.841 328.864 164.841 329.312C164.841 329.76 164.457 330.128 164.009 330.128ZM163.465 340V332.256H164.569V340H163.465ZM167.975 340H166.871V332.256H167.831L167.959 333.36C168.343 332.544 169.207 332.048 170.295 332.048C171.511 332.048 172.423 332.688 172.791 333.696C173.143 332.688 174.087 332.048 175.335 332.048C177.015 332.048 178.119 333.136 178.119 334.928V340H177.047V335.152C177.047 333.824 176.311 333.04 175.127 333.04C173.831 333.04 173.063 334.016 173.063 335.216V340H171.975V335.136C171.975 333.824 171.223 333.056 170.055 333.056C168.759 333.056 167.975 334.016 167.975 335.2V340ZM183.588 340.192C181.316 340.192 179.796 338.56 179.796 336.128C179.796 333.712 181.299 332.048 183.508 332.048C185.604 332.048 187.028 333.536 187.028 335.728V336.272H180.868C180.948 338.16 181.94 339.248 183.604 339.248C184.868 339.248 185.684 338.704 185.972 337.68H187.028C186.612 339.312 185.412 340.192 183.588 340.192ZM183.508 332.992C182.052 332.992 181.092 333.952 180.9 335.472H185.924C185.924 333.984 184.964 332.992 183.508 332.992ZM189.897 340H188.793V332.256H189.753L189.913 333.6C190.425 332.608 191.449 332.048 192.569 332.048C194.697 332.048 195.577 333.312 195.577 335.264V340H194.473V335.504C194.473 333.696 193.657 333.056 192.377 333.056C190.793 333.056 189.897 334.208 189.897 335.952V340ZM199.553 340H198.465V333.184H196.913V332.256H198.465V329.808H199.553V332.256H201.105V333.184H199.553V340ZM204.642 340.192C202.994 340.192 202.018 339.264 202.018 337.904C202.018 336.48 203.106 335.584 204.914 335.44L207.474 335.232V334.976C207.474 333.456 206.562 332.976 205.426 332.976C204.082 332.976 203.282 333.584 203.282 334.624H202.274C202.274 333.056 203.554 332.048 205.458 332.048C207.25 332.048 208.562 332.944 208.562 334.992V340H207.634L207.49 338.64C207.01 339.616 205.954 340.192 204.642 340.192ZM204.898 339.296C206.53 339.296 207.474 338.16 207.474 336.48V336.064L205.186 336.24C203.73 336.368 203.138 337.008 203.138 337.872C203.138 338.816 203.842 339.296 204.898 339.296ZM211.321 330.128C210.873 330.128 210.505 329.76 210.505 329.312C210.505 328.864 210.873 328.48 211.321 328.48C211.769 328.48 212.153 328.864 212.153 329.312C212.153 329.76 211.769 330.128 211.321 330.128ZM210.777 340V332.256H211.881V340H210.777ZM218.231 332.16V333.152H217.623C216.199 333.152 215.287 334.112 215.287 335.584V340H214.183V332.256H215.223L215.303 333.456C215.607 332.624 216.423 332.08 217.511 332.08C217.751 332.08 217.959 332.096 218.231 332.16ZM222.65 340.192C220.378 340.192 218.858 338.56 218.858 336.128C218.858 333.712 220.362 332.048 222.57 332.048C224.666 332.048 226.09 333.536 226.09 335.728V336.272H219.93C220.01 338.16 221.002 339.248 222.666 339.248C223.93 339.248 224.746 338.704 225.034 337.68H226.09C225.674 339.312 224.474 340.192 222.65 340.192ZM222.57 332.992C221.114 332.992 220.154 333.952 219.962 335.472H224.986C224.986 333.984 224.026 332.992 222.57 332.992ZM227.199 337.824H228.255C228.255 338.72 228.927 339.28 230.015 339.28C231.215 339.28 231.919 338.768 231.919 337.936C231.919 337.296 231.599 336.928 230.687 336.704L229.359 336.368C228.015 336.032 227.359 335.328 227.359 334.272C227.359 332.912 228.495 332.048 230.159 332.048C231.791 332.048 232.847 332.944 232.895 334.384H231.823C231.791 333.488 231.167 332.96 230.127 332.96C229.039 332.96 228.431 333.424 228.431 334.256C228.431 334.848 228.847 335.264 229.695 335.472L231.023 335.808C232.367 336.144 232.975 336.768 232.975 337.888C232.975 339.28 231.791 340.192 230.031 340.192C228.287 340.192 227.199 339.264 227.199 337.824ZM241.454 340.192C239.806 340.192 238.83 339.264 238.83 337.904C238.83 336.48 239.918 335.584 241.726 335.44L244.286 335.232V334.976C244.286 333.456 243.374 332.976 242.238 332.976C240.894 332.976 240.094 333.584 240.094 334.624H239.086C239.086 333.056 240.366 332.048 242.27 332.048C244.062 332.048 245.374 332.944 245.374 334.992V340H244.446L244.302 338.64C243.822 339.616 242.766 340.192 241.454 340.192ZM241.71 339.296C243.342 339.296 244.286 338.16 244.286 336.48V336.064L241.998 336.24C240.542 336.368 239.95 337.008 239.95 337.872C239.95 338.816 240.654 339.296 241.71 339.296ZM250.63 340.192C248.374 340.192 247.046 338.464 247.046 336.144C247.046 333.808 248.374 332.048 250.678 332.048C251.958 332.048 252.982 332.608 253.526 333.728V328.336H254.63V340H253.67L253.558 338.416C253.014 339.616 251.926 340.192 250.63 340.192ZM250.822 339.184C252.518 339.184 253.51 337.904 253.51 336.112C253.51 334.336 252.518 333.04 250.822 333.04C249.142 333.04 248.166 334.336 248.166 336.112C248.166 337.904 249.142 339.184 250.822 339.184ZM259.157 340.192C257.509 340.192 256.533 339.264 256.533 337.904C256.533 336.48 257.621 335.584 259.429 335.44L261.989 335.232V334.976C261.989 333.456 261.077 332.976 259.941 332.976C258.597 332.976 257.797 333.584 257.797 334.624H256.789C256.789 333.056 258.069 332.048 259.973 332.048C261.765 332.048 263.077 332.944 263.077 334.992V340H262.149L262.005 338.64C261.525 339.616 260.469 340.192 259.157 340.192ZM259.413 339.296C261.045 339.296 261.989 338.16 261.989 336.48V336.064L259.701 336.24C258.245 336.368 257.653 337.008 257.653 337.872C257.653 338.816 258.357 339.296 259.413 339.296ZM265.293 343.376V332.256H266.253L266.365 333.824C266.909 332.624 267.997 332.048 269.293 332.048C271.533 332.048 272.877 333.76 272.877 336.096C272.877 338.432 271.581 340.192 269.293 340.192C267.981 340.192 266.941 339.632 266.397 338.512V343.376H265.293ZM266.413 336.128C266.413 337.904 267.405 339.2 269.101 339.2C270.781 339.2 271.757 337.904 271.757 336.128C271.757 334.336 270.781 333.056 269.101 333.056C267.405 333.056 266.413 334.336 266.413 336.128ZM276.334 340H275.246V333.184H273.694V332.256H275.246V329.808H276.334V332.256H277.886V333.184H276.334V340ZM284.126 329.456L282.91 331.36H281.998L282.974 329.456H284.126ZM282.494 340.192C280.222 340.192 278.702 338.56 278.702 336.128C278.702 333.712 280.206 332.048 282.414 332.048C284.51 332.048 285.934 333.536 285.934 335.728V336.272H279.774C279.854 338.16 280.846 339.248 282.51 339.248C283.774 339.248 284.59 338.704 284.878 337.68H285.934C285.518 339.312 284.318 340.192 282.494 340.192ZM282.414 332.992C280.958 332.992 279.998 333.952 279.806 335.472H284.83C284.83 333.984 283.87 332.992 282.414 332.992ZM290.947 340.192C288.675 340.192 287.155 338.56 287.155 336.128C287.155 333.712 288.659 332.048 290.867 332.048C292.963 332.048 294.387 333.536 294.387 335.728V336.272H288.227C288.307 338.16 289.299 339.248 290.963 339.248C292.227 339.248 293.043 338.704 293.331 337.68H294.387C293.971 339.312 292.771 340.192 290.947 340.192ZM290.867 332.992C289.411 332.992 288.451 333.952 288.259 335.472H293.283C293.283 333.984 292.323 332.992 290.867 332.992ZM295.496 337.824H296.552C296.552 338.72 297.224 339.28 298.312 339.28C299.512 339.28 300.216 338.768 300.216 337.936C300.216 337.296 299.896 336.928 298.984 336.704L297.656 336.368C296.312 336.032 295.656 335.328 295.656 334.272C295.656 332.912 296.792 332.048 298.456 332.048C300.088 332.048 301.144 332.944 301.192 334.384H300.12C300.088 333.488 299.464 332.96 298.424 332.96C297.336 332.96 296.728 333.424 296.728 334.256C296.728 334.848 297.144 335.264 297.992 335.472L299.32 335.808C300.664 336.144 301.272 336.768 301.272 337.888C301.272 339.28 300.088 340.192 298.328 340.192C296.584 340.192 295.496 339.264 295.496 337.824ZM311.031 331.36H310.135L308.935 329.44H310.103L311.031 331.36ZM309.751 340.192C308.103 340.192 307.127 339.264 307.127 337.904C307.127 336.48 308.215 335.584 310.023 335.44L312.583 335.232V334.976C312.583 333.456 311.671 332.976 310.535 332.976C309.191 332.976 308.391 333.584 308.391 334.624H307.383C307.383 333.056 308.663 332.048 310.567 332.048C312.359 332.048 313.671 332.944 313.671 334.992V340H312.743L312.599 338.64C312.119 339.616 311.063 340.192 309.751 340.192ZM310.007 339.296C311.639 339.296 312.583 338.16 312.583 336.48V336.064L310.295 336.24C308.839 336.368 308.247 337.008 308.247 337.872C308.247 338.816 308.951 339.296 310.007 339.296ZM322.1 340H321.012V333.184H319.46V332.256H321.012V329.808H322.1V332.256H323.652V333.184H322.1V340ZM327.189 340.192C325.541 340.192 324.565 339.264 324.565 337.904C324.565 336.48 325.653 335.584 327.461 335.44L330.021 335.232V334.976C330.021 333.456 329.109 332.976 327.973 332.976C326.629 332.976 325.829 333.584 325.829 334.624H324.821C324.821 333.056 326.101 332.048 328.005 332.048C329.797 332.048 331.109 332.944 331.109 334.992V340H330.181L330.037 338.64C329.557 339.616 328.501 340.192 327.189 340.192ZM327.445 339.296C329.077 339.296 330.021 338.16 330.021 336.48V336.064L327.733 336.24C326.277 336.368 325.685 337.008 325.685 337.872C325.685 338.816 326.389 339.296 327.445 339.296ZM21.152 375.376V364.256H22.112L22.224 365.824C22.768 364.624 23.856 364.048 25.152 364.048C27.392 364.048 28.736 365.76 28.736 368.096C28.736 370.432 27.44 372.192 25.152 372.192C23.84 372.192 22.8 371.632 22.256 370.512V375.376H21.152ZM22.272 368.128C22.272 369.904 23.264 371.2 24.96 371.2C26.64 371.2 27.616 369.904 27.616 368.128C27.616 366.336 26.64 365.056 24.96 365.056C23.264 365.056 22.272 366.336 22.272 368.128ZM32.7198 372.192C31.0718 372.192 30.0958 371.264 30.0958 369.904C30.0958 368.48 31.1838 367.584 32.9918 367.44L35.5518 367.232V366.976C35.5518 365.456 34.6398 364.976 33.5038 364.976C32.1598 364.976 31.3598 365.584 31.3598 366.624H30.3518C30.3518 365.056 31.6318 364.048 33.5358 364.048C35.3278 364.048 36.6398 364.944 36.6398 366.992V372H35.7118L35.5678 370.64C35.0878 371.616 34.0318 372.192 32.7198 372.192ZM32.9758 371.296C34.6078 371.296 35.5518 370.16 35.5518 368.48V368.064L33.2638 368.24C31.8078 368.368 31.2158 369.008 31.2158 369.872C31.2158 370.816 31.9198 371.296 32.9758 371.296ZM40.4905 372H39.4025V365.184H37.8505V364.256H39.4025V361.808H40.4905V364.256H42.0425V365.184H40.4905V372ZM44.5841 371.984H43.4801V360.336H44.5841V365.6C45.0801 364.672 46.0241 364.048 47.3201 364.048C49.3521 364.048 50.2641 365.312 50.2641 367.264V372H49.1601V367.504C49.1601 365.696 48.3121 365.056 47.1121 365.056C45.4481 365.056 44.5841 366.288 44.5841 367.776V371.984ZM51.9205 368.128C51.9205 365.76 53.5845 364.048 55.8565 364.048C58.1285 364.048 59.7925 365.76 59.7925 368.128C59.7925 370.48 58.1285 372.192 55.8565 372.192C53.5845 372.192 51.9205 370.48 51.9205 368.128ZM53.0405 368.112C53.0405 369.936 54.1925 371.2 55.8565 371.2C57.5045 371.2 58.6725 369.936 58.6725 368.112C58.6725 366.32 57.5045 365.04 55.8565 365.04C54.1925 365.04 53.0405 366.32 53.0405 368.112ZM62.7103 372H61.6063V360.336H62.7103V372ZM64.5143 368.128C64.5143 365.76 66.1783 364.048 68.4503 364.048C70.7223 364.048 72.3863 365.76 72.3863 368.128C72.3863 370.48 70.7223 372.192 68.4503 372.192C66.1783 372.192 64.5143 370.48 64.5143 368.128ZM65.6343 368.112C65.6343 369.936 66.7863 371.2 68.4503 371.2C70.0983 371.2 71.2663 369.936 71.2663 368.112C71.2663 366.32 70.0983 365.04 68.4503 365.04C66.7863 365.04 65.6343 366.32 65.6343 368.112ZM73.624 367.904C73.624 365.792 74.984 364.048 77.256 364.048C78.6 364.048 79.624 364.672 80.12 365.808L80.232 364.256H81.192V371.76C81.192 374.064 79.72 375.568 77.448 375.568C75.464 375.568 74.072 374.448 73.768 372.576H74.872C75.112 373.824 76.072 374.56 77.464 374.56C79.048 374.56 80.104 373.488 80.104 371.872V370.032C79.576 371.12 78.504 371.76 77.176 371.76C74.968 371.76 73.624 370.016 73.624 367.904ZM74.728 367.888C74.728 369.472 75.704 370.768 77.336 370.768C79.016 370.768 80.008 369.552 80.008 367.888C80.008 366.24 79.048 365.024 77.352 365.024C75.688 365.024 74.728 366.32 74.728 367.888ZM84.0398 362.128C83.5918 362.128 83.2238 361.76 83.2238 361.312C83.2238 360.864 83.5918 360.48 84.0398 360.48C84.4878 360.48 84.8718 360.864 84.8718 361.312C84.8718 361.76 84.4878 362.128 84.0398 362.128ZM83.4958 372V364.256H84.5998V372H83.4958ZM90.15 372.192C87.878 372.192 86.358 370.56 86.358 368.128C86.358 365.712 87.862 364.048 90.07 364.048C92.166 364.048 93.59 365.536 93.59 367.728V368.272H87.43C87.51 370.16 88.502 371.248 90.166 371.248C91.43 371.248 92.246 370.704 92.534 369.68H93.59C93.174 371.312 91.974 372.192 90.15 372.192ZM90.07 364.992C88.614 364.992 87.654 365.952 87.462 367.472H92.486C92.486 365.984 91.526 364.992 90.07 364.992ZM102.705 374.512H101.697C100.353 372.672 99.4726 369.952 99.4726 367.2C99.4726 364.56 100.321 361.808 101.697 359.904H102.705C101.473 361.632 100.609 364.32 100.609 367.2C100.609 370.016 101.441 372.752 102.705 374.512ZM106.895 372.192C104.639 372.192 103.311 370.464 103.311 368.144C103.311 365.808 104.639 364.048 106.943 364.048C108.223 364.048 109.247 364.608 109.791 365.728V360.336H110.895V372H109.935L109.823 370.416C109.279 371.616 108.191 372.192 106.895 372.192ZM107.087 371.184C108.783 371.184 109.775 369.904 109.775 368.112C109.775 366.336 108.783 365.04 107.087 365.04C105.407 365.04 104.431 366.336 104.431 368.112C104.431 369.904 105.407 371.184 107.087 371.184ZM113.743 362.128C113.295 362.128 112.927 361.76 112.927 361.312C112.927 360.864 113.295 360.48 113.743 360.48C114.191 360.48 114.575 360.864 114.575 361.312C114.575 361.76 114.191 362.128 113.743 362.128ZM113.199 372V364.256H114.303V372H113.199ZM118.829 372.192C117.181 372.192 116.205 371.264 116.205 369.904C116.205 368.48 117.293 367.584 119.101 367.44L121.661 367.232V366.976C121.661 365.456 120.749 364.976 119.613 364.976C118.269 364.976 117.469 365.584 117.469 366.624H116.461C116.461 365.056 117.741 364.048 119.645 364.048C121.437 364.048 122.749 364.944 122.749 366.992V372H121.821L121.677 370.64C121.197 371.616 120.141 372.192 118.829 372.192ZM119.085 371.296C120.717 371.296 121.661 370.16 121.661 368.48V368.064L119.373 368.24C117.917 368.368 117.325 369.008 117.325 369.872C117.325 370.816 118.029 371.296 119.085 371.296ZM125.924 372H124.965V360.336H126.069V365.76C126.613 364.624 127.669 364.048 128.981 364.048C131.237 364.048 132.549 365.808 132.549 368.144C132.549 370.464 131.205 372.192 128.949 372.192C127.653 372.192 126.581 371.616 126.037 370.416L125.924 372ZM126.085 368.112C126.085 369.904 127.077 371.184 128.773 371.184C130.453 371.184 131.429 369.904 131.429 368.112C131.429 366.336 130.453 365.04 128.773 365.04C127.077 365.04 126.085 366.336 126.085 368.112ZM137.892 363.36H136.996L135.796 361.44H136.948L137.892 363.36ZM137.556 372.192C135.284 372.192 133.764 370.56 133.764 368.128C133.764 365.712 135.268 364.048 137.476 364.048C139.572 364.048 140.996 365.536 140.996 367.728V368.272H134.836C134.916 370.16 135.908 371.248 137.572 371.248C138.836 371.248 139.652 370.704 139.94 369.68H140.996C140.58 371.312 139.38 372.192 137.556 372.192ZM137.476 364.992C136.02 364.992 135.06 365.952 134.868 367.472H139.892C139.892 365.984 138.932 364.992 137.476 364.992ZM144.459 372H143.371V365.184H141.819V364.256H143.371V361.808H144.459V364.256H146.011V365.184H144.459V372ZM150.619 372.192C148.347 372.192 146.827 370.56 146.827 368.128C146.827 365.712 148.331 364.048 150.539 364.048C152.635 364.048 154.059 365.536 154.059 367.728V368.272H147.899C147.979 370.16 148.971 371.248 150.635 371.248C151.899 371.248 152.715 370.704 153.003 369.68H154.059C153.643 371.312 152.443 372.192 150.619 372.192ZM150.539 364.992C149.083 364.992 148.123 365.952 147.931 367.472H152.955C152.955 365.984 151.995 364.992 150.539 364.992ZM157.292 371.456C157.292 372.448 156.524 373.312 155.532 373.456V372.864C156.108 372.768 156.524 372.352 156.524 371.904C156.428 371.968 156.299 372.016 156.108 372.016C155.66 372.016 155.276 371.696 155.276 371.152C155.276 370.592 155.66 370.192 156.22 370.192C156.796 370.192 157.292 370.656 157.292 371.456ZM166.189 372.192C164.541 372.192 163.565 371.264 163.565 369.904C163.565 368.48 164.653 367.584 166.461 367.44L169.021 367.232V366.976C169.021 365.456 168.109 364.976 166.973 364.976C165.629 364.976 164.829 365.584 164.829 366.624H163.821C163.821 365.056 165.101 364.048 167.005 364.048C168.797 364.048 170.109 364.944 170.109 366.992V372H169.181L169.037 370.64C168.557 371.616 167.501 372.192 166.189 372.192ZM166.445 371.296C168.077 371.296 169.021 370.16 169.021 368.48V368.064L166.733 368.24C165.277 368.368 164.685 369.008 164.685 369.872C164.685 370.816 165.389 371.296 166.445 371.296ZM173.428 372H172.324V364.256H173.284L173.444 365.6C173.956 364.608 174.98 364.048 176.1 364.048C178.228 364.048 179.108 365.312 179.108 367.264V372H178.004V367.504C178.004 365.696 177.188 365.056 175.908 365.056C174.324 365.056 173.428 366.208 173.428 367.952V372ZM186.188 361.456L184.972 363.36H184.06L185.036 361.456H186.188ZM184.556 372.192C182.284 372.192 180.764 370.56 180.764 368.128C180.764 365.712 182.268 364.048 184.476 364.048C186.572 364.048 187.996 365.536 187.996 367.728V368.272H181.836C181.916 370.16 182.908 371.248 184.572 371.248C185.836 371.248 186.652 370.704 186.94 369.68H187.996C187.58 371.312 186.38 372.192 184.556 372.192ZM184.476 364.992C183.02 364.992 182.06 365.952 181.868 367.472H186.892C186.892 365.984 185.932 364.992 184.476 364.992ZM190.865 372H189.761V364.256H190.721L190.849 365.36C191.233 364.544 192.097 364.048 193.185 364.048C194.401 364.048 195.313 364.688 195.681 365.696C196.033 364.688 196.977 364.048 198.225 364.048C199.905 364.048 201.009 365.136 201.009 366.928V372H199.937V367.152C199.937 365.824 199.201 365.04 198.017 365.04C196.721 365.04 195.953 366.016 195.953 367.216V372H194.865V367.136C194.865 365.824 194.113 365.056 192.945 365.056C191.649 365.056 190.865 366.016 190.865 367.2V372ZM203.774 362.128C203.326 362.128 202.958 361.76 202.958 361.312C202.958 360.864 203.326 360.48 203.774 360.48C204.222 360.48 204.606 360.864 204.606 361.312C204.606 361.76 204.222 362.128 203.774 362.128ZM203.23 372V364.256H204.334V372H203.23ZM209.884 372.192C207.612 372.192 206.092 370.56 206.092 368.128C206.092 365.712 207.596 364.048 209.804 364.048C211.9 364.048 213.324 365.536 213.324 367.728V368.272H207.164C207.244 370.16 208.236 371.248 209.9 371.248C211.164 371.248 211.98 370.704 212.268 369.68H213.324C212.908 371.312 211.708 372.192 209.884 372.192ZM209.804 364.992C208.348 364.992 207.388 365.952 207.196 367.472H212.22C212.22 365.984 211.26 364.992 209.804 364.992ZM216.557 371.456C216.557 372.448 215.789 373.312 214.797 373.456V372.864C215.373 372.768 215.789 372.352 215.789 371.904C215.693 371.968 215.565 372.016 215.373 372.016C214.925 372.016 214.541 371.696 214.541 371.152C214.541 370.592 214.925 370.192 215.485 370.192C216.061 370.192 216.557 370.656 216.557 371.456ZM222.686 368.144C222.686 365.712 224.174 364.048 226.43 364.048C228.222 364.048 229.534 365.088 229.838 366.688H228.734C228.446 365.616 227.518 365.024 226.446 365.024C224.878 365.024 223.774 366.224 223.774 368.128C223.774 369.968 224.798 371.2 226.366 371.2C227.518 371.2 228.446 370.56 228.75 369.568H229.87C229.502 371.152 228.126 372.192 226.366 372.192C224.174 372.192 222.686 370.576 222.686 368.144ZM230.999 368.128C230.999 365.76 232.663 364.048 234.935 364.048C236.423 364.048 237.623 364.784 238.295 365.952C238.903 364.768 240.039 364.048 241.495 364.048C243.607 364.048 245.015 365.536 245.015 367.728V368.272H238.855C238.935 370.16 239.943 371.248 241.591 371.248C242.855 371.248 243.687 370.704 243.959 369.68H245.031C244.615 371.312 243.399 372.192 241.575 372.192C240.087 372.192 238.919 371.472 238.295 370.288C237.639 371.456 236.423 372.192 234.935 372.192C232.663 372.192 230.999 370.48 230.999 368.128ZM241.495 364.992C240.039 364.992 239.079 365.952 238.887 367.472H243.911C243.911 365.984 242.951 364.992 241.495 364.992ZM232.119 368.112C232.119 369.936 233.271 371.2 234.935 371.2C236.583 371.2 237.751 369.936 237.751 368.112C237.751 366.32 236.583 365.04 234.935 365.04C233.271 365.04 232.119 366.32 232.119 368.112ZM247.945 372H246.841V360.336H247.945V372ZM250.837 362.128C250.389 362.128 250.021 361.76 250.021 361.312C250.021 360.864 250.389 360.48 250.837 360.48C251.285 360.48 251.669 360.864 251.669 361.312C251.669 361.76 251.285 362.128 250.837 362.128ZM250.293 372V364.256H251.397V372H250.293ZM255.923 372.192C254.275 372.192 253.299 371.264 253.299 369.904C253.299 368.48 254.387 367.584 256.195 367.44L258.755 367.232V366.976C258.755 365.456 257.843 364.976 256.707 364.976C255.363 364.976 254.563 365.584 254.563 366.624H253.555C253.555 365.056 254.835 364.048 256.739 364.048C258.531 364.048 259.843 364.944 259.843 366.992V372H258.915L258.771 370.64C258.291 371.616 257.235 372.192 255.923 372.192ZM256.179 371.296C257.811 371.296 258.755 370.16 258.755 368.48V368.064L256.467 368.24C255.011 368.368 254.419 369.008 254.419 369.872C254.419 370.816 255.123 371.296 256.179 371.296ZM261.514 368.096C261.514 365.76 262.858 364.048 265.098 364.048C266.394 364.048 267.466 364.624 268.026 365.824L268.138 364.256H269.098V375.376H267.994V370.512C267.45 371.632 266.41 372.192 265.098 372.192C262.81 372.192 261.514 370.432 261.514 368.096ZM262.634 368.128C262.634 369.904 263.61 371.2 265.29 371.2C266.986 371.2 267.978 369.904 267.978 368.128C267.978 366.336 266.986 365.056 265.29 365.056C263.61 365.056 262.634 366.336 262.634 368.128ZM276.842 364.256H277.946V372H276.986L276.842 370.688C276.41 371.584 275.338 372.192 274.122 372.192C272.298 372.192 271.306 370.944 271.306 369.056V364.24H272.426V368.704C272.426 370.544 273.242 371.2 274.474 371.2C275.962 371.2 276.842 370.208 276.842 368.368V364.256ZM283.338 372.192C281.066 372.192 279.546 370.56 279.546 368.128C279.546 365.712 281.049 364.048 283.258 364.048C285.354 364.048 286.778 365.536 286.778 367.728V368.272H280.618C280.698 370.16 281.69 371.248 283.354 371.248C284.618 371.248 285.434 370.704 285.722 369.68H286.778C286.362 371.312 285.162 372.192 283.338 372.192ZM283.258 364.992C281.802 364.992 280.842 365.952 280.65 367.472H285.674C285.674 365.984 284.714 364.992 283.258 364.992ZM289.002 372.176C288.458 372.176 287.994 371.728 287.994 371.2C287.994 370.656 288.458 370.192 289.002 370.192C289.546 370.192 290.01 370.656 290.01 371.2C290.01 371.728 289.546 372.176 289.002 372.176ZM293.19 372.176C292.646 372.176 292.182 371.728 292.182 371.2C292.182 370.656 292.646 370.192 293.19 370.192C293.734 370.192 294.198 370.656 294.198 371.2C294.198 371.728 293.734 372.176 293.19 372.176ZM297.377 372.176C296.833 372.176 296.369 371.728 296.369 371.2C296.369 370.656 296.833 370.192 297.377 370.192C297.921 370.192 298.385 370.656 298.385 371.2C298.385 371.728 297.921 372.176 297.377 372.176ZM300.477 374.512H299.469C300.733 372.752 301.581 370.016 301.581 367.2C301.581 364.32 300.701 361.632 299.469 359.904H300.477C301.869 361.808 302.701 364.56 302.701 367.2C302.701 369.952 301.821 372.672 300.477 374.512ZM305.627 372.176C305.083 372.176 304.619 371.728 304.619 371.2C304.619 370.656 305.083 370.192 305.627 370.192C306.171 370.192 306.635 370.656 306.635 371.2C306.635 371.728 306.171 372.176 305.627 372.176Z" fill="#13151B"/>
<rect x="158" y="446" width="10" height="10" rx="5" fill="#C3CCD2"/>
<rect x="180" y="446" width="10" height="10" rx="5" fill="#C3CCD2"/>
<rect x="202" y="446" width="30" height="10" rx="5" fill="#F2762E"/>
</g>
<defs>
<clipPath id="clip0_407_1506">
<rect width="390" height="850" rx="24" fill="white"/>
</clipPath>
<clipPath id="clip1_407_1506">
<rect width="138" height="60" fill="white" transform="translate(0 56)"/>
</clipPath>
</defs>
</svg>
