<svg width="1288" height="858" viewBox="0 0 1288 858" fill="none" xmlns="http://www.w3.org/2000/svg">
<path d="M791.963 0H819.163C825.49 1.66596 839.521 1.12346 846.891 1.81926C866.627 3.74531 886.248 6.66359 905.688 10.563C1002.76 29.9611 1109.58 76.2897 1178.08 149.635C1204.29 177.704 1223.24 216.71 1242.31 249.902C1248.46 260.614 1255.71 272.603 1261.04 283.601C1280.11 322.777 1288.38 366.331 1285 409.771C1284.59 415.92 1284.05 422.399 1283.1 428.489C1279.53 451.336 1277.91 474.49 1272.73 497.064C1246.81 606.512 1179.07 701.453 1084.01 761.538C945.397 848.2 751.373 866.039 592.344 847.231C555.289 842.57 518.512 835.921 482.171 827.303C381.275 803.922 286.735 775.219 202.155 713.385C190.136 704.579 178.527 695.219 167.364 685.35C156.937 676.279 136.971 655.225 126.32 651.294C93.607 639.216 47.0465 640.103 12.8784 643.884C39.3073 616.534 61.9088 593.922 83.4986 561.691C67.9936 570.474 35.0977 611.361 20.7418 625.924C15.612 631.127 9.9037 638.153 3.8424 642.827C2.69898 643.708 1.47136 644.242 0 644.01V642.387C37.5593 598.181 82.92 560.594 116.746 513.79C129.671 495.906 142.58 463.872 153.078 443.297C172.078 406.066 193.294 370.009 216.613 335.32C276.048 247.785 347.487 175.576 439.804 123.189C452.348 116.07 464.517 108.45 477.51 102.049C487.039 97.3541 496.788 93.3698 506.519 89.1326L552.068 69.174C601.65 47.5282 650.629 26.7305 703.344 13.6584C722.846 8.75166 742.631 5.04683 762.593 2.56486C771.253 1.55741 783.925 1.72745 791.963 0ZM1073.33 693.187L1074.85 694.426C1060.45 705.089 1045.42 714.883 1029.87 723.764C1002.01 739.71 980.377 748.423 951.315 760.915C913.556 777.157 877.085 795.38 836.244 803.84C815.534 807.923 794.856 810.03 773.775 811.382C640.994 819.912 508.115 791.612 382.915 749.265C367.281 743.975 350.754 736.408 335.537 730.005L263.024 699.496C247.773 693.162 225.707 683.393 210.265 679.191C214.153 682.89 220.423 687.079 224.938 690.25L223.706 692.432C202.591 679.833 187.476 671.479 164.839 661.717C162.318 661.214 155.761 658.955 153.008 658.094C149.482 657.597 145.974 657.049 142.42 656.81L142.899 657.163C151.448 663.491 164.128 676.015 172.352 683.563C221.826 728.973 276.668 758.122 339.548 781.629C497.126 840.538 671.873 863.127 839.049 842.117C923.216 831.184 1012.72 804.281 1083.28 757.009C1087.28 754.329 1110.23 738.496 1112.69 735.263C1117.79 732.112 1127.37 724.299 1132.26 720.424C1127.14 722.368 1117.65 728.042 1112.54 730.904C1083.81 747.139 1052.64 764.174 1022.48 777.226C963.56 802.714 900.223 815.786 836.665 822.919C820.295 824.825 803.868 826.19 787.403 827.02C783.586 827.234 772.737 827.983 769.354 827.674C769.932 827.039 770.825 826.787 771.687 826.41L766.461 825.863C769.297 825.196 796.554 823.655 801.271 823.284C820.716 821.636 840.106 819.333 859.394 816.383C939.63 804.916 1017.22 779.402 1088.61 741.019C1140.16 713.625 1163.7 695.81 1193.31 645.23C1229.93 582.665 1259.57 510.078 1259.19 436.681C1251.18 456.833 1240.13 479.482 1230.34 499.003C1194.85 569.694 1156.99 624.604 1097.47 676.788L1095.69 675.423C1107.1 664.761 1128.04 644.72 1137.8 632.611C1186.99 571.619 1233.9 500.091 1257.54 424.846C1260.96 413.95 1265.92 396.683 1266.94 385.694C1270.82 364.361 1267.08 334.47 1264.03 313.15C1263.72 307.748 1259.79 298.359 1257.67 293.115C1241.52 253.077 1214.81 211.991 1179.66 186.22C1212.32 235.235 1240.05 287.009 1252.2 345.188C1254.26 355.085 1256.84 368.576 1257.23 378.608C1257.05 380.425 1256.98 383.567 1256.09 384.978C1254.74 376.103 1252.82 365.89 1251.03 357.083C1240.64 307.542 1221.96 260.108 1195.8 216.78C1174.65 181.737 1157.07 164.388 1122.6 141.499L1123.49 139.827C1125.37 140.63 1125.1 140.897 1126.57 140.429C1125.62 135.118 1109.67 123.973 1104.21 120.064C1008.41 51.4381 883.959 25.0434 767.674 31.6407C766.53 31.7058 762.366 34.3013 761.234 34.9988C777.913 35.2836 810.956 36.3885 827.276 38.4136C834.571 38.609 842.08 39.7401 849.489 40.5187C940.787 50.1133 1028.66 81.9352 1107.43 128.609C1109.28 129.705 1112.5 131.616 1113.89 132.981L1110.87 133.893C1025.82 83.6896 926.064 48.9485 827.408 40.7948C812.258 38.9319 793.227 37.4323 778.095 37.4667C771.115 37.4825 761.385 38.8803 753.65 39.2303C638.893 43.8595 528.372 83.8204 437.185 153.652C418.564 167.928 401.019 183.557 384.694 200.412C358.772 227.362 333.689 259.598 308.131 287.855C278.747 320.165 249.746 352.822 221.134 385.819C206.056 403.172 190.35 420.675 176.372 438.9C168.06 449.738 160.986 463.075 153.093 473.943C141.291 490.195 129.273 506.364 117.452 522.629C89.6411 560.893 58.8907 605.195 24.9463 638.248C62.0592 632.561 118.832 627.426 154.59 643.097C167.199 648.62 180.08 660.54 191.728 665.56C262.069 695.867 333.728 726.897 405.499 753.543C433.742 762.934 462.972 771.256 491.91 778.138C607.572 805.652 743.462 825.404 859.721 793.512C933.096 773.383 1007.02 728.671 1073.33 693.187ZM669.062 825.624C663.433 828.071 661.175 825.051 655.603 827.435C655.496 827.454 655.389 827.467 655.283 827.486C646.44 826.618 633.516 826.592 623.931 825.989C606.39 824.8 588.901 822.925 571.507 820.371C481.211 807.394 342.477 767.809 266.196 718.198L267.814 716.682C364.1 768.809 469.128 802.834 577.686 817.069C597.352 819.856 617.105 821.994 636.912 823.472C645.516 824.145 661.289 824.63 669.062 825.624ZM77.236 637.77C90.5996 641.877 97.5352 638.795 107.917 641.311C122.634 644.878 140.349 651.96 155.226 656.835C158.99 657.716 162.999 658.54 166.609 659.861C173.594 662.207 179.897 663.862 187.037 665.598C161.225 649.4 127.529 630.303 96.2899 635.291C89.4047 636.386 84.4024 635.669 77.236 637.77ZM1187.03 664.403C1205.39 647.847 1230.27 602.108 1240.82 579.222C1265.64 525.355 1277.5 467.728 1280.47 408.672C1282.28 372.568 1282.07 347.373 1269.34 313.17C1268.11 326.378 1271.43 338.094 1272.72 350.784C1273.75 360.829 1272.03 376.617 1270.35 386.571C1270.72 393.916 1265.88 406.491 1265.01 414.181C1262.9 432.603 1262.68 451.188 1260.37 469.615C1254.3 517.036 1240.35 563.111 1219.11 605.938C1215.08 613.972 1210.78 621.868 1206.22 629.611C1199.29 641.173 1192.02 651.778 1187.03 664.403ZM1221.45 219.531C1216.4 208.162 1208.72 198.755 1202.24 188.289C1159.4 119.09 1085.04 74.4793 1010.61 45.8076C946.988 21.3003 877.739 5.36401 809.597 2.08337C806.818 1.94971 803.421 1.87427 800.679 2.15768C741.103 5.61987 672.074 22.2725 617.058 45.833C611.294 48.3014 599.66 53.0421 594.965 56.4227L594.873 56.963C605.805 54.6186 618.999 50.1985 630.353 47.3865C653.421 41.6577 676.766 37.1207 700.3 33.7936C829.672 14.8871 977.679 33.2116 1089.12 105.158C1091.17 106.485 1093.22 107.832 1095.24 109.2C1130.65 133.924 1159.62 164.583 1192.58 192.293C1202.9 200.961 1209.54 211.557 1221.45 219.531ZM187.945 419.36C205.289 399.966 374.755 207.667 375.803 203.015L375.707 202.5C370.751 206.389 366.139 210.814 361.471 214.967C297.79 271.622 239.735 334.468 193.373 406.23C191.498 409.133 187.892 414.006 187.339 417.377L187.945 419.36ZM136.031 490.183C164.254 452.309 183.882 411.823 210.814 373.523C254.016 312.087 308.592 258.154 364.396 208.203C387.857 187.203 413.701 164.333 438.475 145.071C453.539 133.393 468.987 122.22 484.794 111.57C489.727 108.278 517.455 92.1476 517.377 87.5739C485.079 101.348 445.812 123.913 416.66 143.263C291.318 225.801 193.954 344.423 137.427 483.466C136.554 485.642 135.372 487.853 136.031 490.183Z" fill="black"/>
<path d="M266.196 718.198L267.814 716.682C364.1 768.81 469.128 802.834 577.686 817.069C597.353 819.856 617.105 821.994 636.913 823.472C645.516 824.146 661.289 824.63 669.062 825.624C663.434 828.071 661.176 825.051 655.604 827.435C655.497 827.454 655.39 827.467 655.283 827.486C646.441 826.618 633.517 826.592 623.931 825.989C606.39 824.8 588.901 822.925 571.507 820.371C481.211 807.394 342.477 767.809 266.196 718.198Z" fill="black"/>
<path d="M827.275 38.4141C834.571 38.6094 842.08 39.7406 849.488 40.5192C940.787 50.1137 1028.66 81.9357 1107.43 128.61C1109.28 129.705 1112.5 131.616 1113.89 132.981L1110.87 133.893C1025.81 83.69 926.064 48.9489 827.407 40.7953L827.275 38.4141Z" fill="black"/>
<path d="M1264.03 313.15C1266.2 312.418 1266.59 312.557 1268.96 312.681L1269.34 313.17C1268.11 326.379 1271.43 338.094 1272.72 350.784C1273.75 360.829 1272.03 376.617 1270.35 386.571L1266.94 385.694C1270.82 364.361 1267.08 334.47 1264.03 313.15Z" fill="black"/>
<path d="M669.062 825.624C675.885 826.366 682.596 825.788 689.268 826.329C715.116 828.411 740.637 826.266 766.46 825.863L771.687 826.41C770.825 826.788 769.932 827.039 769.353 827.675C741.141 829.059 712.406 828.656 684.143 828.323C674.772 828.209 664.577 828.102 655.282 827.486C655.389 827.467 655.496 827.455 655.603 827.436C661.175 825.052 663.433 828.071 669.062 825.624Z" fill="black" fill-opacity="0.988235"/>
<path d="M224.937 690.25C233.923 696.377 243.105 702.202 252.472 707.725C255.605 709.561 265.352 714.864 267.814 716.682L266.196 718.198C262.576 716.581 254.599 711.184 250.778 708.825L223.706 692.433L224.937 690.25Z" fill="black" fill-opacity="0.976471"/>
<path d="M1095.69 675.424L1097.47 676.789C1092.37 680.934 1080.01 691.414 1074.85 694.427L1073.33 693.188C1080.9 687.413 1088.35 681.488 1095.69 675.424Z" fill="black" fill-opacity="0.980392"/>
<path d="M1112.54 730.904C1117.65 728.042 1127.15 722.369 1132.26 720.425C1127.37 724.3 1117.79 732.112 1112.69 735.264C1111.86 733.691 1112.24 732.779 1112.54 730.904Z" fill="black" fill-opacity="0.0196078"/>
<path d="M1257.23 378.608C1258.04 384.308 1259.54 401.41 1258.89 407.076C1258.07 405.639 1256.44 387.931 1256.09 384.978C1256.98 383.567 1257.05 380.425 1257.23 378.608Z" fill="black" fill-opacity="0.960784"/>
<path d="M1113.89 132.98C1117.67 135.337 1120.03 137.125 1123.49 139.827L1122.6 141.499L1110.88 133.893L1113.89 132.98Z" fill="black" fill-opacity="0.988235"/>
<path d="M155.226 656.836C158.99 657.717 162.999 658.541 166.609 659.862C165.472 660.717 165.144 660.635 164.839 661.717C162.318 661.214 155.761 658.956 153.008 658.094L155.226 656.836Z" fill="black"/>
</svg>
